<svg width="1366" height="596" viewBox="0 0 1366 596" fill="none" xmlns="http://www.w3.org/2000/svg">
<path fill-rule="evenodd" clip-rule="evenodd" d="M895.992 11.4142C681.743 4.69623 280.504 -15.2056 102.004 21.6408C-78.087 58.8154 -111.764 130.265 -146.485 195.849C-177.666 254.743 -89.4023 309.654 -40.8197 367.436C11.9585 430.209 -97.5585 511.124 55.6392 555.92C215.499 602.665 608.703 599.887 827.605 590.166C1034.13 580.994 1139.8 552.083 1311 515.594C1487.12 478.057 1503.44 508.29 1567.17 445.608C1630.94 382.879 1654.07 267.768 1567.17 207.691C1491.28 155.229 1455.74 95.6975 1311 59.2005C1161.35 21.468 1088.95 17.4645 895.992 11.4142Z" fill="url(#paint0_linear_543_99)"/>
<defs>
<linearGradient id="paint0_linear_543_99" x1="735.5" y1="0" x2="735.5" y2="596" gradientUnits="userSpaceOnUse">
<stop stop-color="#C6E1F6"/>
<stop offset="1" stop-color="#E1F0EE"/>
</linearGradient>
</defs>
</svg>
