<svg width="708" height="596" viewBox="0 0 708 596" fill="none" xmlns="http://www.w3.org/2000/svg">
<path fill-rule="evenodd" clip-rule="evenodd" d="M417.944 11.4142C332.582 4.69623 172.719 -15.2056 101.6 21.6408C29.8471 58.8154 16.4294 130.265 2.59556 195.849C-9.82736 254.743 25.3389 309.654 44.6954 367.436C65.7235 430.209 22.0893 511.124 83.1269 555.92C146.819 602.665 303.481 599.887 390.697 590.166C472.981 580.994 515.081 552.083 583.292 515.594C653.462 478.057 659.966 508.29 685.357 445.608C710.766 382.879 719.979 267.768 685.357 207.691C655.122 155.229 640.963 95.6975 583.292 59.2005C523.669 21.468 494.823 17.4645 417.944 11.4142Z" fill="url(#paint0_linear_543_99)"/>
<defs>
<linearGradient id="paint0_linear_543_99" x1="354" y1="0" x2="354" y2="596" gradientUnits="userSpaceOnUse">
<stop stop-color="#C6E1F6"/>
<stop offset="1" stop-color="#E1F0EE"/>
</linearGradient>
</defs>
</svg>
