<svg width="175" height="186" viewBox="0 0 175 186" fill="none" xmlns="http://www.w3.org/2000/svg">
<path fill-rule="evenodd" clip-rule="evenodd" d="M102.761 3.56215C81.7728 1.4656 42.4668 -4.74539 24.9805 6.75367C7.33856 18.3551 4.03954 40.6533 0.638153 61.1206C-2.41631 79.5004 6.2301 96.6371 10.9893 114.67C16.1596 134.26 5.43112 159.512 20.4386 173.492C36.0988 188.08 74.6176 187.213 96.0617 184.179C116.293 181.317 122.813 166.842 139.585 155.455C156.838 143.74 162.268 158.627 168.511 139.065C174.758 119.489 177.023 83.5651 168.511 64.8165C161.077 48.4439 157.595 29.8653 143.416 18.4753C128.756 6.69976 121.663 5.45034 102.761 3.56215Z" fill="#E1E5F0"/>
<path d="M100.822 73.0092C100.822 65.3288 94.5963 59.1027 86.9159 59.1027C79.2356 59.1027 73.0094 65.3288 73.0094 73.0092V90.3924C73.0094 98.0728 79.2356 104.299 86.9159 104.299C94.5963 104.299 100.822 98.0728 100.822 90.3924V73.0092Z" stroke="#00325A" stroke-width="6.95327" stroke-linecap="round" stroke-linejoin="round"/>
<path d="M107.776 108.791C105.168 111.753 101.959 114.126 98.3618 115.749C94.7646 117.373 90.8624 118.21 86.9158 118.205C82.9693 118.21 79.0671 117.373 75.4699 115.749C71.8727 114.126 68.6633 111.753 66.056 108.791" stroke="#00325A" stroke-width="6.95327" stroke-linecap="round" stroke-linejoin="round"/>
<path d="M86.9159 118.206V128.635" stroke="#00325A" stroke-width="6.95327" stroke-linecap="round" stroke-linejoin="round"/>
<path d="M79.9626 128.635H93.8692" stroke="#00325A" stroke-width="6.95327" stroke-linecap="round" stroke-linejoin="round"/>
</svg>
