<svg width="175" height="186" viewBox="0 0 175 186" fill="none" xmlns="http://www.w3.org/2000/svg">
<path fill-rule="evenodd" clip-rule="evenodd" d="M102.761 3.56215C81.7728 1.4656 42.4668 -4.74539 24.9805 6.75367C7.33856 18.3551 4.03954 40.6533 0.638153 61.1206C-2.41631 79.5004 6.2301 96.6371 10.9893 114.67C16.1596 134.26 5.43112 159.512 20.4386 173.492C36.0988 188.08 74.6176 187.213 96.0617 184.179C116.293 181.317 122.813 166.842 139.585 155.455C156.838 143.74 162.268 158.627 168.511 139.065C174.758 119.489 177.023 83.5651 168.511 64.8165C161.077 48.4439 157.595 29.8653 143.416 18.4753C128.756 6.69976 121.663 5.45034 102.761 3.56215Z" fill="#C5CBF1"/>
<path d="M62.5795 76.4859C62.5795 74.6418 63.312 72.8732 64.616 71.5692C65.92 70.2652 67.6886 69.5326 69.5327 69.5326H104.299C106.143 69.5326 107.912 70.2652 109.216 71.5692C110.52 72.8732 111.252 74.6418 111.252 76.4859V111.252C111.252 113.096 110.52 114.865 109.216 116.169C107.912 117.473 106.143 118.206 104.299 118.206H69.5327C67.6886 118.206 65.92 117.473 64.616 116.169C63.312 114.865 62.5795 113.096 62.5795 111.252V76.4859Z" stroke="#00325A" stroke-width="6.95327" stroke-linecap="round" stroke-linejoin="round"/>
<path d="M76.486 128.635H97.3458" stroke="#00325A" stroke-width="6.95327" stroke-linecap="round" stroke-linejoin="round"/>
<path d="M76.486 59.1027H97.3458" stroke="#00325A" stroke-width="6.95327" stroke-linecap="round" stroke-linejoin="round"/>
<path d="M88.6542 83.4391L81.7009 93.869H92.1308L85.1776 104.299" stroke="#00325A" stroke-width="6.95327" stroke-linecap="round" stroke-linejoin="round"/>
</svg>
