<svg width="175" height="186" viewBox="0 0 175 186" fill="none" xmlns="http://www.w3.org/2000/svg">
<path fill-rule="evenodd" clip-rule="evenodd" d="M102.761 3.56215C81.7728 1.4656 42.4668 -4.74539 24.9805 6.75367C7.33857 18.3551 4.03953 40.6533 0.638155 61.1206C-2.4163 79.5004 6.2301 96.6371 10.9893 114.67C16.1596 134.26 5.43112 159.512 20.4386 173.492C36.0988 188.08 74.6176 187.213 96.0617 184.179C116.293 181.317 122.813 166.842 139.585 155.455C156.838 143.74 162.268 158.627 168.511 139.065C174.758 119.489 177.023 83.5651 168.511 64.8165C161.077 48.4439 157.595 29.8653 143.416 18.4753C128.756 6.69976 121.663 5.45034 102.761 3.56215Z" fill="#C6E1F6"/>
<path d="M86.9159 121.103C102.917 121.103 115.888 108.132 115.888 92.1308C115.888 76.13 102.917 63.1588 86.9159 63.1588C70.9152 63.1588 57.944 76.13 57.944 92.1308C57.944 108.132 70.9152 121.103 86.9159 121.103Z" stroke="#00325A" stroke-width="6.95327" stroke-linecap="round" stroke-linejoin="round"/>
<path d="M95.6075 103.72L88.6137 96.7258C87.5269 95.6394 86.9162 94.1658 86.9159 92.6292V74.7477" stroke="#00325A" stroke-width="6.95327" stroke-linecap="round" stroke-linejoin="round"/>
</svg>
