<svg width="175" height="186" viewBox="0 0 175 186" fill="none" xmlns="http://www.w3.org/2000/svg">
<path fill-rule="evenodd" clip-rule="evenodd" d="M102.761 3.56215C81.7728 1.4656 42.4668 -4.74539 24.9805 6.75367C7.33856 18.3551 4.03954 40.6533 0.638153 61.1206C-2.41631 79.5004 6.2301 96.6371 10.9893 114.67C16.1596 134.26 5.43112 159.512 20.4386 173.492C36.0988 188.08 74.6176 187.213 96.0617 184.179C116.293 181.317 122.813 166.842 139.585 155.455C156.838 143.74 162.268 158.627 168.511 139.065C174.758 119.489 177.023 83.5651 168.511 64.8165C161.077 48.4439 157.595 29.8653 143.416 18.4753C128.756 6.69976 121.663 5.45034 102.761 3.56215Z" fill="#E1F0EE"/>
<path d="M86.916 93.869C96.5165 93.869 104.299 86.0863 104.299 76.4858C104.299 66.8854 96.5165 59.1027 86.916 59.1027C77.3156 59.1027 69.5328 66.8854 69.5328 76.4858C69.5328 86.0863 77.3156 93.869 86.916 93.869Z" stroke="#00325A" stroke-width="6.95327"/>
<path d="M104.299 128.635H63.5043C62.5183 128.636 61.5435 128.426 60.6446 128.021C59.7457 127.615 58.9434 127.024 58.2907 126.284C57.638 125.545 57.1501 124.676 56.8591 123.734C56.5682 122.792 56.481 121.798 56.6032 120.82L57.9591 109.959C58.2744 107.436 59.5007 105.115 61.4074 103.432C63.314 101.749 65.7696 100.821 68.3125 100.822H69.5328" stroke="#00325A" stroke-width="6.95327" stroke-linecap="round" stroke-linejoin="round"/>
<path d="M100.823 107.776L108.645 114.729L121.682 100.822" stroke="#00325A" stroke-width="6.95327" stroke-linecap="round" stroke-linejoin="round"/>
</svg>
