<svg width="28" height="28" viewBox="0 0 28 28" fill="none" xmlns="http://www.w3.org/2000/svg">
<path fill-rule="evenodd" clip-rule="evenodd" d="M13.8478 1.50533C6.88313 1.50533 1.21739 7.11014 1.21739 13.9999C1.21739 20.8898 6.88313 26.4946 13.8478 26.4946C20.8125 26.4946 26.4795 20.8898 26.4795 13.9999C26.4795 7.11014 20.8125 1.50533 13.8478 1.50533ZM13.8478 27.6989C6.21235 27.6989 0 21.5533 0 14C0 6.44657 6.21235 0.301025 13.8478 0.301025C21.4845 0.301025 27.6969 6.44657 27.6969 14C27.6969 21.5533 21.4845 27.6989 13.8478 27.6989Z" fill="#007397"/>
<path fill-rule="evenodd" clip-rule="evenodd" d="M13.8478 1.50533C9.96072 1.50533 6.79796 7.11014 6.79796 13.9999C6.79796 20.8898 9.96072 26.4946 13.8478 26.4946C17.7337 26.4946 20.8952 20.8898 20.8952 13.9999C20.8952 7.11014 17.7337 1.50533 13.8478 1.50533M13.8479 27.6989C9.28874 27.6989 5.58057 21.5533 5.58057 14C5.58057 6.44657 9.28874 0.301025 13.8479 0.301025C18.4058 0.301025 22.1127 6.44657 22.1127 14C22.1127 21.5533 18.4058 27.6989 13.8479 27.6989Z" fill="#007397"/>
<path fill-rule="evenodd" clip-rule="evenodd" d="M14.4564 1.51953V26.4811C21.1399 26.1656 26.4794 20.6884 26.4794 13.9997C26.4794 7.31222 21.1399 1.83506 14.4564 1.51953ZM13.8477 27.6986C13.5117 27.6986 13.239 27.4301 13.239 27.0965V0.902932C13.239 0.570545 13.5117 0.300781 13.8477 0.300781C21.4844 0.300781 27.6968 6.44633 27.6968 13.9997C27.6968 21.5531 21.4844 27.6986 13.8477 27.6986Z" fill="#007397"/>
<path fill-rule="evenodd" clip-rule="evenodd" d="M1.8967 18.0139H25.7965C26.2494 16.7036 26.4795 15.3548 26.4795 14C26.4795 12.6451 26.2494 11.2963 25.7953 9.98482H1.89913C1.44626 11.2927 1.21739 12.6415 1.21739 14C1.21739 15.356 1.44504 16.7048 1.8967 18.0139ZM26.2238 19.2182H1.46817C1.21496 19.2182 0.987304 19.0628 0.898435 18.828C0.301913 17.2612 0 15.6366 0 14C0 12.3597 0.30313 10.7351 0.902087 9.16951C0.992174 8.93467 1.21861 8.78052 1.47183 8.78052H26.2238C26.477 8.78052 26.7035 8.93587 26.7936 9.16951C27.3925 10.7399 27.6969 12.3657 27.6969 14C27.6969 15.6354 27.3925 17.26 26.7936 18.8292C26.7035 19.0628 26.477 19.2182 26.2238 19.2182Z" fill="#007397"/>
</svg>
