<svg width="172" height="20" viewBox="0 0 172 20" fill="none" xmlns="http://www.w3.org/2000/svg">
<path fill-rule="evenodd" clip-rule="evenodd" d="M13.8157 0.626741C12.656 0.208912 11.306 0 9.76567 0H0V20H10.2358C11.794 20 13.1552 19.7725 14.3194 19.3175C15.4836 18.8626 16.3881 18.208 17.0328 17.3538C17.6776 16.4995 18 15.5107 18 14.3872C18 13.1244 17.6507 12.0334 16.9522 11.1142C16.2537 10.195 15.3269 9.60074 14.1716 9.33148C15.1657 9.02507 15.956 8.4819 16.5425 7.70195C17.1291 6.922 17.4224 6.03993 17.4224 5.05571C17.4224 4.04363 17.1112 3.15692 16.4888 2.39554C15.8664 1.63417 14.9754 1.04457 13.8157 0.626741ZM9.71429 8H7V6H9.71429C10.1032 6 10.4147 6.08987 10.6488 6.26961C10.8829 6.44935 11 6.68627 11 6.98039C11 7.28758 10.8829 7.53431 10.6488 7.72059C10.4147 7.90686 10.1032 8 9.71429 8ZM5 15H8.66756C9.37534 15 9.94102 14.8539 10.3646 14.5616C10.7882 14.2694 11 13.8904 11 13.4247C11 12.9954 10.7855 12.6507 10.3566 12.3904C9.92761 12.1301 9.36461 12 8.66756 12H5V15ZM40.8418 15.9135C41.6139 14.6085 42 13.0952 42 11.3736V0H35.4507V11.3736C35.4507 12.3443 35.1818 13.1204 34.6441 13.7019C34.1063 14.2834 33.4238 14.5742 32.5965 14.5742C31.7508 14.5742 31.0316 14.2743 30.4387 13.6745C29.8458 13.0746 29.5493 12.3077 29.5493 11.3736V0H23V11.3736C23 13.0952 23.3953 14.6085 24.1858 15.9135C24.9763 17.2184 26.0954 18.2257 27.5432 18.9354C28.9909 19.6452 30.6662 20 32.5689 20C34.4717 20 36.1332 19.6452 37.5533 18.9354C38.9735 18.2257 40.0697 17.2184 40.8418 15.9135ZM57.5667 0C59.078 0 60.5847 0.208615 62.087 0.62585C63.5892 1.04309 64.8935 1.60544 66 2.31293L63.6792 7.21088C62.5907 6.61224 61.4056 6.08163 60.1237 5.61905C58.8418 5.15646 57.8051 4.92517 57.0135 4.92517C56.2219 4.92517 55.8261 5.19728 55.8261 5.7415C55.8261 6.14966 56.0757 6.46939 56.575 6.70068C57.0742 6.93197 57.8636 7.18821 58.943 7.46939C60.3463 7.84127 61.5045 8.22222 62.4175 8.61224C63.3306 9.00227 64.1312 9.60997 64.8193 10.4354C65.5075 11.2608 65.8516 12.3628 65.8516 13.7415C65.8516 15.1383 65.4895 16.3039 64.7654 17.2381C64.0412 18.1723 63.0607 18.8662 61.8238 19.3197C60.587 19.7732 59.2129 20 57.7016 20C55.9925 20 54.2676 19.7279 52.527 19.1837C50.7863 18.6395 49.2774 17.873 48 16.8844L50.3883 12.0408C51.3688 12.8571 52.5944 13.5669 54.0652 14.1701C55.536 14.7732 56.7661 15.0748 57.7556 15.0748C58.7901 15.0748 59.3073 14.7392 59.3073 14.068C59.3073 13.6417 59.0532 13.3129 58.545 13.0816C58.0367 12.8503 57.2204 12.5941 56.096 12.3129C54.7286 11.9773 53.5862 11.6236 52.6687 11.2517C51.7511 10.8798 50.9573 10.2993 50.2871 9.5102C49.6169 8.72108 49.2819 7.66894 49.2819 6.35374C49.2819 5.07482 49.6214 3.95692 50.3006 3C50.9798 2.04308 51.9468 1.30386 53.2016 0.782313C54.4565 0.260768 55.9115 0 57.5667 0ZM71 0V20H78V0H71ZM97.5928 20L89.8975 9.79109V20H84V0H89.4208L97.1434 10.2786V0H103V20H97.5928ZM116.563 7.47911V5.02785H126.752V0H110V20H127V14.9861H116.563V12.493H125.814V7.47911H116.563ZM140.567 0C142.078 0 143.585 0.208615 145.087 0.62585C146.589 1.04309 147.894 1.60544 149 2.31293L146.679 7.21088C145.591 6.61224 144.406 6.08163 143.124 5.61905C141.842 5.15646 140.805 4.92517 140.013 4.92517C139.222 4.92517 138.826 5.19728 138.826 5.7415C138.826 6.14966 139.076 6.46939 139.575 6.70068C140.074 6.93197 140.864 7.18821 141.943 7.46939C143.346 7.84127 144.504 8.22222 145.418 8.61224C146.331 9.00227 147.131 9.60997 147.819 10.4354C148.507 11.2608 148.852 12.3628 148.852 13.7415C148.852 15.1383 148.49 16.3039 147.765 17.2381C147.041 18.1723 146.061 18.8662 144.824 19.3197C143.587 19.7732 142.213 20 140.702 20C138.992 20 137.268 19.7279 135.527 19.1837C133.786 18.6395 132.277 17.873 131 16.8844L133.388 12.0408C134.369 12.8571 135.594 13.5669 137.065 14.1701C138.536 14.7732 139.766 15.0748 140.756 15.0748C141.79 15.0748 142.307 14.7392 142.307 14.068C142.307 13.6417 142.053 13.3129 141.545 13.0816C141.037 12.8503 140.22 12.5941 139.096 12.3129C137.729 11.9773 136.586 11.6236 135.669 11.2517C134.751 10.8798 133.957 10.2993 133.287 9.5102C132.617 8.72108 132.282 7.66894 132.282 6.35374C132.282 5.07482 132.621 3.95692 133.301 3C133.98 2.04308 134.947 1.30386 136.202 0.782313C137.457 0.260768 138.912 0 140.567 0ZM168.087 0.62585C166.585 0.208615 165.078 0 163.567 0C161.912 0 160.457 0.260768 159.202 0.782313C157.947 1.30386 156.98 2.04308 156.301 3C155.621 3.95692 155.282 5.07482 155.282 6.35374C155.282 7.66894 155.617 8.72108 156.287 9.5102C156.957 10.2993 157.751 10.8798 158.669 11.2517C159.586 11.6236 160.729 11.9773 162.096 12.3129C163.22 12.5941 164.037 12.8503 164.545 13.0816C165.053 13.3129 165.307 13.6417 165.307 14.068C165.307 14.7392 164.79 15.0748 163.756 15.0748C162.766 15.0748 161.536 14.7732 160.065 14.1701C158.594 13.5669 157.369 12.8571 156.388 12.0408L154 16.8844C155.277 17.873 156.786 18.6395 158.527 19.1837C160.268 19.7279 161.992 20 163.702 20C165.213 20 166.587 19.7732 167.824 19.3197C169.061 18.8662 170.041 18.1723 170.765 17.2381C171.49 16.3039 171.852 15.1383 171.852 13.7415C171.852 12.3628 171.507 11.2608 170.819 10.4354C170.131 9.60997 169.331 9.00227 168.418 8.61224C167.504 8.22222 166.346 7.84127 164.943 7.46939C163.864 7.18821 163.074 6.93197 162.575 6.70068C162.076 6.46939 161.826 6.14966 161.826 5.7415C161.826 5.19728 162.222 4.92517 163.013 4.92517C163.805 4.92517 164.842 5.15646 166.124 5.61905C167.406 6.08163 168.591 6.61224 169.679 7.21088L172 2.31293C170.894 1.60544 169.589 1.04309 168.087 0.62585Z" fill="#007397"/>
</svg>
