<svg  viewBox="0 0 418 431" fill="none" xmlns="http://www.w3.org/2000/svg">
<path fill-rule="evenodd" clip-rule="evenodd" d="M141.798 358.75C108.579 353.454 64.4894 363.882 47.7092 331.253C30.8333 298.439 61.3599 252.879 66.3778 212.098C70.8785 175.521 57.0607 136.923 75.5414 105.062C94.2613 72.7881 128.925 59.5126 160.082 50.5492C188.465 42.3838 214.662 52.2117 242.201 57.1168C274.337 62.8405 310.431 57.7413 334.258 81.5715C361.2 108.518 379.639 149.156 378.557 193.492C377.455 238.715 358.411 286.318 328.466 319.045C300.713 349.376 262.035 352.175 226.433 359.748C197.291 365.947 170.03 363.252 141.798 358.75Z" fill="#E1E5F0"/>
<path d="M139.406 91.0173L131.564 79.8311L144.312 85.4274L143.602 68.3739L153.562 79.5471L161.785 66.2051L165.755 81.3609L178.219 79.9086L169.95 93.0247L183.486 101.616L166.517 98.7694L165.955 112.608L154.304 103.268L142.072 113.538L143.55 100.047L128.169 98.8082L139.406 91.0173Z" fill="white"/>
<path d="M139.407 91.018C139.407 91.018 139.168 91.1988 138.69 91.5344L136.534 93.0513L128.208 98.8606L128.169 98.7186L143.557 99.9256H143.673V100.042C143.234 104.083 142.744 108.64 142.215 113.539L142.002 113.423L154.227 103.134L154.317 103.063L154.408 103.134L166.058 112.487L165.807 112.603C165.981 108.214 166.168 103.566 166.362 98.7573V98.5766H166.543L183.486 101.455L183.37 101.759L170.577 93.6193L169.86 93.1675L169.718 93.0771L169.809 92.9351L178.084 79.8254L178.239 80.0772L165.774 81.5231H165.639L165.6 81.3875L161.637 66.2252L161.915 66.2704C159.049 70.9092 156.305 75.3523 153.685 79.5995L153.581 79.7674L153.452 79.6254L143.505 68.4586L143.731 68.3682C143.99 74.6681 144.216 80.3677 144.422 85.4217V85.5896L144.267 85.5186L131.525 79.8965L131.616 79.7803L137.425 88.1715L138.948 90.3016C139.278 90.7792 139.433 91.018 139.433 91.018C139.433 91.018 139.245 90.7728 138.903 90.2951L137.361 88.1715L131.5 79.89L131.338 79.6641L131.59 79.7738L144.358 85.3443L144.209 85.4476C143.99 80.3935 143.744 74.6939 143.473 68.3876V68.0261L143.712 68.2972L153.685 79.464H153.452C156.06 75.2167 158.797 70.7694 161.663 66.1219L161.856 65.8057L161.947 66.1607L165.929 81.3101L165.755 81.1939L178.2 79.7803L178.548 79.7415L178.361 80.032C175.659 84.3352 172.903 88.7072 170.093 93.1481L170.041 92.9157L170.758 93.3676L183.577 101.514L184.274 101.952L183.486 101.785L166.517 98.9252L166.704 98.7767C166.51 103.56 166.317 108.226 166.136 112.616V112.926L165.897 112.732L154.279 103.379H154.459C150.096 107.032 145.965 110.479 142.195 113.642L141.95 113.842V113.526C142.492 108.633 143.002 104.076 143.447 100.035L143.551 100.158L128.169 98.8671H127.949L128.13 98.7444L136.47 93.0126L138.651 91.5215L139.407 91.018Z" fill="#263238"/>
<path d="M173.953 106.722C173.953 106.722 173.675 106.761 173.217 106.948C172.57 107.224 172.024 107.693 171.655 108.291C171.396 108.695 171.231 109.151 171.171 109.627C171.111 110.17 171.21 110.719 171.455 111.208C171.705 111.794 172.13 112.288 172.671 112.623C173.212 112.958 173.844 113.117 174.48 113.08C175.115 113.042 175.724 112.81 176.222 112.414C176.72 112.017 177.084 111.477 177.264 110.866C177.45 110.351 177.481 109.792 177.354 109.259C177.239 108.785 177.019 108.344 176.709 107.968C176.271 107.418 175.673 107.017 174.998 106.819C174.747 106.759 174.493 106.711 174.237 106.677H174.437C174.521 106.671 174.605 106.671 174.688 106.677C174.801 106.69 174.913 106.709 175.024 106.735C175.735 106.905 176.372 107.301 176.838 107.865C177.169 108.249 177.408 108.703 177.535 109.194C177.683 109.764 177.656 110.364 177.458 110.918C177.252 111.535 176.881 112.084 176.386 112.506C175.854 112.961 175.192 113.236 174.495 113.293C173.796 113.32 173.106 113.123 172.526 112.732C171.981 112.383 171.545 111.889 171.267 111.305C171.009 110.777 170.911 110.185 170.983 109.601C171.079 108.999 171.33 108.432 171.711 107.957C172.093 107.481 172.592 107.114 173.159 106.89C173.266 106.849 173.376 106.817 173.488 106.793C173.568 106.77 173.65 106.757 173.733 106.754C173.882 106.716 173.953 106.709 173.953 106.722Z" fill="#263238"/>
<path d="M182.137 114.855C182.137 114.855 181.963 114.894 181.679 115.016C181.282 115.197 180.947 115.491 180.717 115.862C180.544 116.127 180.442 116.432 180.422 116.747C180.402 117.063 180.463 117.378 180.601 117.663C180.769 118.007 181.034 118.293 181.365 118.486C181.695 118.679 182.075 118.77 182.457 118.747C182.838 118.724 183.205 118.589 183.51 118.358C183.815 118.127 184.045 117.811 184.17 117.45C184.273 117.151 184.297 116.83 184.239 116.519C184.182 116.208 184.045 115.917 183.841 115.675C183.571 115.333 183.205 115.081 182.789 114.952C182.492 114.861 182.311 114.868 182.311 114.849C182.474 114.804 182.646 114.804 182.808 114.849C183.263 114.952 183.673 115.198 183.977 115.552C184.187 115.8 184.342 116.091 184.429 116.404C184.519 116.771 184.504 117.156 184.383 117.514C184.258 117.931 184.008 118.3 183.666 118.57C183.324 118.839 182.908 118.998 182.473 119.023C182.039 119.048 181.607 118.94 181.236 118.711C180.865 118.483 180.574 118.146 180.401 117.747C180.237 117.406 180.176 117.024 180.226 116.649C180.273 116.33 180.392 116.025 180.575 115.759C180.828 115.367 181.206 115.072 181.647 114.92C181.803 114.86 181.971 114.837 182.137 114.855V114.855Z" fill="#263238"/>
<path d="M151.703 83.8207L151.767 90.921C151.771 91.2015 151.877 91.4712 152.064 91.68C152.252 91.8888 152.509 92.0227 152.787 92.057V92.057C153.085 92.0944 153.386 92.0152 153.626 91.8359C153.867 91.6566 154.029 91.3912 154.078 91.0952L155.253 83.995C155.263 83.8718 155.249 83.7477 155.21 83.6304C155.171 83.513 155.108 83.4048 155.026 83.3124C154.944 83.22 154.844 83.1453 154.732 83.0928C154.62 83.0404 154.499 83.0113 154.375 83.0074L152.645 82.9364C152.525 82.9312 152.405 82.9501 152.292 82.992C152.179 83.0339 152.076 83.0979 151.988 83.1802C151.9 83.2626 151.83 83.3617 151.781 83.4717C151.732 83.5817 151.705 83.7003 151.703 83.8207V83.8207Z" fill="#263238"/>
<path d="M154.44 96.1755C154.314 96.4949 154.096 96.7699 153.814 96.9656C153.532 97.1613 153.198 97.269 152.855 97.2751C152.512 97.2812 152.174 97.1854 151.886 96.9998C151.597 96.8142 151.369 96.5472 151.232 96.2324C151.095 95.9176 151.055 95.5693 151.115 95.2314C151.176 94.8935 151.336 94.5812 151.574 94.3341C151.812 94.0869 152.119 93.9159 152.454 93.8427C152.789 93.7695 153.139 93.7973 153.459 93.9228C153.671 94.0061 153.865 94.1306 154.029 94.2889C154.194 94.4473 154.325 94.6365 154.416 94.8457C154.507 95.055 154.556 95.2801 154.56 95.5083C154.564 95.7364 154.523 95.9632 154.44 96.1755V96.1755Z" fill="#263238"/>
<path d="M157.112 84.1108L157.176 91.211C157.179 91.493 157.285 91.7642 157.474 91.9734C157.663 92.1827 157.922 92.3156 158.203 92.3471V92.3471C158.5 92.388 158.801 92.311 159.043 92.1324C159.284 91.9539 159.446 91.6881 159.493 91.3918L160.668 84.2915C160.69 84.1651 160.685 84.0355 160.653 83.9112C160.621 83.787 160.563 83.6711 160.482 83.5714C160.401 83.4717 160.3 83.3904 160.185 83.3332C160.07 83.2759 159.944 83.2439 159.816 83.2394L158.08 83.1684C157.953 83.1591 157.825 83.177 157.705 83.2207C157.585 83.2644 157.476 83.3331 157.384 83.4221C157.293 83.5112 157.221 83.6186 157.174 83.7373C157.127 83.856 157.106 83.9833 157.112 84.1108V84.1108Z" fill="#263238"/>
<path d="M159.868 96.4716C159.742 96.7911 159.524 97.066 159.242 97.2617C158.96 97.4575 158.627 97.5652 158.283 97.5713C157.94 97.5774 157.603 97.4816 157.314 97.296C157.025 97.1104 156.798 96.8433 156.661 96.5285C156.523 96.2138 156.483 95.8654 156.544 95.5275C156.604 95.1897 156.764 94.8774 157.002 94.6302C157.241 94.383 157.547 94.212 157.882 94.1388C158.218 94.0656 158.567 94.0935 158.887 94.2189C159.099 94.3023 159.293 94.4267 159.457 94.5851C159.622 94.7435 159.753 94.9327 159.844 95.1419C159.935 95.3511 159.984 95.5762 159.989 95.8044C159.993 96.0326 159.952 96.2593 159.868 96.4716V96.4716Z" fill="#263238"/>
<path d="M264.829 96.4271L270.723 88.0294L261.15 92.225L261.68 79.4252L254.205 87.81L248.034 77.7986L245.046 89.1719L235.693 88.0875L241.902 97.931L231.736 104.386L244.478 102.243L244.897 112.635L253.643 105.619L262.829 113.339L261.718 103.205L273.272 102.275L264.829 96.4271Z" fill="white"/>
<path d="M264.817 96.427L265.398 96.8079L267.044 97.9245L273.305 102.211L273.485 102.333H273.266L261.718 103.295L261.815 103.172C262.157 106.206 262.538 109.627 262.945 113.306L262.983 113.623L262.738 113.416L253.54 105.715H253.721L244.981 112.738L244.742 112.932V112.622C244.607 109.33 244.465 105.825 244.316 102.23L244.503 102.385L231.762 104.528L230.948 104.67L231.645 104.224L241.276 98.1117L241.812 97.7696L241.76 98.002C239.643 94.6842 237.577 91.3987 235.551 88.1714L235.363 87.8744L235.712 87.9132L245.065 89.0105L244.891 89.1331L247.879 77.7598L247.97 77.4048L248.163 77.7146L254.328 87.7389H254.095L261.583 79.3477L261.828 79.0766V79.438C261.628 84.1694 261.441 88.4747 261.273 92.2443L261.124 92.1411L270.71 87.9713L270.962 87.8615L270.807 88.0874L266.398 94.2905L265.256 95.8913L264.849 96.4399L265.21 95.8977L266.321 94.2905L270.678 87.9971L270.774 88.1133L261.208 92.3411L261.053 92.4057V92.2379C261.202 88.4425 261.376 84.1629 261.563 79.4316L261.789 79.522L254.328 87.9132L254.198 88.0616L254.095 87.8938L247.912 77.8889L248.196 77.8437C247.234 81.51 246.259 85.3119 245.22 89.2235L245.181 89.359H245.039L235.686 88.2746L235.841 88.0164L242.044 97.8535L242.128 97.9955L241.993 98.0859L241.45 98.428L231.826 104.541L231.71 104.231L244.452 102.094H244.633V102.275C244.775 105.87 244.917 109.375 245.046 112.667L244.794 112.558L253.547 105.548L253.643 105.477L253.734 105.548L262.906 113.293L262.699 113.41C262.299 109.73 261.931 106.309 261.609 103.276V103.159H261.718L273.272 102.262L273.208 102.372L266.96 97.9891L265.346 96.8466C265.004 96.5626 264.817 96.427 264.817 96.427Z" fill="#263238"/>
<path d="M238.894 108.213C238.894 108.213 239.1 108.213 239.449 108.387C239.933 108.597 240.343 108.948 240.624 109.394C240.817 109.697 240.94 110.039 240.985 110.395C241.028 110.803 240.954 111.215 240.772 111.583C240.581 112.017 240.262 112.383 239.857 112.63C239.452 112.878 238.981 112.996 238.507 112.968C238.033 112.939 237.579 112.767 237.207 112.473C236.834 112.179 236.56 111.778 236.422 111.324C236.284 110.939 236.259 110.523 236.351 110.124C236.464 109.696 236.686 109.304 236.995 108.986C237.303 108.669 237.688 108.436 238.113 108.31C238.474 108.207 238.687 108.22 238.687 108.2C238.636 108.195 238.584 108.195 238.532 108.2C238.47 108.195 238.408 108.195 238.345 108.2C238.262 108.205 238.18 108.218 238.1 108.239C237.648 108.348 237.233 108.577 236.9 108.902C236.567 109.227 236.328 109.636 236.209 110.085C236.104 110.512 236.124 110.96 236.267 111.376C236.424 111.835 236.706 112.242 237.08 112.551C237.477 112.896 237.975 113.104 238.5 113.145C239.024 113.161 239.541 113.014 239.978 112.725C240.386 112.459 240.712 112.086 240.921 111.647C241.118 111.247 241.192 110.798 241.134 110.356C241.077 109.98 240.939 109.621 240.727 109.304C240.43 108.843 239.99 108.492 239.475 108.304C239.396 108.271 239.314 108.247 239.23 108.233C239.17 108.225 239.109 108.225 239.049 108.233L238.894 108.213Z" fill="#263238"/>
<path d="M232.749 114.326C232.749 114.326 232.878 114.326 233.091 114.448C233.395 114.581 233.648 114.807 233.814 115.094C233.945 115.292 234.022 115.52 234.038 115.757C234.053 115.993 234.008 116.23 233.904 116.443C233.776 116.694 233.582 116.906 233.341 117.054C233.101 117.202 232.825 117.281 232.543 117.282C232.253 117.256 231.978 117.147 231.749 116.969C231.52 116.79 231.347 116.549 231.252 116.275C231.173 116.05 231.154 115.809 231.197 115.574C231.24 115.34 231.343 115.121 231.497 114.939C231.698 114.682 231.973 114.493 232.284 114.397C232.51 114.332 232.646 114.332 232.646 114.313C232.523 114.285 232.395 114.285 232.271 114.313C231.93 114.392 231.623 114.577 231.394 114.842C231.235 115.029 231.12 115.25 231.058 115.488C230.978 115.759 230.978 116.049 231.058 116.32C231.163 116.627 231.354 116.897 231.608 117.099C231.862 117.3 232.168 117.424 232.491 117.456C232.816 117.465 233.136 117.379 233.413 117.208C233.689 117.037 233.909 116.789 234.046 116.495C234.17 116.24 234.215 115.955 234.176 115.675C234.139 115.443 234.051 115.222 233.917 115.029C233.726 114.732 233.442 114.506 233.111 114.384C232.996 114.337 232.872 114.317 232.749 114.326V114.326Z" fill="#263238"/>
<path d="M255.599 91.0177L255.554 96.3687C255.549 96.5778 255.468 96.778 255.327 96.9323C255.186 97.0866 254.994 97.1845 254.786 97.2078V97.2078C254.569 97.2294 254.352 97.1692 254.178 97.039C254.004 96.9088 253.884 96.718 253.843 96.5042L252.966 91.1791C252.949 91.0835 252.953 90.9855 252.977 90.8916C253.002 90.7977 253.046 90.7102 253.107 90.635C253.169 90.5597 253.245 90.4984 253.332 90.4553C253.419 90.4122 253.514 90.3883 253.611 90.3851L254.902 90.3335C254.994 90.3259 255.087 90.3383 255.174 90.3698C255.262 90.4013 255.341 90.4512 255.407 90.5161C255.473 90.581 255.525 90.6594 255.558 90.746C255.591 90.8325 255.605 90.9252 255.599 91.0177V91.0177Z" fill="#263238"/>
<path d="M253.533 100.3C253.629 100.535 253.792 100.737 254.002 100.881C254.212 101.024 254.459 101.102 254.713 101.105C254.968 101.109 255.217 101.037 255.431 100.899C255.644 100.761 255.812 100.563 255.913 100.33C256.015 100.097 256.045 99.8388 256.001 99.5885C255.956 99.3382 255.839 99.1067 255.663 98.9229C255.488 98.7391 255.262 98.6112 255.014 98.5553C254.766 98.4994 254.507 98.5179 254.269 98.6086C254.109 98.6699 253.962 98.7625 253.838 98.8812C253.714 98.9998 253.614 99.1421 253.546 99.2996C253.477 99.4571 253.441 99.6267 253.439 99.7984C253.437 99.9701 253.469 100.141 253.533 100.3V100.3Z" fill="#263238"/>
<path d="M251.539 91.2436L251.487 96.5624C251.488 96.7745 251.41 96.9794 251.268 97.137C251.126 97.2946 250.93 97.3935 250.719 97.4144C250.499 97.4422 250.276 97.3829 250.099 97.249C249.922 97.1152 249.804 96.9175 249.77 96.6979L248.886 91.3985C248.87 91.3031 248.875 91.2055 248.9 91.1121C248.925 91.0187 248.969 90.9316 249.03 90.8566C249.091 90.7815 249.167 90.7203 249.254 90.6769C249.34 90.6334 249.435 90.6088 249.531 90.6046L250.822 90.553C250.915 90.5495 251.008 90.5648 251.095 90.5979C251.181 90.6311 251.261 90.6814 251.327 90.7459C251.394 90.8104 251.448 90.8877 251.484 90.9732C251.52 91.0587 251.539 91.1507 251.539 91.2436Z" fill="#263238"/>
<path d="M249.473 100.519C249.569 100.755 249.732 100.957 249.942 101.1C250.152 101.243 250.399 101.322 250.653 101.325C250.908 101.328 251.157 101.256 251.371 101.118C251.584 100.98 251.752 100.782 251.853 100.549C251.955 100.316 251.985 100.058 251.941 99.8077C251.896 99.5575 251.779 99.3259 251.603 99.1421C251.428 98.9583 251.202 98.8304 250.954 98.7745C250.706 98.7186 250.447 98.7372 250.209 98.8278C250.049 98.8891 249.902 98.9818 249.778 99.1004C249.654 99.2191 249.555 99.3613 249.486 99.5188C249.417 99.6763 249.381 99.8459 249.379 100.018C249.377 100.189 249.409 100.36 249.473 100.519V100.519Z" fill="#263238"/>
<path d="M259.995 271.964H152.303V340.385H259.995V271.964Z" fill="#455A64"/>
<path d="M257.645 270.015H149.579C143.105 270.015 137.857 275.263 137.857 281.737V282.305C137.857 288.778 143.105 294.026 149.579 294.026H257.645C264.119 294.026 269.367 288.778 269.367 282.305V281.737C269.367 275.263 264.119 270.015 257.645 270.015Z" fill="#455A64"/>
<path d="M260.137 293.704C260.137 293.794 234.963 293.871 203.98 293.871C172.997 293.871 147.791 293.794 147.791 293.704C147.791 293.613 172.965 293.529 203.98 293.529C234.995 293.529 260.137 293.607 260.137 293.704Z" fill="#263238"/>
<path d="M166.704 340.94C166.613 340.94 166.536 330.509 166.536 317.645C166.536 304.78 166.613 294.349 166.704 294.349C166.794 294.349 166.872 304.774 166.872 317.645C166.872 330.515 166.781 340.94 166.704 340.94Z" fill="#263238"/>
<path d="M234.756 284.338C234.585 283.756 234.445 283.166 234.337 282.569C233.997 281.151 233.531 279.766 232.943 278.432C232.35 277.102 231.637 275.829 230.813 274.63C230.444 274.147 230.102 273.645 229.786 273.126C230.253 273.523 230.663 273.981 231.006 274.488C231.899 275.667 232.653 276.945 233.252 278.296C233.839 279.651 234.272 281.067 234.543 282.518C234.693 283.113 234.764 283.725 234.756 284.338V284.338Z" fill="#263238"/>
<path d="M240.54 280.749C240.482 280.749 240.243 280.059 239.668 279.019C238.915 277.669 237.935 276.46 236.77 275.443C235.6 274.436 234.266 273.635 232.826 273.074C231.716 272.655 230.98 272.519 230.993 272.429C231.169 272.417 231.345 272.432 231.516 272.474C231.987 272.554 232.451 272.67 232.904 272.823C235.936 273.848 238.442 276.025 239.881 278.884C240.097 279.311 240.277 279.756 240.417 280.213C240.489 280.383 240.531 280.565 240.54 280.749V280.749Z" fill="#263238"/>
<path d="M189.993 147.781L173.927 150.395L172.752 182.791V246.777H244.981V171.76L235.602 150.395L189.993 147.781Z" fill="#C6E1F6"/>
<path d="M173.927 150.395C173.927 150.395 160.92 156.662 158.713 170.682C156.505 184.702 150.683 200.297 149.579 203.447C148.475 206.597 144.854 219.667 150.367 225.025C155.879 230.382 158.241 229.905 161.708 229.434C165.174 228.962 171.422 223.682 174.14 220.933C177.412 217.615 175.663 211.896 175.663 211.896L173.927 150.395Z" fill="#C6E1F6"/>
<path d="M235.602 150.395C235.602 150.395 244.981 152.48 249.383 159.212C253.198 165.021 258.568 183.179 258.568 183.179C258.568 183.179 267.056 206.416 266.017 213.097C264.978 219.777 255.799 228.459 250.215 224.644C245.219 221.223 241.224 218.189 239.042 215.569C238.259 214.33 237.856 212.89 237.88 211.425L240.152 178.609L235.602 150.395Z" fill="#C6E1F6"/>
<path d="M154.072 207.855C153.642 207.355 153.368 206.741 153.284 206.087C152.961 204.528 153.125 202.908 153.755 201.446C154.096 200.636 154.602 199.906 155.24 199.303C155.792 198.819 156.495 198.543 157.228 198.522C157.709 198.508 158.189 198.573 158.648 198.715C158.819 198.755 158.982 198.82 159.132 198.909C158.507 198.807 157.874 198.758 157.241 198.761C156.57 198.807 155.935 199.08 155.44 199.535C154.852 200.124 154.383 200.821 154.059 201.588C153.463 202.994 153.277 204.541 153.523 206.048C153.637 206.669 153.821 207.276 154.072 207.855Z" fill="#263238"/>
<path d="M175.224 181.726C175.108 179.735 175.108 177.74 175.224 175.749C175.232 173.753 175.355 171.76 175.592 169.778C175.691 171.77 175.68 173.765 175.56 175.755C175.556 177.75 175.444 179.743 175.224 181.726V181.726Z" fill="#263238"/>
<path d="M155.027 199.612C155.027 199.709 154.381 199.612 153.633 199.761C152.884 199.909 152.342 200.232 152.296 200.155C152.251 200.077 152.735 199.593 153.587 199.425C153.827 199.351 154.079 199.329 154.328 199.362C154.576 199.394 154.814 199.479 155.027 199.612V199.612Z" fill="#263238"/>
<path d="M238.255 175.762C238.106 175.164 238.005 174.556 237.952 173.942C237.79 172.819 237.551 171.27 237.222 169.572C236.893 167.875 236.525 166.345 236.247 165.247C236.065 164.659 235.929 164.057 235.841 163.447C236.12 163.999 236.337 164.582 236.486 165.183C236.916 166.605 237.274 168.049 237.558 169.508C237.851 170.965 238.066 172.436 238.203 173.916C238.283 174.528 238.3 175.147 238.255 175.762V175.762Z" fill="#263238"/>
<path d="M225.261 216.821C225.183 216.931 225.097 217.034 225.003 217.131L224.216 217.977C223.88 218.345 223.454 218.784 222.925 219.268C222.395 219.752 221.834 220.333 221.15 220.914C220.465 221.495 219.743 222.159 218.91 222.805C218.077 223.45 217.186 224.141 216.231 224.845C214.13 226.317 211.944 227.666 209.686 228.885C207.406 230.081 205.057 231.139 202.65 232.055C201.534 232.448 200.475 232.842 199.462 233.133C198.448 233.423 197.525 233.713 196.641 233.933C195.757 234.152 194.976 234.327 194.285 234.475C193.594 234.624 192.994 234.74 192.49 234.817L191.348 234.991C191.216 235.017 191.082 235.03 190.948 235.03C191.074 234.978 191.206 234.941 191.341 234.92L192.465 234.688C192.955 234.591 193.555 234.469 194.246 234.294C194.937 234.12 195.724 233.959 196.576 233.701C197.428 233.442 198.384 233.204 199.378 232.868C200.372 232.532 201.43 232.164 202.541 231.764C207.339 229.938 211.893 227.523 216.096 224.573C217.051 223.883 217.967 223.237 218.781 222.572C219.594 221.908 220.362 221.282 221.04 220.726C221.718 220.171 222.331 219.59 222.834 219.119C223.338 218.648 223.803 218.216 224.125 217.867L224.952 217.06C225.145 216.899 225.248 216.808 225.261 216.821Z" fill="#263238"/>
<g opacity="0.3">
<path opacity="0.3" d="M255.386 206.416C255.386 207.21 255.547 207.494 256.031 207.655C256.24 207.676 256.451 207.652 256.65 207.585C256.849 207.518 257.032 207.41 257.187 207.268C258.168 206.232 258.747 204.879 258.82 203.453C259.144 200.603 258.573 197.722 257.187 195.21C257.617 196.83 257.617 198.535 257.187 200.155L255.386 206.416Z" fill="black"/>
</g>
<g opacity="0.3">
<path opacity="0.3" d="M157.189 212.348C156.486 210.411 154.665 209.12 153.723 207.268C152.606 205.099 153.471 201.458 155.014 199.612C152.807 201.013 152.432 204.221 152.348 206.622C152.236 209.051 153.022 211.436 154.556 213.322C154.865 213.718 155.269 214.029 155.731 214.226C155.964 214.313 156.217 214.33 156.459 214.276C156.702 214.222 156.924 214.1 157.099 213.923C157.246 213.689 157.331 213.422 157.347 213.147C157.363 212.871 157.308 212.596 157.189 212.348Z" fill="black"/>
</g>
<path d="M167.801 175.659C166.856 174.614 165.993 173.499 165.219 172.322C164.355 171.207 163.582 170.024 162.908 168.785C163.853 169.829 164.716 170.945 165.49 172.122C166.355 173.236 167.128 174.419 167.801 175.659V175.659Z" fill="white"/>
<path d="M163.115 189.369C162.231 190.117 161.278 190.778 160.268 191.344C159.317 192.004 158.303 192.568 157.241 193.029C158.127 192.281 159.083 191.62 160.094 191.053C161.046 190.398 162.057 189.834 163.115 189.369V189.369Z" fill="white"/>
<path d="M176.437 194.191C175.415 193.433 174.461 192.589 173.584 191.667C172.633 190.825 171.757 189.903 170.964 188.911C171.985 189.669 172.936 190.518 173.804 191.447C174.759 192.284 175.64 193.202 176.437 194.191V194.191Z" fill="white"/>
<path d="M156.376 209.979C156.495 208.516 156.834 207.08 157.383 205.719C157.382 206.455 157.267 207.187 157.041 207.888C156.928 208.615 156.704 209.32 156.376 209.979Z" fill="white"/>
<path d="M154.756 221.546C154.678 221.61 153.368 220.068 151.574 218.318C149.779 216.569 148.204 215.323 148.262 215.24C148.666 215.434 149.041 215.682 149.379 215.975C151.082 217.28 152.628 218.777 153.988 220.436C154.294 220.769 154.552 221.142 154.756 221.546V221.546Z" fill="white"/>
<path d="M162.831 218.886C162.265 220.21 161.601 221.49 160.843 222.714C160.176 223.993 159.412 225.218 158.558 226.38C159.122 225.055 159.786 223.776 160.546 222.553C161.21 221.272 161.974 220.046 162.831 218.886V218.886Z" fill="white"/>
<path d="M170.577 219.112C170.506 219.177 169.524 218.105 168.182 216.937C166.839 215.769 165.658 214.936 165.71 214.852C166.706 215.306 167.619 215.926 168.408 216.685C169.265 217.363 169.999 218.184 170.577 219.112Z" fill="white"/>
<path d="M174.579 159.231C173.946 160.368 173.216 161.448 172.397 162.459C171.67 163.544 170.851 164.566 169.95 165.512C170.582 164.376 171.31 163.296 172.126 162.285C172.855 161.199 173.676 160.177 174.579 159.231V159.231Z" fill="white"/>
<path d="M184.377 158.863C183.337 157.863 182.377 156.784 181.504 155.636C180.557 154.553 179.693 153.398 178.922 152.183C179.96 153.185 180.92 154.263 181.795 155.41C182.741 156.495 183.604 157.649 184.377 158.863Z" fill="white"/>
<path d="M185.668 179.829C184.792 178.787 184.055 177.638 183.473 176.408C182.793 175.231 182.264 173.973 181.898 172.664C181.989 172.664 182.731 174.284 183.77 176.253C184.809 178.221 185.745 179.79 185.668 179.829Z" fill="white"/>
<path d="M198.371 173.058C196.902 172.707 195.463 172.243 194.065 171.67C192.628 171.206 191.226 170.639 189.87 169.972C191.338 170.322 192.777 170.784 194.175 171.353C195.613 171.821 197.015 172.39 198.371 173.058Z" fill="white"/>
<path d="M200.611 156.656C200.656 156.74 199.565 157.431 198.326 158.418C197.086 159.406 196.163 160.316 196.092 160.245C196.632 159.429 197.319 158.722 198.119 158.16C198.847 157.506 199.692 156.995 200.611 156.656Z" fill="white"/>
<path d="M193.439 195.391C193.034 193.799 192.736 192.182 192.549 190.55C192.253 188.933 192.065 187.299 191.987 185.657C192.397 187.248 192.696 188.866 192.884 190.498C193.184 192.114 193.37 193.749 193.439 195.391Z" fill="white"/>
<path d="M191.283 205.499C189.846 204.84 188.459 204.076 187.133 203.214C185.751 202.447 184.425 201.585 183.163 200.632C184.598 201.293 185.983 202.057 187.307 202.917C188.691 203.684 190.02 204.547 191.283 205.499Z" fill="white"/>
<path d="M182.305 218.925C181.77 217.838 181.338 216.704 181.014 215.537C180.584 214.402 180.258 213.231 180.039 212.038C180.574 213.125 181.006 214.26 181.33 215.427C181.76 216.561 182.086 217.732 182.305 218.925V218.925Z" fill="white"/>
<path d="M187.01 232.3C185.655 231.759 184.345 231.111 183.092 230.363C181.788 229.721 180.535 228.981 179.342 228.149C180.695 228.691 182.003 229.338 183.254 230.086C184.56 230.728 185.816 231.468 187.01 232.3V232.3Z" fill="white"/>
<path d="M200.501 215.827C199.947 217.708 199.288 219.557 198.526 221.365C197.867 223.213 197.101 225.021 196.234 226.78C196.79 224.899 197.449 223.051 198.209 221.242C198.87 219.395 199.635 217.587 200.501 215.827V215.827Z" fill="white"/>
<path d="M210.538 208.165C210.461 208.243 208.808 206.558 206.388 204.996C203.967 203.434 201.779 202.575 201.818 202.479C202.326 202.571 202.819 202.734 203.283 202.963C205.581 203.931 207.686 205.304 209.499 207.016C209.896 207.35 210.245 207.737 210.538 208.165V208.165Z" fill="white"/>
<path d="M219.685 192.351C218.896 193.438 218.019 194.459 217.064 195.404C216.187 196.421 215.229 197.364 214.198 198.225C214.984 197.135 215.861 196.114 216.819 195.172C217.692 194.151 218.65 193.208 219.685 192.351Z" fill="white"/>
<path d="M210.538 190.311C210.435 190.311 210.138 188.626 209.344 186.671C208.55 184.715 207.614 183.269 207.698 183.211C208.549 184.188 209.206 185.319 209.634 186.542C210.177 187.728 210.483 189.008 210.538 190.311Z" fill="white"/>
<path d="M214.617 168.017C214.688 168.081 213.404 169.65 211.977 171.702C210.551 173.755 209.512 175.498 209.428 175.446C209.56 175.019 209.751 174.613 209.996 174.239C211.039 172.36 212.272 170.593 213.675 168.965C213.941 168.605 214.259 168.285 214.617 168.017V168.017Z" fill="white"/>
<path d="M211.816 162.084C211.128 161.047 210.536 159.95 210.047 158.805C209.458 157.712 208.97 156.567 208.589 155.384C209.273 156.422 209.862 157.52 210.351 158.663C210.94 159.758 211.431 160.903 211.816 162.084V162.084Z" fill="white"/>
<path d="M231.09 201.542C230.179 202.532 229.188 203.446 228.128 204.273C227.139 205.186 226.075 206.013 224.945 206.745C225.86 205.759 226.851 204.846 227.908 204.015C228.898 203.103 229.962 202.276 231.09 201.542V201.542Z" fill="white"/>
<path d="M227.579 184.631C226.28 184.391 225.006 184.037 223.77 183.572C222.501 183.22 221.263 182.76 220.072 182.197C221.367 182.442 222.639 182.796 223.874 183.256C225.145 183.611 226.384 184.071 227.579 184.631Z" fill="white"/>
<path d="M229.96 174.478C230.523 173.118 231.185 171.802 231.942 170.54C232.605 169.226 233.367 167.964 234.221 166.764C233.662 168.125 232.999 169.442 232.239 170.702C231.578 172.017 230.817 173.28 229.96 174.478V174.478Z" fill="white"/>
<path d="M238.552 156.527C236.692 156.315 234.847 155.991 233.026 155.559C231.182 155.239 229.358 154.808 227.566 154.268C229.425 154.476 231.27 154.797 233.091 155.23C234.935 155.553 236.759 155.987 238.552 156.527V156.527Z" fill="white"/>
<path d="M242.586 165.157C243.02 163.847 243.562 162.575 244.206 161.355C244.75 160.085 245.397 158.863 246.143 157.701C245.703 159.008 245.159 160.277 244.516 161.497C243.971 162.766 243.325 163.99 242.586 165.157Z" fill="white"/>
<path d="M251.448 180.235C250.123 179.208 248.866 178.096 247.685 176.905C246.433 175.792 245.255 174.597 244.161 173.329C245.486 174.354 246.741 175.467 247.918 176.659C249.173 177.771 250.353 178.966 251.448 180.235V180.235Z" fill="white"/>
<path d="M249.88 193.545C250.558 192.464 251.329 191.445 252.184 190.498C252.957 189.477 253.821 188.529 254.766 187.665C254.087 188.744 253.316 189.763 252.462 190.711C251.687 191.73 250.823 192.679 249.88 193.545V193.545Z" fill="white"/>
<path d="M237.558 221.785C238.147 220.128 238.841 218.511 239.636 216.944C240.331 215.329 241.126 213.759 242.018 212.245C241.429 213.901 240.735 215.518 239.94 217.086C239.245 218.7 238.45 220.27 237.558 221.785V221.785Z" fill="white"/>
<path d="M232.607 230.292C231.454 228.943 230.391 227.52 229.425 226.032C228.365 224.607 227.395 223.117 226.52 221.572C227.668 222.927 228.731 224.352 229.702 225.838C230.76 227.263 231.73 228.75 232.607 230.292Z" fill="white"/>
<path d="M220.046 236.14C219.593 237.395 219.034 238.608 218.374 239.768C217.815 240.979 217.156 242.143 216.406 243.247C216.858 241.99 217.417 240.774 218.077 239.613C218.641 238.405 219.299 237.244 220.046 236.14V236.14Z" fill="white"/>
<path d="M208.886 244.899C206.946 242.673 205.182 240.299 203.612 237.799C204.617 238.882 205.543 240.036 206.381 241.252C207.308 242.402 208.145 243.622 208.886 244.899V244.899Z" fill="white"/>
<path d="M185.364 243.673C184.524 242.798 183.764 241.849 183.092 240.839C182.332 239.89 181.662 238.873 181.091 237.799C181.931 238.677 182.691 239.627 183.363 240.639C184.123 241.586 184.793 242.602 185.364 243.673V243.673Z" fill="white"/>
<path d="M215.431 224.186C215.334 224.186 215.256 222.895 214.908 221.423C214.559 219.951 214.088 218.757 214.179 218.712C214.711 219.509 215.072 220.408 215.237 221.352C215.501 222.272 215.567 223.238 215.431 224.186V224.186Z" fill="white"/>
<path d="M214.191 233.113C213.968 232.179 213.968 231.206 214.191 230.273C214.415 231.206 214.415 232.179 214.191 233.113V233.113Z" fill="white"/>
<path d="M258.207 216.679C258.155 216.763 256.819 216.034 255.083 215.311C253.346 214.588 251.894 214.136 251.92 214.02C253.062 214.157 254.174 214.479 255.212 214.975C256.296 215.377 257.307 215.953 258.207 216.679V216.679Z" fill="white"/>
<path d="M264.494 203.492C263.56 203.715 262.587 203.715 261.653 203.492C262.587 203.268 263.56 203.268 264.494 203.492V203.492Z" fill="white"/>
<g opacity="0.3">
<path opacity="0.3" d="M219.543 154.758C217.174 158.631 216.69 163.369 217.296 167.842C217.903 172.315 219.517 176.575 221.124 180.79C224.825 190.516 228.525 200.241 232.226 209.966C233.298 212.8 234.414 215.691 236.39 217.989C237.47 219.151 238.816 220.031 240.313 220.555C241.81 221.08 243.412 221.231 244.981 220.997C242.334 218.454 238.526 214.885 238.365 214.471C237.616 212.115 238.203 208.017 237.874 205.583C237.371 201.827 234.95 197.967 233.324 194.546C229.451 186.37 225.563 178.206 221.66 170.056C220.311 167.216 218.936 163.95 220.124 161.019C220.633 159.774 221.595 158.689 221.802 157.36C222.008 156.03 220.808 154.384 219.568 154.913" fill="black"/>
</g>
<g opacity="0.3">
<path opacity="0.3" d="M172.752 227.658C177.451 226.038 179.297 220.526 181.266 215.962C186.55 203.716 191.839 191.473 197.132 179.235C198.229 176.653 199.346 174.071 199.533 171.308C199.72 168.546 198.797 165.538 196.538 163.93C189.354 173.012 182.189 182.23 177.109 192.635C173.533 199.955 174.224 206.306 176.302 213.464C177.522 217.666 172.752 221.739 172.752 222.333C172.752 224.915 172.752 226.309 172.752 227.658Z" fill="black"/>
</g>
<path d="M189.76 133.29C188.437 129.004 187.133 124.685 186.572 120.232C186.01 115.778 186.217 111.156 187.863 106.973C188.108 106.328 190.193 102.1 190.87 102.178C191.355 102.229 190.044 106.199 190.283 106.625C192.555 110.666 193.117 115.494 192.671 120.115C192.199 124.601 191.229 129.019 189.78 133.29" fill="#263238"/>
<path d="M214.533 158.528C214.617 155.359 214.688 152.861 214.714 152.861C214.74 152.861 225.597 151.931 226.475 141.171C226.901 135.975 226.901 125.196 226.791 115.449C226.732 110.397 224.773 105.552 221.305 101.878C217.837 98.2038 213.112 95.9697 208.072 95.6198L207.033 95.5488C195.782 95.4261 189.398 104.915 189.605 116.165L189.024 155.54L206.613 170.56L214.533 158.528Z" fill="#FFBE9D"/>
<path d="M214.792 152.867C209.818 152.51 205.051 150.733 201.056 147.748C201.056 147.748 203.935 155.817 214.747 155.591L214.792 152.867Z" fill="#EB996E"/>
<path d="M222.034 123.498C222.011 123.898 221.832 124.274 221.535 124.544C221.238 124.815 220.847 124.958 220.446 124.944C220.25 124.946 220.055 124.91 219.873 124.836C219.691 124.761 219.525 124.652 219.386 124.513C219.247 124.374 219.137 124.208 219.063 124.026C218.989 123.844 218.953 123.649 218.955 123.453C218.98 123.052 219.16 122.677 219.456 122.406C219.752 122.135 220.142 121.99 220.543 122C220.74 121.998 220.936 122.035 221.118 122.109C221.301 122.184 221.466 122.294 221.606 122.433C221.745 122.573 221.854 122.739 221.928 122.922C222.001 123.105 222.038 123.301 222.034 123.498V123.498Z" fill="#263238"/>
<path d="M224.151 119.799C223.951 119.986 222.86 119.044 221.188 118.934C219.516 118.824 218.264 119.58 218.096 119.347C218.013 119.257 218.232 118.908 218.787 118.56C219.538 118.114 220.408 117.909 221.279 117.972C222.14 118.028 222.961 118.358 223.622 118.915C224.151 119.308 224.28 119.683 224.151 119.799Z" fill="#263238"/>
<path d="M206.588 123.169C206.566 123.57 206.387 123.948 206.091 124.219C205.794 124.491 205.402 124.635 205 124.621C204.803 124.623 204.608 124.585 204.426 124.51C204.244 124.436 204.078 124.325 203.939 124.186C203.8 124.046 203.691 123.88 203.617 123.698C203.543 123.516 203.506 123.32 203.509 123.123C203.534 122.723 203.713 122.349 204.01 122.079C204.306 121.809 204.696 121.665 205.097 121.678C205.293 121.675 205.488 121.712 205.67 121.786C205.852 121.86 206.018 121.969 206.157 122.108C206.296 122.247 206.406 122.413 206.48 122.595C206.554 122.777 206.59 122.972 206.588 123.169Z" fill="#263238"/>
<path d="M207.924 119.315C207.717 119.502 206.633 118.56 204.955 118.45C203.277 118.34 202.031 119.095 201.869 118.869C201.785 118.773 202.005 118.424 202.56 118.076C203.31 117.628 204.181 117.425 205.052 117.495C205.912 117.551 206.732 117.879 207.395 118.431C207.872 118.857 208.014 119.231 207.924 119.315Z" fill="#263238"/>
<path d="M212.978 132.437C212.978 132.347 214.024 132.237 215.702 132.141C216.128 132.141 216.535 132.07 216.625 131.786C216.695 131.346 216.628 130.895 216.431 130.495C216.102 129.442 215.786 128.345 215.405 127.19C213.985 122.491 212.984 118.637 213.178 118.579C213.372 118.521 214.669 122.291 216.089 126.97L217.064 130.294C217.291 130.823 217.328 131.414 217.167 131.966C217.097 132.111 216.993 132.238 216.866 132.337C216.738 132.435 216.589 132.503 216.431 132.534C216.193 132.581 215.951 132.599 215.708 132.586C214.024 132.599 212.978 132.534 212.978 132.437Z" fill="#263238"/>
<path d="M211.726 139.047C211.461 139.086 211.293 137.298 209.641 136.162C207.988 135.026 206.097 135.4 206.065 135.155C206.026 135.045 206.459 134.768 207.259 134.671C208.309 134.562 209.364 134.825 210.241 135.413C211.091 135.986 211.682 136.869 211.887 137.872C212.01 138.582 211.848 139.047 211.726 139.047Z" fill="#263238"/>
<path d="M200.688 115.236C200.688 114.758 202.315 114.384 204.057 113.493C205.8 112.602 207.098 111.556 207.478 111.84C207.653 111.982 207.543 112.486 207.098 113.131C206.489 113.925 205.708 114.571 204.813 115.018C203.919 115.465 202.934 115.703 201.934 115.713C201.159 115.668 200.694 115.462 200.688 115.236Z" fill="#263238"/>
<path d="M217.574 112.053C218.013 111.769 219.284 112.479 220.917 112.886C222.55 113.292 224.009 113.363 224.235 113.822C224.332 114.041 224.022 114.357 223.331 114.558C222.388 114.789 221.4 114.771 220.465 114.506C219.527 114.276 218.666 113.804 217.967 113.137C217.477 112.602 217.38 112.176 217.574 112.053Z" fill="#263238"/>
<path d="M189.941 124.201C189.767 124.111 182.692 121.503 182.421 128.881C182.15 136.259 189.612 135.013 189.631 134.8C189.65 134.587 189.941 124.201 189.941 124.201Z" fill="#FFBE9D"/>
<path d="M187.45 131.921C187.45 131.921 187.32 132.012 187.094 132.102C186.786 132.226 186.441 132.226 186.133 132.102C185.365 131.786 184.758 130.527 184.771 129.197C184.774 128.564 184.92 127.94 185.197 127.371C185.274 127.141 185.406 126.935 185.582 126.768C185.757 126.602 185.971 126.48 186.204 126.415C186.353 126.381 186.509 126.4 186.645 126.47C186.781 126.539 186.887 126.655 186.946 126.796C187.036 127.009 186.985 127.151 187.023 127.171C187.062 127.19 187.185 127.048 187.14 126.745C187.107 126.561 187.011 126.394 186.869 126.273C186.771 126.192 186.657 126.13 186.535 126.093C186.414 126.055 186.286 126.042 186.159 126.054C185.854 126.103 185.567 126.23 185.325 126.423C185.083 126.615 184.895 126.865 184.777 127.151C184.438 127.778 184.259 128.478 184.254 129.191C184.254 130.682 184.958 132.096 186.01 132.418C186.206 132.483 186.413 132.503 186.617 132.477C186.822 132.451 187.018 132.381 187.191 132.27C187.43 132.102 187.475 131.941 187.45 131.921Z" fill="#EB996E"/>
<path d="M222.357 103.094C223.57 102.449 220.097 98.4983 217.193 97.0848C212.817 94.9482 206.071 93.5153 201.953 94.5609C196.989 95.8196 192.826 98.1498 190.225 102.565C187.623 106.98 186.552 112.176 186.552 117.295C186.552 118.857 186.668 120.49 187.462 121.813C188.45 123.472 190.399 124.556 190.244 126.803C190.17 127.625 190.422 128.444 190.948 129.081C192.239 130.553 193.949 129.249 194.75 127.919C196.454 125.073 196.731 121.632 196.964 118.321C197.131 115.971 197.299 113.57 196.699 111.292C196.37 110.046 195.821 108.871 195.563 107.613C195.399 106.991 195.372 106.341 195.484 105.709C195.595 105.076 195.842 104.474 196.208 103.946C196.404 103.728 196.62 103.529 196.854 103.352C197.909 102.485 199.176 101.914 200.524 101.697C201.873 101.481 203.255 101.626 204.529 102.119C208.647 103.701 215.682 106.102 217.574 104.74C220.298 102.804 220.975 101.513 220.975 101.513L222.357 103.094Z" fill="#263238"/>
<path d="M213.178 95.3035C213.654 95.5912 214.076 95.9605 214.424 96.3943C215.371 97.3596 216.141 98.485 216.696 99.7185C217.257 100.978 217.412 102.381 217.141 103.733C217.07 104.302 216.816 104.832 216.418 105.244C216.341 105.205 216.651 104.65 216.786 103.669C216.932 102.391 216.738 101.098 216.225 99.9186C215.679 98.7403 214.983 97.6381 214.153 96.6396C213.507 95.8457 213.107 95.3551 213.178 95.3035Z" fill="#455A64"/>
<path d="M218.187 98.9822C218.245 98.9822 218.465 99.3114 218.613 99.9569C218.795 100.805 218.777 101.683 218.562 102.523C218.347 103.363 217.94 104.142 217.374 104.798C216.928 105.295 216.567 105.495 216.528 105.443C216.489 105.392 217.606 104.236 218.058 102.39C218.51 100.544 218.039 99.0209 218.187 98.9822Z" fill="#455A64"/>
<path d="M208.092 125.35C207.816 125.592 207.493 125.772 207.143 125.88C205.477 126.519 203.631 126.5 201.979 125.828C201.63 125.717 201.31 125.53 201.043 125.279C202.171 125.696 203.354 125.941 204.554 126.009C205.759 125.962 206.951 125.741 208.092 125.35V125.35Z" fill="#EB996E"/>
<path d="M205.988 127.325C205.988 127.364 205.749 127.525 205.284 127.661C204.666 127.833 204.018 127.866 203.386 127.758C202.756 127.654 202.155 127.416 201.624 127.061C201.224 126.783 201.037 126.544 201.063 126.512C201.809 126.927 202.611 127.234 203.444 127.422C204.292 127.509 205.149 127.477 205.988 127.325V127.325Z" fill="#EB996E"/>
<path d="M225.106 124.389C225.106 124.389 224.919 124.808 224.371 125.292C223.641 125.922 222.741 126.32 221.784 126.435C220.827 126.55 219.858 126.377 219 125.938C218.635 125.787 218.315 125.545 218.071 125.234C218.103 125.189 218.458 125.454 219.103 125.725C219.938 126.075 220.851 126.2 221.749 126.087C222.648 125.974 223.5 125.626 224.222 125.079C224.797 124.699 225.061 124.35 225.106 124.389Z" fill="#EB996E"/>
<path d="M222.905 177.053C223.138 177.402 235.634 208.559 241.818 213.684C247.659 208.301 257.819 199.593 248.356 190.931L230.683 165.415L222.905 177.053Z" fill="#FFBE9D"/>
<path d="M222.963 177.324C223.241 177.653 220.446 170.869 219.736 168.023C219.316 166.338 217.754 163.091 218.69 160.761C219.371 159.124 220.149 157.529 221.021 155.984L217.148 152.725C217.148 152.725 208.989 150.859 208.408 149.497C207.827 148.135 208.408 147.4 208.408 147.4L215.166 148.329C215.166 148.329 205.729 142.855 208.64 139.241C208.64 139.241 213.159 142.759 216.457 143.411L221.569 146.199C221.569 146.199 222.499 145.773 222.266 142.726C222.034 139.68 221.569 138.744 221.569 138.744C221.569 138.744 217.051 132.805 217.838 130.12L218.774 128.261L224.132 134.2L225.532 136.994C225.532 136.994 224.945 127.906 228.327 127.441L229.489 137.93L228.327 145.328C228.837 146.828 229.225 148.367 229.489 149.93C229.722 151.795 230.658 165.189 230.658 165.189L232.865 168.416" fill="#FFBE9D"/>
<path d="M232.878 168.384C232.823 168.32 232.771 168.253 232.723 168.184L232.291 167.584C231.91 167.035 231.348 166.248 230.625 165.221C230.464 163.227 230.245 160.509 229.98 157.146C229.851 155.468 229.702 153.622 229.547 151.634C229.43 149.501 228.995 147.397 228.257 145.392V145.334C228.618 143.03 229.005 140.545 229.412 137.937V137.969C229.044 134.742 228.644 131.192 228.231 127.487L228.399 127.616C228.005 127.711 227.642 127.903 227.342 128.175C227.042 128.446 226.815 128.789 226.682 129.171C226.336 129.962 226.099 130.796 225.978 131.65C225.719 133.425 225.639 135.222 225.739 137.014L225.778 137.763L225.442 137.117C225.003 136.252 224.526 135.29 224.042 134.322V134.361L218.684 128.422L218.955 128.384C218.658 128.965 218.342 129.604 218.019 130.249C217.871 130.984 217.935 131.745 218.206 132.444C218.448 133.192 218.755 133.918 219.123 134.613C219.874 136.047 220.737 137.42 221.705 138.718V138.718C222.018 139.617 222.218 140.551 222.299 141.5C222.409 142.326 222.46 143.158 222.454 143.991C222.447 144.413 222.395 144.833 222.299 145.244C222.249 145.455 222.178 145.66 222.086 145.857C221.99 146.081 221.831 146.271 221.627 146.406L221.556 146.444L221.473 146.399L216.406 143.527H216.451C214.974 143.155 213.562 142.563 212.262 141.771C210.98 141.033 209.746 140.214 208.569 139.318H208.795C208.474 139.703 208.289 140.185 208.273 140.687C208.281 141.191 208.403 141.687 208.628 142.139C209.107 143.043 209.733 143.861 210.48 144.559C211.938 145.938 213.544 147.15 215.27 148.174L215.915 148.555L215.179 148.458L208.421 147.516L208.557 147.464C208.44 147.669 208.366 147.895 208.337 148.128C208.308 148.362 208.326 148.599 208.389 148.826C208.436 149.051 208.515 149.268 208.621 149.472C208.765 149.654 208.942 149.808 209.144 149.923C209.995 150.397 210.893 150.782 211.823 151.072C213.656 151.718 215.463 152.17 217.206 152.589H217.238L221.072 155.855L221.15 155.92L221.098 156.01C220.279 157.457 219.54 158.949 218.884 160.477C218.239 161.91 218.503 163.459 218.833 164.782C219.162 166.106 219.672 167.332 219.943 168.494C220.214 169.656 220.633 170.663 220.956 171.586C221.602 173.419 222.144 174.845 222.505 175.826C222.68 176.311 222.815 176.678 222.893 176.93C222.928 177.023 222.956 177.118 222.977 177.214C222.982 177.242 222.982 177.27 222.977 177.298C222.977 177.298 222.977 177.298 222.977 177.298C222.844 176.804 222.669 176.323 222.454 175.859C222.079 174.897 221.524 173.483 220.846 171.644C220.511 170.727 220.143 169.707 219.801 168.552C219.459 167.396 219.026 166.196 218.665 164.84C218.468 164.141 218.344 163.423 218.297 162.697C218.247 161.912 218.386 161.126 218.703 160.406C219.352 158.859 220.089 157.35 220.911 155.888V156.036L217.038 152.809H217.096C215.334 152.396 213.527 151.924 211.674 151.311C210.722 151.014 209.803 150.62 208.931 150.136C208.693 150.003 208.486 149.82 208.324 149.601C208.194 149.362 208.101 149.105 208.047 148.839C207.972 148.57 207.954 148.288 207.993 148.012C208.032 147.735 208.127 147.47 208.273 147.232L208.311 147.167H208.402L215.16 148.097L215.063 148.381C213.315 147.347 211.687 146.121 210.209 144.727C209.426 144.006 208.771 143.157 208.273 142.216C208.02 141.723 207.887 141.177 207.885 140.622C207.903 140.048 208.112 139.496 208.479 139.054L208.576 138.937L208.705 139.028C209.87 139.914 211.09 140.725 212.358 141.455C213.63 142.225 215.009 142.801 216.451 143.165V143.165L221.563 145.98H221.414C221.545 145.878 221.647 145.745 221.711 145.592C221.796 145.419 221.861 145.237 221.905 145.05C221.992 144.66 222.04 144.262 222.047 143.862C222.053 143.046 222.001 142.231 221.892 141.422C221.811 140.515 221.625 139.621 221.337 138.757C220.352 137.443 219.473 136.053 218.71 134.6C218.334 133.888 218.018 133.145 217.768 132.379C217.479 131.615 217.416 130.784 217.587 129.985V129.985L218.523 128.119L218.632 127.906L218.794 128.087L224.145 134.025L225.539 136.82L225.242 136.904C225.14 135.089 225.225 133.267 225.494 131.469C225.62 130.58 225.865 129.711 226.223 128.887C226.405 128.474 226.661 128.098 226.978 127.777C227.301 127.447 227.723 127.231 228.179 127.164H228.328V127.319C228.734 131.024 229.121 134.555 229.476 137.801V137.84C229.057 140.422 228.663 142.933 228.295 145.237V145.179C228.657 146.268 228.958 147.344 229.199 148.407C229.319 148.924 229.41 149.447 229.47 149.975C229.509 150.491 229.541 151.001 229.58 151.498C229.728 153.493 229.864 155.339 229.986 157.024C230.225 160.387 230.425 163.11 230.567 165.105L232.194 167.493L232.607 168.139C232.704 168.213 232.795 168.295 232.878 168.384Z" fill="#EB996E"/>
<path d="M224.797 159.212C223.98 158.953 223.223 158.534 222.57 157.979C221.839 157.504 221.284 156.804 220.988 155.985C221.547 156.598 222.145 157.176 222.776 157.715C223.484 158.166 224.159 158.667 224.797 159.212V159.212Z" fill="#EB996E"/>
<path d="M221.95 167.429C221.769 166.99 221.654 166.527 221.608 166.054C221.24 163.785 221.492 161.459 222.337 159.322C222.483 158.86 222.701 158.424 222.983 158.031C223.099 158.069 222.163 160.038 221.873 162.652C221.582 165.267 222.073 167.416 221.95 167.429Z" fill="#EB996E"/>
<path d="M226.159 152.48C225.623 152.256 225.107 151.988 224.616 151.679C223.395 151.012 222.137 150.418 220.846 149.898C219.557 149.377 218.227 148.965 216.87 148.665C216.298 148.571 215.732 148.448 215.173 148.297C215.757 148.259 216.343 148.303 216.915 148.426C218.304 148.664 219.663 149.051 220.969 149.581C222.273 150.107 223.532 150.74 224.732 151.473C225.244 151.754 225.722 152.092 226.159 152.48V152.48Z" fill="#EB996E"/>
<path d="M228.224 149.097C227.852 149.089 227.484 149.021 227.133 148.897C226.269 148.673 225.421 148.388 224.597 148.045C223.412 147.601 222.318 146.945 221.369 146.109C221.427 146.018 222.835 146.961 224.726 147.761C226.617 148.562 228.257 148.988 228.224 149.097Z" fill="#EB996E"/>
<path d="M228.341 145.328C228.055 144.986 227.837 144.594 227.695 144.172C227.288 143.19 226.934 142.186 226.636 141.164C226.281 139.977 225.991 138.892 225.778 138.105C225.631 137.686 225.527 137.254 225.468 136.814C225.711 137.185 225.892 137.592 226.004 138.021C226.275 138.789 226.604 139.867 226.959 141.055C227.314 142.242 227.643 143.314 227.921 144.076C228.087 144.484 228.227 144.902 228.341 145.328V145.328Z" fill="#EB996E"/>
<path d="M193.278 174.781C194.361 174.222 195.293 173.408 195.992 172.41C196.692 171.412 197.138 170.258 197.293 169.049C197.771 164.944 198.151 159.974 198.151 159.974C198.64 159.15 199.057 158.287 199.397 157.392C199.584 156.624 210.144 150.705 210.144 150.705C210.144 150.705 210.519 149.097 207.421 149.272C204.322 149.446 198.532 152.234 198.532 152.234L200.256 147.071C202.07 145.305 203.676 143.339 205.045 141.21C205.42 140.557 205.549 139.793 205.411 139.053C205.272 138.314 204.875 137.648 204.29 137.175L204.006 136.949C204.006 136.949 204.006 135.129 203.025 134.748C203.025 134.748 194.905 139.338 194.634 139.912C194.363 140.487 198.455 133.703 193.291 132.27L190.238 140.487L189.012 143.443C189.012 143.443 188.495 148.678 188.301 150.395C188.108 152.112 187.275 164.563 186.126 166.377" fill="#FFBE9D"/>
<path d="M186.113 166.377L186.268 165.99C186.403 165.611 186.508 165.223 186.584 164.828C186.81 163.789 187.043 162.246 187.269 160.239C187.495 158.231 187.727 155.804 187.959 152.977C188.192 150.15 188.534 146.948 188.869 143.43V143.392L189.928 140.81C190.29 139.925 190.574 139.002 190.961 138.066L193.13 132.206L193.181 132.076L193.317 132.115C194.065 132.297 194.741 132.702 195.253 133.277C195.756 133.903 196.03 134.682 196.028 135.485C196.033 136.278 195.911 137.067 195.666 137.821C195.551 138.203 195.413 138.578 195.253 138.944C195.176 139.131 195.092 139.312 195.002 139.493L194.866 139.764L194.788 139.9L194.75 139.971V140.009C194.543 140.138 194.395 139.661 194.479 139.848V139.816C194.616 139.631 194.784 139.471 194.976 139.344L195.479 139.002C195.815 138.774 196.157 138.559 196.505 138.357C197.196 137.931 197.9 137.505 198.61 137.066C200.03 136.205 201.48 135.366 202.96 134.549L203.031 134.503L203.109 134.536C203.314 134.639 203.496 134.784 203.641 134.962C203.787 135.14 203.894 135.347 203.954 135.568C204.099 135.984 204.18 136.419 204.193 136.859L204.135 136.73C204.551 137.029 204.904 137.406 205.174 137.841C205.45 138.301 205.612 138.821 205.645 139.357C205.672 139.78 205.615 140.203 205.478 140.603C205.335 140.99 205.146 141.358 204.916 141.7C204.485 142.369 204.019 143.016 203.522 143.637C202.546 144.854 201.501 146.014 200.391 147.11L200.43 147.039C199.849 148.79 199.275 150.511 198.707 152.202L198.481 152.002C200.492 151.04 202.572 150.227 204.703 149.569C205.732 149.244 206.8 149.059 207.879 149.02C208.421 149.004 208.961 149.096 209.467 149.291C209.726 149.403 209.949 149.584 210.112 149.814C210.197 149.935 210.257 150.071 210.289 150.215C210.321 150.359 210.325 150.508 210.299 150.653V150.711L210.235 150.75C207.685 152.183 205.278 153.571 203.057 154.913C201.953 155.598 200.869 156.25 199.92 156.966C199.805 157.052 199.697 157.147 199.597 157.25C199.546 157.321 199.546 157.295 199.513 157.399C199.481 157.502 199.468 157.547 199.442 157.618C199.336 157.895 199.216 158.167 199.081 158.431C198.823 158.961 198.552 159.458 198.274 159.942V159.897C198.022 162.433 197.796 164.725 197.629 166.732C197.577 167.236 197.532 167.72 197.48 168.184C197.45 168.635 197.391 169.083 197.306 169.527C197.153 170.305 196.874 171.053 196.48 171.741C195.927 172.682 195.181 173.496 194.291 174.129C194.062 174.292 193.822 174.441 193.575 174.575C193.491 174.623 193.402 174.661 193.31 174.691C193.31 174.691 193.394 174.646 193.556 174.542C193.797 174.399 194.029 174.241 194.253 174.071C195.117 173.429 195.838 172.613 196.37 171.676C196.747 170.996 197.013 170.259 197.157 169.495C197.233 169.055 197.287 168.611 197.319 168.165C197.358 167.7 197.403 167.216 197.448 166.713C197.629 164.705 197.835 162.414 198.093 159.877C198.364 159.399 198.636 158.896 198.887 158.38C199.01 158.121 199.133 157.857 199.229 157.586C199.229 157.515 199.281 157.45 199.3 157.379C199.322 157.29 199.367 157.208 199.429 157.14C199.54 157.026 199.659 156.921 199.785 156.824C200.759 156.075 201.831 155.43 202.934 154.739C205.155 153.377 207.563 151.989 210.112 150.544L210.041 150.64C210.061 150.418 210.005 150.195 209.882 150.009C209.758 149.822 209.576 149.683 209.363 149.614C208.895 149.443 208.397 149.364 207.898 149.382C206.85 149.421 205.812 149.603 204.813 149.924C202.699 150.577 200.636 151.387 198.642 152.344L198.3 152.506L198.416 152.151L200.133 146.987V146.948H200.165C201.264 145.863 202.299 144.714 203.264 143.508C203.758 142.889 204.217 142.242 204.639 141.571C204.855 141.254 205.033 140.911 205.168 140.552C205.285 140.189 205.335 139.809 205.316 139.428C205.286 138.945 205.14 138.475 204.89 138.06C204.637 137.664 204.311 137.32 203.928 137.047L203.87 137.001V136.918C203.857 136.504 203.783 136.096 203.651 135.704C203.606 135.529 203.525 135.364 203.414 135.221C203.303 135.078 203.164 134.959 203.005 134.871H203.154C201.678 135.702 200.228 136.539 198.803 137.382C198.093 137.802 197.39 138.221 196.699 138.673C196.357 138.886 196.015 139.106 195.686 139.319L195.189 139.654C195.048 139.752 194.918 139.865 194.801 139.99C194.801 139.99 194.763 139.958 194.705 139.945C194.694 139.949 194.683 139.951 194.672 139.951C194.661 139.951 194.65 139.949 194.64 139.945L194.575 139.887C194.511 139.835 194.524 139.887 194.524 139.887L194.563 139.822L194.634 139.7L194.763 139.435C194.853 139.261 194.931 139.08 195.008 138.906C195.163 138.547 195.298 138.181 195.415 137.808C195.65 137.087 195.768 136.333 195.763 135.575C195.766 134.844 195.52 134.134 195.066 133.561C194.587 133.031 193.959 132.658 193.265 132.49L193.452 132.399C192.691 134.417 191.961 136.369 191.264 138.254C190.903 139.183 190.58 140.113 190.219 140.99L189.147 143.572V143.534C188.792 147.058 188.411 150.253 188.185 153.074C187.959 155.895 187.688 158.341 187.43 160.335C187.257 161.875 187.005 163.405 186.675 164.918C186.588 165.317 186.47 165.707 186.32 166.087C186.184 166.274 186.113 166.377 186.113 166.377Z" fill="#EB996E"/>
<path d="M199.029 152.009C198.595 152.388 198.091 152.68 197.545 152.867C197.045 153.151 196.495 153.338 195.925 153.416C196.359 153.036 196.863 152.744 197.409 152.557C197.909 152.273 198.459 152.087 199.029 152.009Z" fill="#EB996E"/>
<path d="M203.993 136.827C203.937 137.039 203.85 137.241 203.735 137.427C203.453 137.952 203.129 138.452 202.766 138.925C201.536 140.451 200.175 141.867 198.7 143.159C197.265 144.461 196.116 146.045 195.324 147.813C194.717 149.175 194.491 150.078 194.433 150.059C194.44 149.839 194.48 149.622 194.55 149.414C194.692 148.835 194.877 148.267 195.105 147.716C195.848 145.88 196.998 144.235 198.468 142.907C199.929 141.624 201.302 140.243 202.579 138.776C203.496 137.627 203.941 136.795 203.993 136.827Z" fill="#EB996E"/>
<path d="M194.75 139.77C194.556 140.234 194.297 140.669 193.982 141.061C193.685 141.488 193.413 141.932 193.169 142.391C192.884 142.969 192.668 143.577 192.523 144.205C192.052 145.496 191.839 146.741 191.594 147.632C191.502 148.12 191.33 148.589 191.084 149.02C191.149 148.533 191.242 148.05 191.361 147.574C191.556 146.4 191.836 145.241 192.2 144.108C192.348 143.459 192.58 142.831 192.891 142.242C193.149 141.77 193.447 141.321 193.782 140.9C194.073 140.497 194.396 140.119 194.75 139.77V139.77Z" fill="#EB996E"/>
<path d="M158.358 199.735C158.674 199.258 167.485 190.699 170.021 187.884C172.558 185.07 185.326 168.83 186.113 166.377C186.901 163.924 194.156 173.374 194.156 173.374C194.156 173.374 185.345 194.449 181.892 200.452C178.438 206.455 172.778 217.621 172.778 217.621C172.778 217.621 163.438 218.409 159.803 210.825C156.169 203.24 158.358 199.735 158.358 199.735Z" fill="#FFBE9D"/>
<path d="M193.246 309.273L205.116 338.319L169.079 353.275C167.866 349.744 183.641 335.098 183.641 335.098L175.25 316.812L193.246 309.273Z" fill="#C6E1F6"/>
<g opacity="0.6">
<path opacity="0.6" d="M194.13 328.889C194.521 328.849 194.913 328.955 195.231 329.188C195.548 329.421 195.767 329.762 195.847 330.148C195.898 330.535 195.799 330.928 195.57 331.245C195.34 331.562 194.998 331.779 194.614 331.852C194.201 331.893 193.786 331.78 193.452 331.533C193.118 331.286 192.888 330.923 192.807 330.516C192.761 329.735 193.504 328.799 194.285 328.876" fill="white"/>
</g>
<g opacity="0.6">
<path opacity="0.6" d="M205.116 338.294L203.825 335.415L169.763 350.829C169.763 350.829 168.472 352.191 169.118 353.249L205.116 338.294Z" fill="white"/>
</g>
<path d="M182.976 335.131C183.06 335.305 183.97 335.021 185.068 335.227C186.165 335.434 186.939 335.983 187.075 335.841C187.211 335.699 186.52 334.801 185.184 334.55C183.848 334.298 182.873 334.989 182.976 335.131Z" fill="#263238"/>
<path d="M179.846 338.261C179.846 338.448 180.762 338.435 181.673 338.907C182.583 339.378 183.073 340.12 183.247 340.043C183.422 339.965 183.118 338.92 181.957 338.326C180.795 337.732 179.781 338.093 179.846 338.261Z" fill="#263238"/>
<path d="M179.574 343.677C179.755 343.677 179.632 342.67 178.78 341.889C177.928 341.108 176.947 341.076 176.934 341.244C176.921 341.411 177.644 341.728 178.335 342.373C179.026 343.019 179.394 343.735 179.574 343.677Z" fill="#263238"/>
<path d="M181.55 330.754C181.692 330.883 182.402 330.302 183.422 329.96C184.442 329.618 185.358 329.605 185.358 329.418C185.358 329.231 184.383 328.908 183.183 329.334C181.982 329.76 181.388 330.651 181.55 330.754Z" fill="#263238"/>
<path d="M180.62 326.12C180.62 326.197 181.388 326.016 182.421 325.364C183.021 324.974 183.573 324.515 184.067 323.996C184.357 323.689 184.627 323.364 184.874 323.021C185.027 322.825 185.151 322.608 185.242 322.376C185.308 322.203 185.313 322.013 185.257 321.837C185.2 321.661 185.086 321.51 184.932 321.408C184.793 321.321 184.637 321.268 184.474 321.254C184.311 321.239 184.148 321.263 183.996 321.324C183.764 321.418 183.547 321.544 183.35 321.698C183.005 321.953 182.684 322.238 182.389 322.55C181.896 323.077 181.488 323.678 181.182 324.332C180.665 325.455 180.652 326.229 180.723 326.236C180.794 326.242 181.007 325.545 181.595 324.551C181.935 323.975 182.35 323.445 182.828 322.976C183.107 322.702 183.41 322.451 183.731 322.227C184.073 321.969 184.377 321.827 184.564 321.956C184.622 322.008 184.641 322.034 184.609 322.176C184.539 322.346 184.448 322.506 184.338 322.653C183.731 323.538 182.99 324.324 182.143 324.984C181.233 325.707 180.575 326.029 180.62 326.12Z" fill="#263238"/>
<path d="M180.949 326.281C181.027 326.281 181.111 325.506 180.704 324.345C180.45 323.665 180.081 323.034 179.613 322.479C179.337 322.147 179.03 321.843 178.697 321.569C178.5 321.373 178.256 321.23 177.988 321.154C177.72 321.078 177.438 321.072 177.167 321.137C177.007 321.207 176.872 321.322 176.776 321.467C176.679 321.612 176.627 321.782 176.625 321.956C176.619 322.205 176.65 322.453 176.715 322.692C176.815 323.122 176.985 323.532 177.218 323.906C177.595 324.543 178.125 325.076 178.761 325.455C179.852 326.1 180.698 326.004 180.665 325.932C180.098 325.679 179.548 325.388 179.019 325.061C178.486 324.677 178.044 324.179 177.728 323.602C177.545 323.273 177.411 322.918 177.328 322.55C177.225 322.144 177.238 321.776 177.399 321.75C177.561 321.724 178 321.84 178.277 322.079C179.107 322.732 179.771 323.573 180.213 324.532C180.756 325.552 180.846 326.294 180.949 326.281Z" fill="#263238"/>
<path d="M252.12 310.816L251.132 342.154L290.119 343.587C290.028 339.849 270.109 331.632 270.109 331.632L271.568 311.577L252.12 310.816Z" fill="#C6E1F6"/>
<g opacity="0.6">
<path opacity="0.6" d="M258.136 329.502C257.756 329.604 257.428 329.842 257.212 330.17C256.997 330.499 256.91 330.895 256.967 331.284C257.054 331.665 257.284 331.999 257.609 332.216C257.935 332.433 258.331 332.518 258.717 332.452C259.119 332.346 259.467 332.095 259.694 331.746C259.921 331.398 260.01 330.977 259.943 330.567C259.711 329.818 258.691 329.205 258.007 329.547" fill="white"/>
</g>
<g opacity="0.6">
<path opacity="0.6" d="M251.132 342.153L251.351 339.003L288.647 341.553C288.647 341.553 290.358 342.366 290.119 343.586L251.132 342.153Z" fill="white"/>
</g>
<path d="M270.768 331.458C270.768 331.651 269.8 331.703 268.831 332.278C267.863 332.852 267.34 333.639 267.166 333.568C266.992 333.497 267.321 332.4 268.496 331.722C269.671 331.045 270.82 331.29 270.768 331.458Z" fill="#263238"/>
<path d="M274.795 333.304C274.834 333.485 273.995 333.782 273.324 334.595C272.652 335.408 272.427 336.221 272.239 336.209C272.052 336.196 271.968 335.111 272.827 334.156C273.685 333.201 274.802 333.117 274.795 333.304Z" fill="#263238"/>
<path d="M276.938 338.281C276.764 338.281 276.532 337.351 277.061 336.344C277.59 335.337 278.494 334.937 278.571 335.098C278.649 335.26 278.074 335.795 277.655 336.641C277.235 337.487 277.132 338.268 276.938 338.281Z" fill="#263238"/>
<path d="M270.626 326.856C270.542 327.024 269.677 326.727 268.599 326.765C267.521 326.804 266.662 327.107 266.572 326.94C266.482 326.772 267.314 326.12 268.586 326.101C269.858 326.081 270.69 326.707 270.626 326.856Z" fill="#263238"/>
<path d="M269.832 322.195C269.832 322.273 269.077 322.363 267.895 322.112C266.781 321.866 265.724 321.413 264.778 320.775C264.563 320.644 264.369 320.481 264.203 320.291C264.08 320.148 264.009 319.967 264.003 319.777C263.997 319.588 264.056 319.403 264.171 319.252C264.27 319.121 264.4 319.016 264.548 318.946C264.696 318.875 264.859 318.841 265.023 318.845C265.271 318.853 265.517 318.897 265.752 318.975C266.165 319.092 266.567 319.245 266.953 319.433C267.599 319.757 268.191 320.18 268.709 320.685C269.58 321.55 269.864 322.273 269.799 322.312C269.735 322.35 269.29 321.757 268.392 321.021C267.873 320.599 267.3 320.247 266.688 319.975C266.33 319.815 265.958 319.686 265.578 319.588C265.171 319.465 264.823 319.446 264.707 319.626C264.668 319.697 264.661 319.723 264.745 319.846C264.867 319.984 265.008 320.104 265.165 320.201C265.488 320.436 265.824 320.651 266.172 320.846C266.769 321.166 267.393 321.432 268.037 321.64C269.109 322.008 269.845 322.092 269.832 322.195Z" fill="#263238"/>
<path d="M269.574 322.479C269.509 322.512 269.154 321.834 269.128 320.575C269.124 319.853 269.242 319.135 269.477 318.452C269.617 318.045 269.799 317.653 270.019 317.283C270.133 317.027 270.313 316.805 270.539 316.64C270.766 316.475 271.031 316.372 271.31 316.341C271.483 316.351 271.65 316.41 271.791 316.512C271.932 316.614 272.04 316.754 272.104 316.915C272.199 317.146 272.258 317.39 272.278 317.638C272.329 318.068 272.314 318.504 272.233 318.929C272.099 319.657 271.786 320.34 271.323 320.917C270.529 321.898 269.722 322.098 269.709 322.034C269.696 321.969 270.355 321.589 270.949 320.64C271.305 320.092 271.539 319.473 271.633 318.826C271.684 318.451 271.684 318.071 271.633 317.696C271.581 317.283 271.439 316.941 271.284 316.98C271.129 317.019 270.748 317.27 270.581 317.593C270.376 317.923 270.201 318.271 270.058 318.632C269.815 319.253 269.663 319.905 269.606 320.569C269.503 321.711 269.683 322.434 269.574 322.479Z" fill="#263238"/>
<path d="M175.663 211.915C175.663 211.915 175.721 211.973 175.799 212.109C175.923 212.302 176.031 212.505 176.121 212.716C176.463 213.496 176.624 214.343 176.593 215.194C176.518 216.454 176.161 217.681 175.547 218.783C174.81 220.125 173.903 221.366 172.849 222.475C170.983 224.527 168.805 226.27 166.394 227.639C165.663 228.046 164.911 228.414 164.141 228.743C163.864 228.875 163.574 228.979 163.276 229.053C163.532 228.886 163.802 228.741 164.083 228.62C164.613 228.362 165.374 227.975 166.271 227.433C168.62 226.015 170.747 224.26 172.584 222.224C173.622 221.138 174.522 219.928 175.263 218.622C175.87 217.561 176.238 216.38 176.341 215.162C176.388 214.342 176.268 213.52 175.986 212.748C175.792 212.219 175.637 211.928 175.663 211.915Z" fill="#263238"/>
<path d="M175.095 216.873C175.013 216.936 174.921 216.986 174.824 217.021C174.566 217.154 174.298 217.269 174.023 217.363C173.007 217.724 171.939 217.916 170.86 217.931C169.074 217.959 167.304 217.596 165.673 216.868C164.042 216.14 162.589 215.064 161.417 213.716C160.768 212.94 160.174 212.118 159.642 211.257C159.16 210.446 158.743 209.598 158.396 208.72C157.811 207.23 157.492 205.648 157.454 204.047C157.439 202.971 157.583 201.899 157.88 200.865C157.958 200.584 158.053 200.308 158.164 200.039C158.235 199.851 158.28 199.755 158.293 199.761C158.306 199.767 158.183 200.168 158.009 200.897C157.763 201.926 157.656 202.983 157.693 204.041C157.763 205.609 158.099 207.154 158.687 208.611C159.033 209.466 159.448 210.293 159.926 211.083C160.451 211.928 161.035 212.735 161.675 213.497C162.923 214.952 164.504 216.084 166.284 216.795C167.735 217.387 169.287 217.692 170.854 217.692C171.912 217.697 172.965 217.545 173.978 217.241C174.714 217.015 175.095 216.847 175.095 216.873Z" fill="#263238"/>
<path d="M246.614 222.301C246.41 222.2 246.222 222.072 246.052 221.92C245.704 221.656 245.207 221.275 244.593 220.771C243.38 219.777 241.663 218.467 239.933 216.795C239.515 216.39 239.122 215.959 238.758 215.504C238.413 215.061 238.163 214.551 238.022 214.007C237.8 213.103 237.698 212.174 237.719 211.244C237.722 210.622 237.767 210.001 237.855 209.385C237.877 209.164 237.929 208.947 238.01 208.74C238.061 208.74 237.913 209.708 237.958 211.263C237.968 212.168 238.089 213.067 238.319 213.942C238.552 214.93 239.346 215.756 240.172 216.601C241.876 218.247 243.58 219.596 244.742 220.629C245.336 221.146 245.807 221.565 246.136 221.862C246.314 221.987 246.474 222.134 246.614 222.301V222.301Z" fill="#263238"/>
<path d="M252.243 194.468C252.323 194.765 252.371 195.071 252.385 195.378C252.452 196.216 252.452 197.058 252.385 197.896C252.199 200.686 251.237 203.368 249.609 205.641C247.608 208.178 245.736 210.476 244.155 211.877C243.539 212.438 242.893 212.963 242.218 213.452C241.978 213.645 241.716 213.81 241.437 213.942C241.654 213.724 241.889 213.525 242.141 213.348C242.599 212.974 243.258 212.425 244.019 211.703C245.947 209.743 247.733 207.648 249.364 205.435C250.951 203.218 251.917 200.617 252.165 197.902C252.252 196.76 252.278 195.613 252.243 194.468V194.468Z" fill="#263238"/>
<path d="M257.2 200.155C257.376 199.393 257.461 198.613 257.451 197.831C257.404 196.989 257.219 196.16 256.903 195.378C256.515 194.421 255.93 193.557 255.186 192.841C253.772 191.59 252.033 190.764 250.17 190.46C249.389 190.386 248.602 190.386 247.821 190.46C248.026 190.369 248.244 190.311 248.466 190.285C249.046 190.182 249.637 190.16 250.222 190.221C252.163 190.467 253.983 191.295 255.444 192.596C256.863 193.969 257.68 195.85 257.716 197.824C257.719 198.412 257.639 198.996 257.477 199.561C257.419 199.773 257.325 199.974 257.2 200.155Z" fill="#263238"/>
<path d="M184.732 240.342C184.732 240.342 170.247 227.497 163.896 227.607C157.544 227.717 136.689 226.316 145.435 255.214C154.252 284.338 170.028 328.87 170.46 327.275L197.622 315.334L186.584 273.907C186.584 273.907 223.609 274.327 230.755 273.384C237.9 272.442 251.281 263.057 251.281 263.057L249.157 315.379L277.558 313.798C277.558 313.798 281.541 250.922 282.722 237.999C283.722 226.742 271.103 214.116 258.194 216.969C249.803 218.828 219.665 240.078 219.665 240.078L184.732 240.342Z" fill="#263238"/>
<path d="M252.255 235.198C252.286 235.656 252.275 236.116 252.223 236.573C252.171 237.541 252.107 238.793 252.029 240.297C251.887 243.441 251.784 247.791 251.707 252.606C251.629 257.422 251.539 261.772 251.371 264.922C251.3 266.503 251.203 267.775 251.119 268.653C251.101 269.111 251.04 269.567 250.939 270.015C250.898 269.557 250.898 269.097 250.939 268.64C250.939 267.672 251.003 266.42 251.042 264.909C251.094 261.682 251.165 257.363 251.236 252.593C251.307 247.823 251.468 243.428 251.7 240.278C251.816 238.703 251.933 237.431 252.042 236.553C252.072 236.096 252.144 235.642 252.255 235.198V235.198Z" fill="#455A64"/>
<path d="M251.107 259.707C250.602 259.282 250.178 258.771 249.854 258.196C248.975 256.874 248.29 255.433 247.821 253.917C247.35 252.4 247.094 250.825 247.059 249.237C247.005 248.586 247.064 247.931 247.234 247.301C247.389 247.301 247.169 250.308 248.279 253.794C249.39 257.28 251.261 259.623 251.107 259.707Z" fill="#455A64"/>
<path d="M212.481 270.312C212.436 270.312 212.371 269.602 212.152 268.317C211.846 266.513 211.349 264.748 210.667 263.05C209.657 260.533 208.273 258.183 206.562 256.079C204.46 253.511 201.886 251.37 198.978 249.772C192.82 246.209 187.404 242.711 183.622 239.974C181.73 238.612 180.246 237.444 179.258 236.585C178.761 236.166 178.393 235.811 178.148 235.578C177.903 235.346 177.774 235.21 177.787 235.198C177.799 235.185 178.355 235.636 179.381 236.443C180.407 237.25 181.905 238.38 183.815 239.703C187.637 242.356 193.071 245.803 199.216 249.385C202.183 251.008 204.8 253.202 206.917 255.84C208.635 257.981 210.009 260.376 210.99 262.94C211.654 264.668 212.111 266.469 212.352 268.304C212.422 268.801 212.468 269.3 212.487 269.802C212.503 269.971 212.501 270.142 212.481 270.312V270.312Z" fill="#455A64"/>
<path d="M222.499 239.645C222.379 240.063 222.222 240.47 222.028 240.859C221.686 241.62 221.227 242.744 220.737 244.138C217.977 251.423 216.689 259.183 216.948 266.968C216.993 268.459 217.07 269.666 217.148 270.499C217.21 270.926 217.228 271.359 217.2 271.79C217.078 271.369 216.998 270.936 216.961 270.499C216.825 269.673 216.703 268.466 216.606 266.968C216.155 259.132 217.447 251.293 220.388 244.015C220.956 242.627 221.466 241.524 221.86 240.788C222.035 240.387 222.249 240.004 222.499 239.645V239.645Z" fill="#455A64"/>
<path d="M168.04 235.882C168.181 235.953 168.313 236.039 168.434 236.14L169.524 236.928C169.757 237.108 170.021 237.302 170.305 237.509C170.589 237.715 170.861 238.006 171.17 238.283C171.886 238.894 172.559 239.554 173.184 240.258L174.288 241.478C174.637 241.93 174.985 242.408 175.36 242.898L175.921 243.654C176.102 243.918 176.27 244.196 176.444 244.473C176.786 245.029 177.16 245.59 177.509 246.19C178.955 248.823 180.172 251.574 181.149 254.414C182.221 257.422 183.034 260.352 183.731 263.012L185.623 270.112C186.171 272.126 186.617 273.752 186.952 274.869C187.107 275.405 187.223 275.837 187.32 276.16C187.37 276.309 187.405 276.462 187.424 276.618C187.352 276.478 187.296 276.331 187.256 276.179L186.83 274.888C186.455 273.785 185.971 272.164 185.39 270.157C184.809 268.15 184.17 265.742 183.454 263.095C182.737 260.449 181.898 257.519 180.827 254.523C179.859 251.702 178.656 248.966 177.231 246.345C176.896 245.745 176.528 245.19 176.186 244.628C176.018 244.357 175.857 244.08 175.676 243.815L175.127 243.066C174.766 242.576 174.424 242.092 174.075 241.646L173.004 240.42C172.391 239.711 171.734 239.042 171.035 238.419C170.731 238.141 170.467 237.857 170.196 237.631L169.434 237.031L168.388 236.192C168.264 236.099 168.147 235.995 168.04 235.882V235.882Z" fill="#455A64"/>
<path d="M184.435 240.078C189.599 243.492 195.292 244.293 201.372 245.455C204.884 246.1 208.557 246.745 211.978 245.726C219.323 243.557 226.423 235.198 231.142 232.216L216.515 227.659L184.435 240.078Z" fill="#C6E1F6"/>
<path d="M194.853 243.473C195.154 242.284 195.565 241.126 196.08 240.013C196.491 238.856 197.007 237.739 197.622 236.676C197.317 237.864 196.904 239.022 196.389 240.136C195.979 241.292 195.464 242.409 194.853 243.473V243.473Z" fill="white"/>
<path d="M214.243 242.214C213.297 242.004 212.378 241.683 211.506 241.259C210.597 240.934 209.73 240.5 208.924 239.968C210.782 240.507 212.573 241.254 214.262 242.195L214.243 242.214Z" fill="white"/>
<path d="M219.246 233.236C218.177 233.391 217.095 233.432 216.018 233.358C214.938 233.397 213.857 233.326 212.791 233.145C213.859 232.99 214.941 232.949 216.018 233.023C217.098 232.984 218.18 233.055 219.246 233.236V233.236Z" fill="white"/>
</svg>
