<svg viewBox="0 0 418 420" fill="none" xmlns="http://www.w3.org/2000/svg">
<path fill-rule="evenodd" clip-rule="evenodd" d="M143.44 347.573C109.867 341.942 65.5734 351.357 48.1568 319.534C30.6408 287.53 60.7232 243.919 65.1598 204.543C69.1391 169.225 54.6182 131.672 72.7647 101.13C91.146 70.1927 125.892 57.8785 157.169 49.6826C185.662 42.2164 212.224 52.1244 240.065 57.2902C272.553 63.3184 308.866 58.9362 333.253 82.3545C360.83 108.835 380.04 148.432 379.627 191.309C379.206 235.043 360.732 280.806 331.04 312.01C303.522 340.93 264.567 343.048 228.788 349.83C199.501 355.382 171.974 352.359 143.44 347.573Z" fill="#FFEEF2"/>
<path d="M285.069 79.55H125.386V310.529H285.069V79.55Z" fill="white"/>
<path d="M285.077 310.529C285.077 308.902 285 215.827 284.892 79.5502L285.077 79.7353H125.44L125.641 79.5347C125.641 166.309 125.641 246.467 125.602 310.514L125.44 310.352L285.131 310.514L125.44 310.676H125.278V310.514C125.278 246.467 125.278 166.301 125.24 79.5347V79.3342H125.463H285.1H285.277V79.5193C285.146 215.827 285.077 308.902 285.077 310.529Z" fill="#093636"/>
<path d="M277.526 86.4985H132.928V304.668H277.526V86.4985Z" fill="#E0E0E0"/>
<path d="M254.614 214.146C254.583 213.677 254.439 213.223 254.197 212.82C253.954 212.418 253.618 212.079 253.219 211.832C240.88 203.658 231.556 185.535 230.623 170.188C230.623 169.317 230.569 168.43 230.538 167.535C229.821 145.595 226.589 118.95 223.69 111.902C218.338 98.7913 200.199 97.5728 200.199 97.5728C176.115 95.8453 171.812 114.354 169.352 131.204C167.809 141.685 162.018 179.126 162.018 179.126L166.444 180.846C168.988 188.496 173.197 195.486 178.769 201.313C184.34 207.139 191.136 211.657 198.665 214.539C203.099 216.213 206.862 216.853 208.621 215.442C215.658 222.605 224.366 227.905 233.962 230.865C237.826 232.172 241.906 232.714 245.977 232.462C248.607 232.215 251.375 231.351 252.918 229.223C253.598 228.301 254.002 227.206 254.084 226.063C254.165 224.921 253.919 223.779 253.376 222.771C252.833 221.763 252.014 220.93 251.015 220.37C250.016 219.809 248.879 219.544 247.735 219.606C248.707 216.606 254.715 217.477 254.614 214.146Z" fill="#093636"/>
<path d="M203.4 104.383L201.857 102.948L185.578 109.511C184.441 109.572 183.369 110.058 182.573 110.872C181.778 111.686 181.317 112.769 181.282 113.907L181.429 166.957C181.429 170.551 182.123 173.666 184.297 176.535L186.611 179.558C191.824 186.437 202.544 185.874 206.662 178.286C206.91 177.857 207.102 177.398 207.233 176.921C207.337 176.53 207.419 176.133 207.479 175.733C207.957 171.461 207.988 167.759 207.988 167.759C208.281 163.078 208.374 161.15 208.374 161.196C208.374 161.243 218.345 160.047 221.045 147.253C222.386 140.883 222.132 132.13 221.754 123.508C221.26 111.578 212.97 104.375 203.4 104.383Z" fill="#FFBE9D"/>
<path d="M200.06 130.657C200.042 131.087 199.858 131.494 199.545 131.79C199.233 132.087 198.818 132.25 198.387 132.246C198.178 132.252 197.97 132.217 197.775 132.143C197.58 132.068 197.402 131.957 197.25 131.813C197.098 131.67 196.976 131.498 196.89 131.308C196.805 131.117 196.758 130.912 196.752 130.703C196.77 130.272 196.956 129.864 197.27 129.567C197.584 129.271 198.001 129.108 198.433 129.115C198.643 129.103 198.852 129.134 199.049 129.207C199.247 129.279 199.427 129.391 199.579 129.535C199.731 129.68 199.853 129.854 199.935 130.047C200.018 130.239 200.061 130.447 200.06 130.657Z" fill="#093636"/>
<path d="M216.896 131.104C216.88 131.537 216.694 131.945 216.38 132.242C216.066 132.54 215.647 132.701 215.215 132.693C215.006 132.699 214.798 132.664 214.603 132.59C214.408 132.516 214.229 132.404 214.077 132.261C213.926 132.117 213.803 131.946 213.718 131.755C213.633 131.565 213.586 131.359 213.58 131.151C213.598 130.719 213.783 130.311 214.097 130.015C214.411 129.718 214.829 129.556 215.261 129.562C215.47 129.555 215.678 129.589 215.874 129.663C216.069 129.737 216.248 129.849 216.4 129.992C216.552 130.135 216.674 130.308 216.759 130.499C216.844 130.689 216.891 130.895 216.896 131.104Z" fill="#093636"/>
<path d="M220.081 126.917C219.865 127.125 218.662 126.146 216.88 126.045C215.099 125.945 213.749 126.816 213.564 126.562C213.379 126.307 213.703 126.076 214.335 125.69C215.131 125.196 216.06 124.959 216.996 125.012C217.922 125.058 218.81 125.395 219.533 125.976C220.019 126.423 220.188 126.824 220.081 126.917Z" fill="#093636"/>
<path d="M202.011 127.102C201.772 127.279 200.677 126.177 198.927 125.907C197.176 125.637 195.742 126.323 195.58 126.076C195.503 125.968 195.765 125.614 196.397 125.305C197.239 124.895 198.187 124.755 199.112 124.904C200.03 125.043 200.88 125.47 201.541 126.123C202.004 126.608 202.127 127.017 202.011 127.102Z" fill="#093636"/>
<path d="M208.235 140.065C209.187 139.818 210.166 139.691 211.15 139.688C211.605 139.688 212.045 139.595 212.137 139.287C212.199 138.818 212.116 138.341 211.898 137.922L210.726 134.397C209.107 129.369 207.957 125.251 208.158 125.189C208.358 125.127 209.839 129.145 211.466 134.166C211.852 135.41 212.222 136.593 212.577 137.713C212.833 138.277 212.885 138.912 212.723 139.51C212.65 139.666 212.543 139.803 212.409 139.911C212.276 140.019 212.12 140.095 211.952 140.135C211.699 140.192 211.44 140.216 211.181 140.204C210.197 140.282 209.207 140.236 208.235 140.065Z" fill="#093636"/>
<path d="M208.405 161.196C202.324 160.983 196.421 159.088 191.354 155.721C191.354 155.721 195.233 164.875 208.227 164.335L208.405 161.196Z" fill="#EB996E"/>
<path d="M207.264 144.284C206.946 143.841 206.521 143.486 206.029 143.252C205.537 143.019 204.993 142.915 204.449 142.95C204.053 142.965 203.665 143.061 203.307 143.231C202.949 143.4 202.629 143.641 202.367 143.937C202.116 144.223 201.958 144.578 201.914 144.955C201.87 145.332 201.942 145.714 202.12 146.05C202.391 146.385 202.756 146.631 203.168 146.758C203.58 146.884 204.021 146.885 204.433 146.759C205.279 146.498 206.065 146.074 206.747 145.51C206.958 145.381 207.142 145.21 207.287 145.009C207.353 144.911 207.388 144.795 207.388 144.677C207.388 144.559 207.353 144.444 207.287 144.346" fill="#EB996E"/>
<path d="M202.945 141.029C203.238 141.029 203.145 142.965 204.726 144.415C206.307 145.865 208.382 145.765 208.382 146.034C208.382 146.158 207.904 146.389 207.032 146.366C205.889 146.332 204.795 145.892 203.947 145.124C203.143 144.393 202.651 143.379 202.575 142.294C202.559 141.484 202.798 141.014 202.945 141.029Z" fill="#093636"/>
<path d="M203.716 120.161C203.469 120.609 201.742 120.115 199.636 120.046C197.531 119.976 195.78 120.285 195.564 119.814C195.472 119.591 195.834 119.182 196.582 118.827C197.569 118.396 198.641 118.195 199.717 118.241C200.793 118.286 201.844 118.576 202.791 119.089C203.5 119.506 203.824 119.945 203.716 120.161Z" fill="#093636"/>
<path d="M219.826 119.266C219.494 119.652 218.284 119.174 216.811 119.081C215.338 118.989 214.073 119.212 213.811 118.773C213.695 118.565 213.911 118.171 214.474 117.816C215.231 117.395 216.096 117.208 216.959 117.278C217.822 117.348 218.646 117.672 219.325 118.21C219.826 118.649 219.973 119.074 219.826 119.266Z" fill="#093636"/>
<path d="M181.644 136.572C181.644 136.572 190.768 139.41 195.927 116.899C197.693 109.187 204.826 102.971 204.826 102.971L201.934 102.1C201.934 102.1 183.95 107.167 183.649 107.39C183.349 107.614 179.107 116.698 179.107 116.698L181.644 136.572Z" fill="#093636"/>
<path d="M183.896 135.708C183.943 134.752 182.94 132.431 181.999 132.23C179.485 131.713 174.912 131.683 174.542 138.114C174.048 146.914 182.979 145.603 183.025 145.348C183.071 145.094 183.735 139.024 183.896 135.708Z" fill="#FFBE9D"/>
<path d="M180.511 141.862C180.511 141.862 180.349 141.963 180.087 142.063C179.902 142.132 179.706 142.165 179.508 142.158C179.311 142.152 179.117 142.106 178.938 142.024C178.028 141.631 177.326 140.112 177.395 138.523C177.416 137.769 177.603 137.029 177.943 136.356C178.04 136.086 178.202 135.843 178.415 135.65C178.627 135.456 178.883 135.318 179.161 135.245C179.341 135.205 179.529 135.23 179.692 135.317C179.855 135.403 179.981 135.545 180.048 135.716C180.149 135.97 180.087 136.14 180.125 136.155C180.164 136.171 180.326 136.024 180.28 135.654C180.24 135.434 180.129 135.234 179.963 135.084C179.73 134.887 179.428 134.79 179.123 134.814C178.758 134.863 178.412 135.007 178.119 135.23C177.826 135.453 177.595 135.748 177.449 136.086C177.031 136.826 176.8 137.658 176.778 138.508C176.732 140.281 177.55 141.993 178.799 142.433C179.031 142.514 179.278 142.542 179.522 142.515C179.766 142.489 180.001 142.408 180.21 142.279C180.48 142.078 180.58 141.878 180.511 141.862Z" fill="#EB996E"/>
<path d="M187.829 132.246C188.273 132.179 188.714 132.089 189.148 131.976C190.317 131.621 191.389 131.001 192.279 130.164C192.897 129.59 193.446 128.945 193.914 128.243C194.443 127.435 194.888 126.575 195.24 125.675C196.001 123.584 196.634 121.449 197.138 119.282C197.704 117.121 198.378 114.99 199.158 112.897C199.806 111.184 200.579 109.521 201.472 107.922C202.068 106.847 202.741 105.816 203.485 104.838C203.739 104.483 203.97 104.236 204.117 104.067C204.186 103.975 204.263 103.889 204.348 103.812C204.291 103.914 204.224 104.009 204.148 104.097C204.017 104.29 203.801 104.545 203.554 104.869C202.846 105.858 202.197 106.888 201.611 107.953C200.752 109.554 200.007 111.214 199.382 112.92C198.657 114.84 197.994 116.999 197.377 119.29C196.877 121.468 196.235 123.611 195.456 125.706C195.091 126.614 194.633 127.482 194.091 128.297C193.609 129.004 193.045 129.652 192.41 130.225C191.493 131.069 190.388 131.683 189.187 132.014C188.747 132.154 188.29 132.232 187.829 132.246Z" fill="#093636"/>
<path d="M175.814 169.772C175.764 169.632 175.73 169.487 175.714 169.34L175.498 168.091C175.305 166.965 175.043 165.361 174.727 163.317H174.943C174.981 163.641 175.035 163.996 175.082 164.358C175.136 164.474 175.205 164.613 175.267 164.751L175.043 164.829C172.86 157.248 171.731 149.404 171.688 141.515C171.688 138.3 171.688 134.883 172.56 131.49C172.908 130.095 173.445 128.753 174.156 127.503C174.856 126.297 175.669 125.16 176.586 124.11C178.375 122.043 180.303 120.254 182.061 118.503L191.508 109.249L197.894 103.01L199.644 101.329L200.107 100.897L200.276 100.758C200.276 100.758 200.238 100.82 200.138 100.928L199.706 101.383L198.009 103.118C196.467 104.66 194.346 106.789 191.709 109.449L182.323 118.796C180.573 120.57 178.645 122.359 176.886 124.403C175.011 126.457 173.659 128.933 172.946 131.621C172.105 134.96 172.113 138.361 172.074 141.562C172.108 149.42 173.184 157.238 175.275 164.813L175.051 164.898L174.873 164.497C174.827 164.127 174.781 163.772 174.742 163.456H174.951C175.251 165.499 175.483 167.111 175.645 168.245C175.714 168.777 175.768 169.193 175.814 169.502C175.818 169.592 175.818 169.682 175.814 169.772Z" fill="#455A64"/>
<path d="M168.889 129.107C168.922 128.977 168.974 128.852 169.043 128.737C169.182 128.459 169.352 128.12 169.552 127.704C169.999 126.809 170.701 125.544 171.627 124.01C172.552 122.475 173.717 120.686 175.105 118.765C176.493 116.845 178.135 114.817 179.956 112.773C181.776 110.73 183.65 108.917 185.392 107.321C187.135 105.725 188.801 104.375 190.235 103.303C191.67 102.231 192.85 101.39 193.698 100.851L194.67 100.226C194.78 100.152 194.896 100.088 195.017 100.033C195.017 100.033 194.924 100.133 194.708 100.295L193.783 100.974C192.965 101.552 191.809 102.424 190.413 103.527C189.017 104.629 187.382 106.002 185.647 107.591C183.912 109.18 182.076 111.023 180.249 113.043C178.421 115.064 176.809 117.1 175.398 118.981C173.986 120.863 172.807 122.645 171.858 124.156C170.909 125.668 170.169 126.909 169.683 127.781L169.105 128.775C169.044 128.893 168.972 129.004 168.889 129.107Z" fill="#455A64"/>
<path d="M178.961 166.44C179.269 165.993 181.32 162.037 181.32 162.037L192.919 172.047C192.919 172.047 204.317 181.587 204.317 180.97L206.137 171.792L208.374 163.433L212.554 169.756C212.554 169.756 225.664 195.514 225.664 195.823C225.664 196.131 233.8 222.814 233.8 222.814L232.049 233.611L231.841 271.901L207.34 270.875L202.505 263.163L194.23 214.054L178.961 166.44Z" fill="white"/>
<path d="M206.415 263.664H233.445L241.411 304.73H187.251L206.415 263.664Z" fill="#093636"/>
<path d="M174.526 172.818L158.748 178.741L173.323 243.652C173.323 243.652 172.467 261.189 169.367 270.127C166.267 279.065 158.987 304.73 158.987 304.73H207.464C207.464 304.73 209.523 269.502 208.705 256.916C207.888 244.331 208.227 220.609 203.407 208.231C198.587 195.854 179.269 165.438 179.269 165.438L174.526 172.818Z" fill="#C6E1F6"/>
<path d="M209.114 164.173L216.263 170.08L235.898 173.003C235.898 173.003 245.191 206.665 243.471 219.899C241.751 233.133 244.149 256.045 244.149 256.045L252.756 304.73H233.862C233.862 304.73 228.463 247.793 228.147 248.479C227.831 249.166 226.79 220.632 224.731 211.377C222.672 202.123 212.276 173.034 212.276 173.034L209.114 164.173Z" fill="#C6E1F6"/>
<path d="M260.661 247.963C260.661 247.963 268.573 244.354 268.573 237.305C268.573 230.256 263.753 220.285 262.728 216.483C261.702 212.681 238.312 172.471 235.906 172.988L233.5 173.504L245.877 227.835L229.027 231.961L236.214 252.644L260.661 247.963Z" fill="#C6E1F6"/>
<path d="M236.538 230.403L240.008 219.174L240.602 211.524L248.769 206.126C248.769 206.126 250.959 206.38 250.311 208.077C249.664 209.773 246.324 212.827 246.324 212.827L244.373 218.28L247.543 212.743L252.17 210.429L256.758 210.768C256.758 210.768 257.607 212.804 255.486 212.889H253.172L249.687 215.696L247.512 220.956L250.789 215.866L255.633 214.146L258.717 214.917C258.717 214.917 259.566 216.275 258.039 216.46C256.512 216.645 255.494 216.629 255.494 216.629L252.694 218.257L250.226 223.424L254.561 219.853L260.159 219.182C260.159 219.182 261.1 220.532 259.65 221.041C258.174 221.647 256.73 222.329 255.324 223.084L252.178 226.902L236.538 230.403Z" fill="#FFBE9D"/>
<path d="M208.898 263.664C208.86 263.583 208.831 263.498 208.813 263.41C208.767 263.225 208.698 262.97 208.621 262.639C208.443 261.952 208.204 260.98 207.849 259.739C207.225 257.186 206.307 253.569 205.212 249.035C204.117 244.5 202.752 239.148 201.225 233.194C200.454 230.218 199.636 227.094 198.742 223.863C198.302 222.251 197.839 220.616 197.338 218.966C197.091 218.141 196.814 217.316 196.567 216.483C196.277 215.659 195.94 214.853 195.557 214.069C192.665 208.262 189.711 202.794 187.074 197.751C184.436 192.707 181.922 188.126 179.794 184.162L179.74 184.054L179.824 183.977C180.364 183.491 180.896 183.036 181.428 182.604C181.69 182.384 181.966 182.181 182.254 181.995L182.377 181.926H182.454C182.454 181.926 182.454 181.926 182.408 181.98C182.395 182.014 182.396 182.051 182.41 182.084C182.425 182.117 182.452 182.143 182.485 182.157H182.269H181.791C180.511 182.157 179.308 182.157 178.197 182.157H178.112V182.08C176.986 179.173 176.1 176.867 175.483 175.263L174.796 173.458L174.627 172.988L174.58 172.826C174.58 172.826 174.58 172.872 174.657 172.972L174.858 173.435L175.629 175.216C176.269 176.813 177.172 179.072 178.367 181.995L178.251 181.918C179.369 181.918 180.565 181.856 181.853 181.856H182.338C182.431 181.849 182.524 181.849 182.616 181.856H182.662C182.682 181.876 182.696 181.901 182.703 181.928C182.71 181.955 182.709 181.984 182.701 182.011C182.655 182.095 182.662 182.065 182.647 182.08H182.578H182.539C182.507 182.095 182.476 182.113 182.446 182.134C182.176 182.313 181.918 182.512 181.675 182.728C181.159 183.16 180.626 183.615 180.133 184.1V183.915C182.269 187.872 184.76 192.452 187.475 197.473C190.189 202.493 193.12 207.969 196.019 213.791C196.411 214.59 196.753 215.411 197.045 216.251C197.315 217.092 197.593 217.917 197.816 218.75C198.33 220.411 198.798 222.048 199.22 223.663C200.107 226.894 200.909 230.017 201.672 233.002C203.215 238.963 204.495 244.346 205.582 248.873L208.096 259.6C208.374 260.849 208.598 261.829 208.752 262.523C208.813 262.839 208.867 263.094 208.906 263.294C208.924 263.417 208.921 263.542 208.898 263.664Z" fill="#093636"/>
<path d="M233.862 225.483C233.841 225.283 233.841 225.081 233.862 224.881C233.862 224.442 233.916 223.871 233.962 223.154C233.962 222.776 234.008 222.382 234.039 221.904V220.424C234.039 219.352 234.039 218.11 233.962 216.807C233.561 209.826 232.19 202.935 229.89 196.332C228.953 193.571 227.851 190.87 226.589 188.242C225.465 185.693 224.19 183.213 222.772 180.815C221.515 178.625 220.358 176.72 219.387 175.147L217.073 171.468C216.818 171.067 216.618 170.697 216.456 170.489C216.383 170.376 216.319 170.257 216.263 170.134C216.358 170.231 216.443 170.337 216.518 170.45L217.181 171.399C217.752 172.232 218.569 173.458 219.572 175.016C220.574 176.574 221.762 178.471 223.042 180.653C224.482 183.051 225.769 185.536 226.898 188.095C228.184 190.746 229.299 193.477 230.237 196.27C232.555 202.904 233.895 209.84 234.216 216.861C234.301 218.21 234.255 219.429 234.216 220.493C234.216 221.025 234.217 221.526 234.178 221.981C234.139 222.436 234.101 222.853 234.07 223.231C234.001 223.948 233.939 224.526 233.9 224.958C233.896 225.134 233.883 225.309 233.862 225.483Z" fill="#093636"/>
<path d="M261.246 247.662C261.089 247.721 260.926 247.765 260.761 247.793L259.349 248.117L254.02 249.281L235.388 253.238L235.226 253.276L235.173 253.114C233.63 248.487 231.887 243.428 230.09 238.115L228.224 232.585L228.147 232.377L228.363 232.323L242.375 229.03L248.414 227.619L251.136 226.986C251.973 226.755 252.831 226.611 253.697 226.554C255.185 226.503 256.665 226.804 258.015 227.434C259.028 227.892 259.964 228.503 260.791 229.246C261.309 229.71 261.777 230.227 262.187 230.788C262.303 230.973 262.403 231.12 262.48 231.236C262.557 231.351 262.581 231.398 262.573 231.398C262.022 230.65 261.391 229.964 260.691 229.354C259.862 228.642 258.932 228.057 257.93 227.619C256.598 227.044 255.153 226.78 253.704 226.848C252.86 226.911 252.025 227.063 251.213 227.303L248.491 227.958L242.46 229.408C238.196 230.418 233.468 231.544 228.455 232.747L228.594 232.485L230.468 238.014C232.257 243.336 233.969 248.402 235.527 253.029L235.311 252.906L253.974 249.096L259.326 248.032L260.745 247.762C260.91 247.717 261.077 247.684 261.246 247.662Z" fill="#093636"/>
<path d="M170.169 274.631L195.981 277.006L191.539 284.903L164.354 282.242L170.169 274.631Z" fill="#C6E1F6"/>
<path d="M170.169 274.615C170.169 274.615 170.169 274.677 170.076 274.77L169.791 275.171L168.665 276.713L164.454 282.327L164.362 282.111L190.606 284.641L191.562 284.733L191.369 284.834L195.811 276.929L195.958 277.214L177.495 275.386L172.097 274.839L170.647 274.677C170.475 274.667 170.305 274.641 170.138 274.6H170.624L172.051 274.7L177.449 275.14L196.004 276.813H196.297L196.15 277.075L191.724 284.98L191.654 285.088H191.523L190.567 284.995L164.347 282.366H164.1L164.246 282.173L168.596 276.605L169.768 275.124C169.892 274.947 170.026 274.777 170.169 274.615Z" fill="#093636"/>
<path d="M239.653 277.283L243.687 284.903L252.355 283.129L247.759 276.111L239.653 277.283Z" fill="#C6E1F6"/>
<path d="M239.653 277.283C239.827 277.232 240.005 277.196 240.185 277.175L241.805 276.898C243.209 276.659 245.252 276.319 247.735 275.941H247.843L247.905 276.034C249.247 278.07 250.836 280.468 252.532 283.036L252.694 283.283L252.401 283.345L251.969 283.43L243.725 285.088H243.602L243.54 284.972C242.322 282.658 241.342 280.692 240.671 279.35C240.363 278.725 240.108 278.209 239.9 277.808C239.807 277.639 239.727 277.464 239.661 277.283C239.661 277.283 239.792 277.492 240 277.854L240.872 279.396C241.643 280.723 242.646 282.574 243.849 284.795L243.656 284.71L251.892 282.998L252.324 282.913L252.201 283.214C250.519 280.638 248.954 278.232 247.627 276.18L247.789 276.258C245.391 276.589 243.394 276.828 241.959 277.029L240.286 277.222C239.885 277.268 239.669 277.291 239.653 277.283Z" fill="#093636"/>
<g opacity="0.3">
<path opacity="0.3" d="M167.501 282.558L166.429 284.903L193.243 287.363L195.241 278.317L191.539 284.903L167.501 282.558Z" fill="black"/>
</g>
<g opacity="0.3">
<path opacity="0.3" d="M173.03 247.762C173.03 247.762 177.241 256.585 182.709 259.168C190.166 262.685 208.844 260.387 208.844 260.387L208.898 255.027L187.251 256.261L173.03 247.762Z" fill="black"/>
</g>
<path d="M159.758 178.332C159.758 178.332 152.193 178.849 152.046 198.622C151.9 218.395 175.082 251.572 179.038 254.842C182.994 258.111 187.521 260.302 199.428 258.536C214.374 256.322 224.77 254.325 224.77 254.325L222.703 236.271L196.004 235.068L174.357 190.555C174.357 190.555 167.139 177.445 159.758 178.332Z" fill="#C6E1F6"/>
<g opacity="0.3">
<path opacity="0.3" d="M229.165 243.852C226.235 242.634 222.996 242.611 219.795 242.603L207.179 242.565C204.457 242.443 201.731 242.668 199.066 243.236C196.377 243.82 194.013 245.409 192.457 247.678L185.863 253.13C194.305 255.175 203.166 254.657 211.312 251.641C213.296 250.764 215.363 250.087 217.482 249.621C223.181 248.726 228.949 252.035 234.618 250.978C234.625 247.801 232.088 245.079 229.165 243.852Z" fill="black"/>
</g>
<path d="M186.426 225.483C188.888 226.475 191.415 227.295 193.991 227.935C197.212 228.604 200.354 229.604 203.369 230.92C205.505 231.762 207.593 232.723 209.623 233.796L213.603 247.678C213.603 247.678 206.994 251.834 199.536 251.618C192.079 251.402 185.47 253.816 184.513 253.161C183.557 252.505 183.449 251.318 184.513 250.785C185.578 250.253 190.097 249.613 190.097 249.613L193.953 248.017C193.953 248.017 180.634 249.189 179.57 248.657C178.506 248.125 177.442 247.377 177.866 246.205C177.965 245.881 178.161 245.596 178.427 245.386C178.693 245.177 179.016 245.053 179.354 245.032C179.354 245.032 176.478 245.14 176.586 243.968C176.669 243.472 176.854 242.998 177.129 242.576C177.403 242.154 177.762 241.793 178.182 241.516C178.614 241.3 184.197 239.032 184.197 239.032L191.385 237.598L184.483 237.32L178.452 239.002C178.452 239.002 176.046 239.279 176.586 237.251C177.125 235.223 184.513 232.971 184.513 232.971L193.891 232.331C193.891 232.331 186.642 231.267 185.894 229.03C185.651 228.446 185.572 227.808 185.666 227.182C185.76 226.557 186.023 225.969 186.426 225.483Z" fill="#FFBE9D"/>
<path d="M209.623 233.796H210.086L228.386 232.986L233.862 248.965L213.603 247.647L209.623 233.796Z" fill="#FFBE9D"/>
<path d="M193.691 242.881C192.95 242.994 192.203 243.054 191.454 243.058C190.074 243.135 188.169 243.297 186.056 243.613C183.943 243.93 182.115 244.338 180.773 244.67C180.055 244.886 179.323 245.054 178.583 245.171C179.256 244.835 179.965 244.576 180.696 244.4C184.18 243.379 187.786 242.835 191.415 242.78C192.175 242.73 192.938 242.764 193.691 242.881Z" fill="#EB996E"/>
<path d="M179.956 200.619C179.722 200.349 179.517 200.054 179.346 199.74C178.976 199.17 178.452 198.329 177.804 197.311C176.051 194.66 174.159 192.104 172.136 189.653C170.138 187.184 167.875 184.942 165.388 182.967C164.324 182.194 163.22 181.478 162.079 180.823C162.421 180.924 162.752 181.058 163.067 181.224C163.447 181.401 163.815 181.602 164.169 181.826C164.65 182.101 165.113 182.405 165.558 182.736C168.118 184.662 170.431 186.898 172.444 189.391C174.482 191.854 176.353 194.451 178.043 197.165C178.691 198.198 179.184 199.062 179.516 199.663C179.693 199.967 179.84 200.287 179.956 200.619Z" fill="#093636"/>
<path d="M191.801 226.956C191.634 226.675 191.497 226.378 191.392 226.069L190.39 223.609C189.557 221.526 188.377 218.658 187.012 215.519C185.647 212.38 184.351 209.565 183.395 207.529C182.948 206.573 182.57 205.763 182.277 205.123C182.117 204.836 181.992 204.53 181.907 204.213C182.102 204.477 182.273 204.758 182.416 205.054C182.716 205.601 183.141 206.403 183.65 207.406C184.668 209.411 186.009 212.21 187.382 215.357C188.755 218.503 189.889 221.395 190.66 223.501C191.045 224.557 191.346 225.421 191.539 226.015C191.661 226.317 191.749 226.633 191.801 226.956Z" fill="#093636"/>
<path d="M204.133 181.124C204.133 181.124 203.963 181.07 203.67 180.923L202.413 180.26L197.986 177.815L198.248 177.684C198.032 179.674 197.67 181.995 197.3 184.471C197.153 185.481 197.014 186.46 196.899 187.401L196.853 187.764L196.583 187.532C194.207 185.519 192.156 183.746 190.691 182.465L188.994 180.923C188.779 180.748 188.583 180.552 188.408 180.337C188.652 180.466 188.878 180.626 189.079 180.815L190.86 182.242C192.364 183.468 194.454 185.203 196.829 187.201L196.513 187.324C196.621 186.383 196.752 185.396 196.906 184.386C197.269 181.902 197.678 179.581 197.901 177.607V177.345L198.125 177.476L202.482 180.052L203.685 180.823C203.848 180.901 203.999 181.002 204.133 181.124Z" fill="#093636"/>
<path d="M210.896 169.772C210.945 170.119 210.958 170.471 210.935 170.821C210.935 171.592 210.935 172.525 210.881 173.666C210.819 176.08 210.711 179.404 210.564 183.075C210.564 183.167 210.564 183.252 210.564 183.345V183.985L210.217 183.445L205.822 176.504H206.092C205.606 177.838 205.205 178.957 204.888 179.813C204.762 180.229 204.594 180.632 204.387 181.016C204.462 180.587 204.575 180.166 204.727 179.759L205.798 176.404L205.899 176.095L206.076 176.365L210.557 183.252L210.187 183.352C210.187 183.268 210.187 183.175 210.187 183.09C210.333 179.419 210.487 176.095 210.618 173.689C210.696 172.548 210.75 171.592 210.804 170.844C210.799 170.484 210.83 170.125 210.896 169.772Z" fill="#093636"/>
<path d="M235.096 180.445C234.878 180.363 234.671 180.254 234.479 180.121L234.572 180.06C235.057 181.787 236.43 187.424 237.988 194.118C238.944 198.198 239.777 201.892 240.363 204.576C240.641 205.864 240.864 206.935 241.042 207.753C241.141 208.14 241.205 208.535 241.235 208.933C241.089 208.562 240.973 208.18 240.888 207.792C240.679 206.974 240.417 205.918 240.116 204.637C239.453 201.977 238.574 198.29 237.625 194.211C236.083 187.517 234.803 181.872 234.479 180.083V179.944L234.587 180.021C234.772 180.143 234.943 180.285 235.096 180.445Z" fill="#093636"/>
<path d="M210.896 256.654C210.743 256.717 210.586 256.768 210.425 256.808L209.045 257.179C207.842 257.495 206.084 257.903 203.901 258.304C201.337 258.775 198.746 259.086 196.143 259.238C192.947 259.452 189.736 259.24 186.596 258.605C184.967 258.26 183.388 257.708 181.899 256.963C181.193 256.601 180.513 256.192 179.863 255.736C179.264 255.266 178.702 254.751 178.182 254.194C176.443 252.242 174.831 250.181 173.354 248.024C172.074 246.204 171.095 244.701 170.424 243.652L169.653 242.441C169.56 242.302 169.48 242.155 169.414 242.001C169.53 242.121 169.633 242.253 169.722 242.395C169.93 242.696 170.2 243.089 170.54 243.567C171.249 244.585 172.267 246.066 173.57 247.855C175.071 249.967 176.696 251.989 178.436 253.909C178.94 254.451 179.487 254.951 180.071 255.405C180.704 255.85 181.369 256.247 182.061 256.592C183.528 257.325 185.083 257.864 186.688 258.196C189.793 258.826 192.966 259.049 196.128 258.86C198.712 258.72 201.287 258.437 203.84 258.011C206.022 257.641 207.78 257.279 208.991 257.017L210.387 256.716C210.553 256.672 210.724 256.651 210.896 256.654Z" fill="#093636"/>
<g opacity="0.3">
<path opacity="0.3" d="M175.251 174.661L177.295 184.37L178.961 183.329L178.005 185.643L198.896 223.531L196.182 214.879L179.917 184.101L182.493 182.041H178.167L175.251 174.661Z" fill="black"/>
</g>
<path d="M219.14 213.159C218.901 213.46 213.95 227.148 213.95 227.148L218.831 224.064C218.831 224.064 220.867 230.017 220.821 229.809C220.775 229.601 224.638 214.956 224.638 214.956L219.14 213.159Z" fill="#093636"/>
<path d="M228.201 215.095C228.201 215.095 231.865 228.93 231.965 228.776C232.065 228.621 233.954 224.249 233.954 224.249L238.682 227.249L233.7 213.159L228.201 215.095Z" fill="#093636"/>
<path d="M226.319 216.668C232.9 216.668 238.234 211.333 238.234 204.753C238.234 198.173 232.9 192.838 226.319 192.838C219.739 192.838 214.405 198.173 214.405 204.753C214.405 211.333 219.739 216.668 226.319 216.668Z" fill="#455A64"/>
<path d="M235.643 204.375C235.573 203.615 235.452 202.86 235.281 202.116C234.741 200.102 233.544 198.327 231.88 197.072C230.658 196.15 229.224 195.55 227.709 195.326C226.195 195.103 224.648 195.263 223.212 195.792C222.381 196.083 221.6 196.502 220.898 197.033C220.157 197.575 219.506 198.231 218.97 198.977C217.817 200.54 217.194 202.432 217.194 204.375C217.194 206.318 217.817 208.21 218.97 209.773C219.502 210.522 220.153 211.179 220.898 211.717C221.6 212.25 222.381 212.672 223.212 212.966C224.649 213.493 226.196 213.651 227.71 213.426C229.224 213.201 230.658 212.6 231.88 211.678C233.548 210.43 234.746 208.656 235.281 206.642C235.451 205.898 235.572 205.143 235.643 204.383C235.665 204.58 235.665 204.779 235.643 204.977C235.645 205.219 235.627 205.462 235.589 205.702C235.557 206.032 235.498 206.36 235.412 206.681C234.92 208.76 233.727 210.606 232.034 211.91C230.779 212.881 229.298 213.518 227.73 213.764C226.162 214.009 224.557 213.854 223.065 213.313C222.201 213.006 221.388 212.572 220.651 212.025C219.879 211.465 219.199 210.785 218.639 210.013C217.431 208.384 216.78 206.41 216.78 204.383C216.78 202.356 217.431 200.382 218.639 198.753C219.205 197.971 219.895 197.286 220.682 196.725C221.415 196.172 222.229 195.738 223.096 195.437C224.694 194.861 226.417 194.725 228.086 195.044C229.858 195.383 231.495 196.226 232.8 197.472C234.105 198.718 235.022 200.315 235.443 202.069C235.529 202.39 235.588 202.718 235.62 203.049C235.658 203.286 235.676 203.526 235.674 203.766C235.686 203.969 235.676 204.174 235.643 204.375Z" fill="#093636"/>
<g opacity="0.2">
<path opacity="0.2" d="M229.119 193.17L214.405 206.388L215.338 209.38L232.157 194.357C231.258 193.717 230.214 193.309 229.119 193.17Z" fill="white"/>
</g>
<g opacity="0.2">
<path opacity="0.2" d="M233.492 195.229C233.43 195.183 216.294 211.193 216.294 211.193L217.312 212.55C217.351 212.588 234.548 196.131 234.548 196.131L233.492 195.229Z" fill="white"/>
</g>
<path d="M227.731 200.373V209.689H225.572V202.123H223.705V200.396L227.731 200.373Z" fill="white"/>
<g opacity="0.3">
<path opacity="0.3" d="M218.476 204.375C218.476 199.493 221.931 195.491 226.319 195.082C226.08 195.082 225.834 195.082 225.548 195.082C220.805 195.082 216.965 199.254 216.965 204.406C216.965 209.558 220.821 213.73 225.548 213.73C225.803 213.73 226.049 213.73 226.319 213.691C221.931 213.252 218.476 209.249 218.476 204.375Z" fill="black"/>
</g>
<g opacity="0.3">
<path opacity="0.3" d="M233.445 86.4985L235.643 164.173L277.534 176.55V86.4985H233.445Z" fill="white"/>
</g>
<path d="M173.03 234.853C173.115 234.922 166.599 242.865 158.47 252.59C150.342 262.315 143.686 270.134 143.602 270.065C143.517 269.996 150.033 262.052 158.162 252.328C166.29 242.603 172.945 234.783 173.03 234.853Z" fill="white"/>
<path d="M176.547 219.722C176.624 219.791 169.514 227.912 160.66 237.852C151.807 247.793 144.558 255.798 144.465 255.721C144.373 255.644 151.491 247.531 160.344 237.59C169.197 227.65 176.462 219.645 176.547 219.722Z" fill="white"/>
<path d="M267.648 142.302C267.733 142.371 259.859 151.333 250.057 162.299C240.255 173.265 232.25 182.111 232.173 182.072C232.096 182.034 239.962 173.003 249.764 162.021C259.566 151.04 267.563 142.225 267.648 142.302Z" fill="white"/>
<path d="M150.057 86.1592L151.113 100.241C151.239 102.086 152.015 103.827 153.303 105.154C153.626 105.483 153.965 105.794 154.321 106.087C155.692 107.212 157.373 107.893 159.141 108.038L169.429 108.909L158.216 110.02C157.403 110.104 156.628 110.405 155.972 110.891C155.717 111.084 155.47 111.277 155.2 111.485C153.067 113.345 151.74 115.961 151.499 118.781L150.727 127.117L149.879 119.405C149.713 117.734 149.162 116.125 148.272 114.701C147.381 113.278 146.173 112.08 144.743 111.2L144.674 111.153C144.101 110.821 143.46 110.623 142.8 110.575L130.453 109.634L141.188 108.639C143.305 108.461 145.282 107.508 146.74 105.963C147.033 105.647 147.319 105.308 147.589 104.961C148.512 103.728 149.049 102.249 149.131 100.712L150.057 86.1592Z" fill="white"/>
<path d="M117.913 121.58L118.592 130.68C118.675 131.871 119.178 132.994 120.011 133.85C120.218 134.065 120.437 134.268 120.666 134.459C121.546 135.177 122.621 135.614 123.751 135.716L130.399 136.279L123.173 136.996C122.648 137.049 122.147 137.244 121.723 137.559C121.553 137.683 121.399 137.806 121.245 137.937C119.868 139.139 119.011 140.828 118.854 142.649L118.345 148.047L117.805 143.081C117.696 142.002 117.339 140.962 116.762 140.043C116.186 139.125 115.405 138.351 114.482 137.783H114.435C114.066 137.567 113.651 137.44 113.224 137.413L105.204 136.78L112.145 136.14C113.512 136.025 114.789 135.41 115.731 134.413C115.924 134.204 116.109 133.989 116.278 133.765C116.882 132.971 117.234 132.015 117.289 131.019L117.913 121.58Z" fill="white"/>
<path d="M256.141 316.383H159.504C157.204 316.383 155.339 318.247 155.339 320.547V336.727C155.339 339.027 157.204 340.891 159.504 340.891H256.141C258.441 340.891 260.306 339.027 260.306 336.727V320.547C260.306 318.247 258.441 316.383 256.141 316.383Z" fill="#C6E1F6"/>
<g opacity="0.3">
<path opacity="0.3" d="M204.024 316.383L183.017 340.891H190.305L211.489 316.383H204.024Z" fill="white"/>
</g>
<path d="M188.061 325.398V326.524H183.356V320.447H187.984V321.573H184.783V322.892H187.606V323.971H184.783V325.383L188.061 325.398Z" fill="white"/>
<path d="M194.708 326.524V322.876L192.919 325.884H192.287L190.505 322.953V326.524H189.187V320.447H190.351L192.665 324.226L194.909 320.447H196.004V326.524H194.708Z" fill="white"/>
<path d="M202.744 322.653C202.744 324.002 201.726 324.851 200.099 324.851H198.88V326.524H197.469V320.447H200.099C201.726 320.447 202.744 321.288 202.744 322.653ZM201.317 322.653C201.317 321.982 200.885 321.588 200.022 321.588H198.88V323.701H200.022C200.885 323.701 201.317 323.308 201.317 322.653Z" fill="white"/>
<path d="M203.716 320.447H205.119V325.375H208.204V326.524H203.716V320.447Z" fill="white"/>
<path d="M208.497 323.486C208.459 322.819 208.621 322.157 208.963 321.584C209.305 321.011 209.812 320.555 210.416 320.273C211.021 319.991 211.697 319.897 212.355 320.004C213.014 320.111 213.625 320.412 214.111 320.87C214.596 321.329 214.932 321.922 215.076 322.573C215.22 323.225 215.165 323.904 214.919 324.524C214.672 325.144 214.245 325.676 213.693 326.05C213.14 326.425 212.488 326.625 211.821 326.624C211.394 326.648 210.966 326.585 210.564 326.438C210.162 326.292 209.795 326.064 209.483 325.77C209.172 325.477 208.924 325.123 208.755 324.73C208.585 324.337 208.498 323.913 208.497 323.486ZM213.726 323.486C213.718 323.111 213.6 322.746 213.386 322.438C213.172 322.13 212.872 321.892 212.524 321.753C212.175 321.615 211.793 321.583 211.426 321.661C211.059 321.738 210.724 321.923 210.461 322.191C210.199 322.459 210.021 322.798 209.951 323.166C209.88 323.535 209.92 323.916 210.065 324.262C210.21 324.607 210.455 324.903 210.767 325.11C211.079 325.318 211.446 325.429 211.821 325.429C212.078 325.439 212.334 325.395 212.573 325.301C212.812 325.206 213.029 325.063 213.209 324.88C213.39 324.698 213.531 324.479 213.622 324.239C213.714 323.999 213.754 323.742 213.741 323.486H213.726Z" fill="white"/>
<path d="M218.862 324.372V326.524H217.451V324.349L215.099 320.447H216.595L218.214 323.146L219.842 320.447H221.222L218.862 324.372Z" fill="white"/>
<path d="M226.459 325.398V326.524H221.747V320.447H226.374V321.573H223.15V322.892H225.973V323.971H223.15V325.383L226.459 325.398Z" fill="white"/>
<path d="M232.25 325.398V326.524H227.546V320.447H232.134V321.573H228.942V322.892H231.764V323.971H228.942V325.383L232.25 325.398Z" fill="white"/>
<g opacity="0.3">
<path opacity="0.3" d="M257.121 319.768C257.122 320.051 257.04 320.328 256.883 320.564C256.727 320.8 256.505 320.984 256.244 321.093C255.983 321.202 255.695 321.231 255.418 321.176C255.14 321.121 254.885 320.985 254.685 320.785C254.485 320.585 254.349 320.33 254.294 320.053C254.24 319.775 254.268 319.488 254.377 319.227C254.486 318.966 254.67 318.743 254.906 318.587C255.142 318.43 255.419 318.348 255.702 318.349C256.078 318.349 256.439 318.499 256.705 318.765C256.971 319.031 257.121 319.392 257.121 319.768Z" fill="black"/>
</g>
<g opacity="0.3">
<path opacity="0.3" d="M257.121 336.904C257.122 337.187 257.04 337.464 256.883 337.7C256.727 337.935 256.505 338.12 256.244 338.228C255.983 338.337 255.695 338.366 255.418 338.311C255.14 338.257 254.885 338.121 254.685 337.921C254.485 337.721 254.349 337.466 254.294 337.188C254.24 336.911 254.268 336.623 254.377 336.362C254.486 336.101 254.67 335.879 254.906 335.722C255.142 335.566 255.419 335.484 255.702 335.485C256.078 335.485 256.439 335.635 256.705 335.901C256.971 336.167 257.121 336.528 257.121 336.904Z" fill="black"/>
</g>
<g opacity="0.3">
<path opacity="0.3" d="M160.12 320.115C160.12 320.396 160.037 320.67 159.881 320.904C159.725 321.137 159.504 321.319 159.244 321.426C158.985 321.534 158.7 321.562 158.425 321.507C158.149 321.452 157.896 321.317 157.698 321.119C157.5 320.92 157.364 320.667 157.31 320.392C157.255 320.117 157.283 319.832 157.39 319.572C157.498 319.313 157.68 319.091 157.913 318.935C158.146 318.78 158.421 318.696 158.701 318.696C159.078 318.696 159.439 318.846 159.705 319.112C159.971 319.378 160.12 319.739 160.12 320.115Z" fill="black"/>
</g>
<g opacity="0.3">
<path opacity="0.3" d="M160.614 336.904C160.614 337.185 160.531 337.459 160.375 337.692C160.219 337.926 159.998 338.108 159.738 338.215C159.479 338.322 159.194 338.351 158.918 338.296C158.643 338.241 158.39 338.106 158.192 337.907C157.993 337.709 157.858 337.456 157.804 337.181C157.749 336.906 157.777 336.62 157.884 336.361C157.992 336.102 158.174 335.88 158.407 335.724C158.64 335.568 158.915 335.485 159.195 335.485C159.572 335.485 159.932 335.635 160.199 335.901C160.465 336.167 160.614 336.528 160.614 336.904Z" fill="black"/>
</g>
<g opacity="0.3">
<path opacity="0.3" d="M196.775 316.383L175.267 340.891H172.259L193.474 316.383H196.775Z" fill="white"/>
</g>
<path d="M168.874 333.226C168.824 332.455 169.008 331.686 169.4 331.021C169.793 330.355 170.376 329.822 171.075 329.492C171.774 329.162 172.556 329.05 173.319 329.17C174.083 329.289 174.792 329.636 175.357 330.164C175.921 330.692 176.313 331.377 176.483 332.131C176.653 332.885 176.593 333.673 176.309 334.392C176.026 335.111 175.534 335.728 174.895 336.164C174.257 336.6 173.502 336.833 172.73 336.835C172.235 336.869 171.739 336.801 171.273 336.634C170.806 336.468 170.378 336.208 170.016 335.869C169.655 335.531 169.367 335.121 169.17 334.666C168.973 334.212 168.872 333.721 168.874 333.226ZM174.873 333.226C174.864 332.796 174.729 332.379 174.483 332.026C174.238 331.673 173.894 331.401 173.495 331.243C173.095 331.085 172.658 331.048 172.238 331.137C171.817 331.227 171.433 331.438 171.132 331.745C170.832 332.052 170.628 332.441 170.548 332.863C170.467 333.285 170.513 333.721 170.679 334.118C170.846 334.514 171.126 334.852 171.483 335.09C171.841 335.327 172.261 335.454 172.691 335.455C172.983 335.461 173.274 335.408 173.545 335.297C173.816 335.187 174.061 335.022 174.266 334.813C174.47 334.605 174.63 334.356 174.734 334.083C174.839 333.81 174.886 333.518 174.873 333.226Z" fill="white"/>
<path d="M179.331 331.012V332.855H182.562V334.151H179.331V336.696H177.719V329.717H182.994V331.012H179.331Z" fill="white"/>
<path d="M188.354 331.035H186.117V329.717H192.194V331.035H189.966V336.696H188.354V331.035Z" fill="white"/>
<path d="M199.459 329.717V336.696H197.847V333.835H194.677V336.696H193.066V329.717H194.677V332.454H197.847V329.701L199.459 329.717Z" fill="white"/>
<path d="M206.516 335.4V336.696H201.117V329.717H206.384V331.012H202.721V332.555H205.96V333.812H202.721V335.423L206.516 335.4Z" fill="white"/>
<path d="M216.965 336.696V332.508L214.913 335.955H214.181L212.137 332.601V336.696H210.595V329.717H211.929L214.543 334.058L217.111 329.717H218.438V336.696H216.965Z" fill="white"/>
<path d="M219.695 333.226C219.645 332.453 219.83 331.683 220.224 331.016C220.618 330.35 221.204 329.817 221.905 329.488C222.606 329.159 223.39 329.049 224.155 329.172C224.919 329.295 225.629 329.645 226.192 330.177C226.755 330.709 227.144 331.398 227.31 332.155C227.475 332.911 227.409 333.7 227.12 334.419C226.831 335.137 226.332 335.752 225.689 336.183C225.045 336.614 224.287 336.841 223.512 336.835C223.021 336.863 222.529 336.791 222.067 336.622C221.605 336.454 221.182 336.192 220.825 335.854C220.467 335.516 220.182 335.109 219.988 334.657C219.794 334.205 219.694 333.718 219.695 333.226ZM225.695 333.226C225.686 332.796 225.55 332.379 225.305 332.026C225.059 331.673 224.715 331.401 224.316 331.243C223.916 331.085 223.479 331.048 223.059 331.137C222.639 331.227 222.254 331.438 221.953 331.745C221.653 332.052 221.45 332.441 221.369 332.863C221.288 333.285 221.334 333.721 221.501 334.117C221.667 334.514 221.947 334.852 222.305 335.09C222.663 335.327 223.083 335.454 223.512 335.454C223.805 335.462 224.096 335.409 224.367 335.3C224.639 335.19 224.885 335.025 225.089 334.816C225.294 334.607 225.454 334.358 225.558 334.084C225.662 333.81 225.709 333.518 225.695 333.226Z" fill="white"/>
<path d="M234.942 329.717V336.696H233.615L230.137 332.454V336.688H228.541V329.709H229.883L233.345 333.951V329.709L234.942 329.717Z" fill="white"/>
<path d="M238.042 331.035H235.805V329.717H241.882V331.035H239.653V336.696H238.042V331.035Z" fill="white"/>
<path d="M249.147 329.717V336.696H247.535V333.835H244.365V336.696H242.754V329.717H244.365V332.454H247.535V329.701L249.147 329.717Z" fill="white"/>
<path d="M244.172 313.699L244.489 317.879C244.527 318.424 244.756 318.937 245.136 319.329C245.589 319.814 246.203 320.118 246.864 320.185L249.949 320.447L246.632 320.779C246.392 320.801 246.162 320.889 245.969 321.033L245.746 321.211C245.115 321.761 244.722 322.535 244.65 323.37L244.419 325.845L244.165 323.532C244.113 323.035 243.946 322.558 243.679 322.136C243.411 321.715 243.05 321.361 242.622 321.103C242.452 321.005 242.263 320.947 242.067 320.933L238.388 320.64L241.566 320.347C242.191 320.298 242.777 320.024 243.216 319.576L243.463 319.275C243.741 318.912 243.902 318.474 243.926 318.018L244.172 313.699Z" fill="white"/>
</svg>
