<svg  viewBox="0 0 418 420" fill="none" xmlns="http://www.w3.org/2000/svg">
<path fill-rule="evenodd" clip-rule="evenodd" d="M143.439 347.569C109.865 341.938 65.5726 351.353 48.1561 319.531C30.6404 287.527 60.7225 243.916 65.159 204.54C69.1383 169.223 54.6175 131.671 72.7638 101.129C91.1449 70.1919 125.891 57.8779 157.168 49.682C185.66 42.2159 212.221 52.1238 240.062 57.2896C272.55 63.3176 308.863 58.9355 333.25 82.3536C360.826 108.834 380.036 148.43 379.623 191.306C379.201 235.04 360.728 280.803 331.036 312.006C303.518 340.926 264.564 343.044 228.785 349.826C199.499 355.378 171.972 352.355 143.439 347.569Z" fill="#C5CBF1"/>
<path d="M264.315 177.93C264.339 176.909 264.083 175.9 263.573 175.014C263.063 174.129 262.32 173.4 261.425 172.908C260.529 172.416 259.516 172.179 258.495 172.224C257.474 172.268 256.485 172.592 255.636 173.161C254.035 174.164 252.738 175.586 251.885 177.272C249.531 181.593 249.25 186.697 248.758 191.59C248.32 196.458 246.866 201.18 244.489 205.451L262.479 184.018C263.706 182.227 264.347 180.101 264.315 177.93Z" fill="#FFEEF2"/>
<g opacity="0.2">
<path opacity="0.2" d="M264.315 177.93C264.339 176.909 264.083 175.9 263.573 175.014C263.063 174.129 262.32 173.4 261.425 172.908C260.529 172.416 259.516 172.179 258.495 172.224C257.474 172.268 256.485 172.592 255.636 173.161C254.035 174.164 252.738 175.586 251.885 177.272C249.531 181.593 249.25 186.697 248.758 191.59C248.32 196.458 246.866 201.18 244.489 205.451L262.479 184.018C263.706 182.227 264.347 180.101 264.315 177.93Z" fill="black"/>
</g>
<path d="M243.707 166.221C244.77 167.1 279.801 207.313 279.801 207.313L260.854 222.36L236.785 192.363L243.707 166.221Z" fill="#FFBE9D"/>
<path d="M139.318 179.81C138.387 180.847 110.085 218.46 110.085 218.46L127.802 237.662L149.542 204.836L139.318 179.81Z" fill="#FFBE9D"/>
<path d="M139.634 204.731C141.699 205.679 142.867 207.884 143.649 210.001C144.43 212.118 145.01 214.393 146.477 216.15C147.944 217.907 150.685 218.846 152.529 217.511C154.374 216.176 154.374 213.602 153.583 211.591C152.534 209.179 150.731 207.173 148.445 205.872C146.164 204.591 143.699 203.669 141.136 203.141" fill="#FFEEF2"/>
<g opacity="0.2">
<path opacity="0.2" d="M139.634 204.731C141.699 205.679 142.867 207.884 143.649 210.001C144.43 212.118 145.01 214.393 146.477 216.15C147.944 217.907 150.685 218.846 152.529 217.511C154.374 216.176 154.374 213.602 153.583 211.591C152.534 209.179 150.731 207.173 148.445 205.872C146.164 204.591 143.699 203.669 141.136 203.141" fill="black"/>
</g>
<path d="M304.317 280.791C303.683 280.619 303.037 280.496 302.384 280.422L231.779 250.812H161.594L92.3762 278.156C85.3489 280.493 75.3264 294.205 81.0096 310.587C81.1677 311.044 81.3346 311.465 81.5015 311.913C86.0517 323.332 98.6743 329.235 110.489 326.073C120.055 323.517 133.793 319.775 147.935 315.901H149.525L193.559 303.41C200.455 305.316 214.948 309.313 231.058 313.74C250.638 319.125 272.598 325.159 286.152 328.752C298.001 331.923 310.633 325.985 315.139 314.592C315.315 314.162 315.473 313.714 315.631 313.266C321.367 296.84 311.344 283.128 304.317 280.791Z" fill="#455A64"/>
<path d="M193.015 303.515L193.261 303.428L193.972 303.208L196.765 302.391L207.306 299.387L207.183 299.598L200.156 273.773L200.393 273.957H193.217C190.731 273.957 188.183 274.186 185.583 274.291L169.333 275.169C149.253 276.338 131.105 277.699 117.973 278.762L102.381 280.027L98.1472 280.37L97.0492 280.449C96.9237 280.462 96.797 280.462 96.6715 280.449C96.7916 280.412 96.9153 280.388 97.0404 280.378L98.1384 280.255L102.355 279.799C106.026 279.43 111.332 278.92 117.894 278.34C131.017 277.172 149.174 275.749 169.254 274.581L185.513 273.702C188.148 273.597 190.669 273.413 193.155 273.386H200.604V273.579C203.336 283.857 205.699 292.755 207.473 299.448L207.517 299.607L207.359 299.65L196.818 302.505L193.998 303.234L193.269 303.41C193.192 303.462 193.106 303.498 193.015 303.515Z" fill="#263238"/>
<path d="M170.15 274.616C170.071 274.739 168.121 273.624 166.004 271.858C163.887 270.092 162.437 268.344 162.543 268.274C162.648 268.204 164.3 269.68 166.364 271.428C168.428 273.176 170.238 274.476 170.15 274.616Z" fill="#263238"/>
<path d="M295.99 283.347C295.668 283.371 295.345 283.371 295.024 283.347L292.257 283.18L282.085 282.487L248.556 280.203L214.975 278.174L204.794 277.576L202.001 277.392C201.68 277.384 201.36 277.352 201.043 277.295C201.365 277.265 201.688 277.265 202.01 277.295L204.785 277.383L214.966 277.805C223.574 278.2 235.45 278.832 248.565 279.676C261.679 280.519 273.538 281.389 282.12 282.091L292.283 282.97L295.041 283.233C295.36 283.241 295.678 283.28 295.99 283.347Z" fill="#263238"/>
<path d="M194.183 281.995C194.086 281.889 195.246 280.827 197.082 280.37C198.918 279.913 200.446 280.264 200.402 280.37C200.358 280.475 198.926 280.431 197.222 280.879C195.518 281.327 194.28 282.127 194.183 281.995Z" fill="#263238"/>
<path d="M196.098 286.457C196.098 286.299 197.363 286.027 198.961 285.833C200.56 285.64 201.878 285.614 201.895 285.763C201.913 285.912 200.63 286.202 199.032 286.387C197.433 286.571 196.115 286.606 196.098 286.457Z" fill="#263238"/>
<path d="M196.959 291.64C196.959 291.473 198.531 291.429 200.358 290.884C202.185 290.34 203.529 289.567 203.626 289.707C202.783 290.589 201.698 291.201 200.507 291.464C198.584 291.991 196.941 291.78 196.959 291.64Z" fill="#263238"/>
<path d="M198.68 297.209C198.68 297.042 200.183 296.928 201.887 296.269C203.591 295.61 204.82 294.74 204.917 294.872C205.014 295.004 203.907 296.128 202.089 296.796C200.27 297.464 198.672 297.358 198.68 297.209Z" fill="#263238"/>
<path d="M230.856 271.937C230.97 272.051 229.793 273.421 228.485 275.205C227.176 276.988 226.192 278.507 226.051 278.428C225.911 278.349 226.684 276.671 228.028 274.871C229.372 273.07 230.751 271.832 230.856 271.937Z" fill="#263238"/>
<path d="M200.648 273.641L183.827 271.094C183.827 271.094 182.298 267.132 179.707 266.93C177.116 266.728 174.718 269.566 172.829 269.416C170.94 269.267 148.348 261.642 147.057 271.876L156.456 275.749" fill="#FFBE9D"/>
<path d="M255.838 282.908L205.769 293.642L201.271 276.452L219.797 275.574C219.797 275.574 222.019 271.946 224.602 272.218C227.184 272.491 228.994 275.732 230.926 275.89C232.859 276.048 256.4 272.614 255.838 282.908Z" fill="#FFBE9D"/>
<path d="M160.716 252.551C160.716 252.551 160.575 252.63 160.285 252.761L158.994 253.359C157.861 253.886 156.175 254.632 153.996 255.572C149.604 257.452 143.288 260.043 135.409 263.179C127.53 266.315 118.14 269.987 107.81 274.344C102.645 276.513 97.1108 278.569 91.8404 281.599L90.8566 282.188C90.7935 282.222 90.7346 282.263 90.6809 282.311V282.249C90.8208 282.322 90.9725 282.37 91.1289 282.39C91.8787 282.508 92.6361 282.573 93.3952 282.583C94.9412 282.627 96.4959 282.583 98.0683 282.583C101.213 282.504 104.41 282.363 107.634 282.197C120.555 281.511 132.844 280.589 144.017 279.737L173.707 277.374L193.717 275.705L199.164 275.266L200.578 275.161C200.894 275.161 201.061 275.161 201.061 275.161C201.061 275.161 200.894 275.161 200.578 275.231L199.172 275.38L193.735 275.907L173.734 277.717C165.292 278.455 155.235 279.307 144.053 280.185C132.871 281.063 120.582 281.995 107.66 282.68C104.428 282.847 101.231 282.987 98.0858 283.057C96.5047 283.057 94.9412 283.11 93.3776 283.057C92.5951 283.049 91.8143 282.985 91.041 282.864C90.8135 282.829 90.5953 282.749 90.3998 282.627C90.3542 282.592 90.3171 282.546 90.2912 282.495C90.2654 282.443 90.2515 282.386 90.2505 282.328C90.2537 282.227 90.2944 282.13 90.3647 282.056C90.4529 281.975 90.5502 281.904 90.6546 281.845L91.6384 281.257C96.9615 278.2 102.513 276.162 107.678 274.001C118.017 269.662 127.433 266.025 135.321 262.924C143.209 259.824 149.587 257.276 153.952 255.449L158.985 253.324L160.285 252.77L160.716 252.551Z" fill="white"/>
<path d="M229.969 252.551C230.082 252.573 230.191 252.612 230.294 252.665L231.234 253.06L234.818 254.606L247.994 260.219L291.659 278.455C295.869 280.076 299.976 281.954 303.957 284.076C304.44 284.34 304.914 284.612 305.371 284.893C305.618 285.029 305.856 285.181 306.082 285.35C306.145 285.41 306.204 285.475 306.258 285.543C306.294 285.593 306.32 285.65 306.334 285.711C306.347 285.771 306.348 285.834 306.337 285.895C306.337 286.053 306.232 286.105 306.153 286.193C306.083 286.242 306.009 286.286 305.933 286.325C304.882 286.605 303.797 286.738 302.709 286.72C300.601 286.764 298.546 286.72 296.561 286.606C288.558 286.22 281.373 285.561 275.338 285.007C269.304 284.454 264.437 283.918 261.073 283.549L257.199 283.101L256.189 282.97C256.076 282.959 255.965 282.939 255.855 282.908H256.198L257.208 282.987L261.091 283.356L275.373 284.665C281.408 285.174 288.593 285.807 296.587 286.167C298.581 286.246 300.628 286.316 302.736 286.264C303.766 286.28 304.794 286.159 305.793 285.903L305.915 285.833C305.915 285.833 305.968 285.789 305.915 285.833C305.863 285.877 305.915 285.772 305.81 285.701C305.705 285.631 305.397 285.429 305.16 285.289C304.703 285.016 304.238 284.744 303.763 284.48C299.795 282.38 295.706 280.514 291.518 278.894C274.46 271.779 259.018 265.314 247.897 260.535C242.337 258.146 237.848 256.143 234.721 254.782L231.207 253.165L230.285 252.726L229.969 252.551Z" fill="white"/>
<path d="M192.979 151.78C195.029 151.924 197.086 151.628 199.013 150.914C200.939 150.2 202.692 149.084 204.153 147.639C205.614 146.195 206.751 144.455 207.487 142.537C208.223 140.618 208.542 138.565 208.422 136.514C208.211 132.877 208.026 130.101 208.026 130.101C208.026 130.101 219.49 128.345 219.63 116.864C219.771 105.383 217.785 79.0926 217.785 79.0926C211.272 76.297 204.13 75.2911 197.098 76.1791C190.065 77.067 183.397 79.8165 177.783 84.1435L176.079 85.4523L179.593 138.314C179.825 141.796 181.308 145.076 183.768 147.551C186.228 150.025 189.499 151.528 192.979 151.78Z" fill="#FFBE9D"/>
<path d="M208.053 129.961C202.765 130.059 197.567 128.582 193.12 125.718C193.12 125.718 196.634 133.966 208.053 132.93V129.961Z" fill="#EB996E"/>
<path d="M177.493 97.3195C177.3 97.2317 169.588 94.9917 169.877 102.818C170.167 110.645 177.932 108.783 177.941 108.563C177.95 108.343 177.493 97.3195 177.493 97.3195Z" fill="#FFBE9D"/>
<path d="M175.455 105.691C175.455 105.691 175.324 105.787 175.095 105.902C174.775 106.049 174.41 106.068 174.076 105.954C173.198 105.673 172.495 104.382 172.416 102.976C172.376 102.305 172.484 101.634 172.732 101.009C172.8 100.763 172.925 100.536 173.097 100.348C173.27 100.16 173.485 100.016 173.725 99.9284C173.881 99.882 174.048 99.8918 174.197 99.956C174.346 100.02 174.468 100.135 174.542 100.28C174.656 100.491 174.612 100.649 174.656 100.666C174.7 100.684 174.814 100.526 174.744 100.209C174.699 100.014 174.583 99.842 174.419 99.7264C174.311 99.6479 174.189 99.5919 174.059 99.5617C173.929 99.5315 173.795 99.5278 173.664 99.5507C173.344 99.623 173.048 99.7766 172.805 99.9966C172.562 100.217 172.379 100.496 172.276 100.807C171.962 101.494 171.824 102.249 171.872 103.003C171.968 104.584 172.829 106.033 173.971 106.323C174.182 106.38 174.404 106.387 174.619 106.344C174.834 106.301 175.036 106.21 175.209 106.077C175.447 105.875 175.482 105.699 175.455 105.691Z" fill="#EB996E"/>
<path d="M192.004 96.1161C192.207 95.8965 193.445 96.8188 195.211 96.81C196.976 96.8012 198.259 95.9316 198.452 96.1424C198.645 96.3533 198.338 96.6256 197.776 97.0208C197.004 97.5601 196.081 97.84 195.14 97.8202C194.226 97.826 193.334 97.5398 192.593 97.0033C192.092 96.5904 191.908 96.2039 192.004 96.1161Z" fill="#263238"/>
<path d="M209.309 95.7823C209.511 95.5715 210.749 96.485 212.515 96.485C214.281 96.485 215.563 95.6066 215.756 95.8175C215.844 95.9053 215.642 96.2918 215.08 96.6959C214.305 97.2271 213.385 97.5062 212.445 97.4952C211.53 97.4918 210.64 97.2032 209.897 96.6695C209.397 96.2654 209.212 95.8789 209.309 95.7823Z" fill="#263238"/>
<path d="M204.698 108.633C205.626 108.34 206.588 108.166 207.561 108.115C208.009 108.071 208.439 107.983 208.51 107.676C208.548 107.211 208.444 106.745 208.211 106.341L206.885 102.915C205.04 98.0486 203.696 94.0343 203.898 93.9641C204.1 93.8938 205.752 97.7851 207.596 102.66L208.87 106.104C209.153 106.643 209.234 107.266 209.098 107.86C209.035 108.02 208.936 108.163 208.808 108.278C208.68 108.392 208.526 108.475 208.36 108.519C208.112 108.589 207.855 108.624 207.596 108.625C206.634 108.747 205.66 108.749 204.698 108.633Z" fill="#263238"/>
<path d="M199.524 109.846C199.805 109.846 199.814 111.743 201.447 113.096C203.081 114.448 205.119 114.246 205.128 114.51C205.128 114.633 204.68 114.888 203.819 114.905C202.699 114.926 201.609 114.546 200.745 113.834C199.909 113.157 199.373 112.179 199.251 111.11C199.181 110.311 199.366 109.837 199.524 109.846Z" fill="#263238"/>
<path d="M198.768 90.4679C198.592 90.951 196.836 90.7227 194.771 90.9686C192.707 91.2146 191.038 91.7855 190.757 91.3551C190.643 91.1443 190.933 90.6963 191.635 90.2308C192.542 89.6578 193.567 89.2998 194.633 89.1841C195.698 89.0684 196.776 89.1981 197.784 89.5632C198.487 89.8706 198.838 90.2395 198.768 90.4679Z" fill="#263238"/>
<path d="M214.966 92.1547C214.659 92.55 213.446 92.1547 211.988 92.1547C210.53 92.1547 209.291 92.4182 209.01 92.0054C208.887 91.7945 209.081 91.3993 209.617 91.0215C210.341 90.5656 211.186 90.3363 212.042 90.3629C212.898 90.3895 213.726 90.6708 214.421 91.1709C214.94 91.5398 215.107 91.9527 214.966 92.1547Z" fill="#263238"/>
<path d="M223.364 71.8986C223.444 71.1881 223.342 70.4689 223.069 69.8083C222.796 69.1477 222.359 68.5673 221.8 68.1214C221.224 67.6992 220.517 67.4964 219.805 67.5496C219.093 67.6027 218.424 67.9083 217.917 68.4113C218.023 67.9327 218.027 67.4373 217.929 66.9571C217.831 66.4769 217.634 66.0224 217.35 65.6228C217.067 65.2233 216.703 64.8875 216.281 64.637C215.86 64.3866 215.391 64.2271 214.905 64.1686C213.042 64.0544 211.444 65.4599 209.634 65.9254C207.831 66.3033 205.953 66.0844 204.285 65.3018C202.589 64.6254 201.008 63.6767 199.287 63.0531C195.66 61.7293 191.658 61.8899 188.15 63.5002C184.642 65.1104 181.911 68.0401 180.55 71.6526C178.047 70.8708 175.201 72.1445 173.655 74.2878C172.193 76.5001 171.61 79.1786 172.021 81.7982C172.268 83.5538 172.707 85.2769 173.33 86.9368C173.33 87.0861 173.33 87.2355 173.33 87.376C173.444 93.6742 174.164 101.079 176.843 101.114C181.534 101.184 180.418 92.3302 180.418 92.3302C186.163 90.1078 184.02 81.4907 185.461 80.1907C186.901 78.8907 189.905 75.7987 201.939 82.0002C206.612 84.3894 212.823 84.3104 216.213 83.5374L216.512 83.4847H216.582C216.619 83.4755 216.655 83.4607 216.688 83.4408C217.778 83.1692 218.818 82.7275 219.771 82.132C220.898 81.4823 221.79 80.492 222.318 79.3035C222.565 78.7061 222.635 78.0501 222.518 77.4143C222.401 76.7786 222.103 76.1901 221.659 75.7196C222.586 74.6379 223.178 73.3104 223.364 71.8986Z" fill="#263238"/>
<path d="M211.927 56.9131C211.927 56.9131 212.015 57.0185 212.146 57.2293C212.334 57.5367 212.487 57.8636 212.603 58.2043C213.044 59.4718 213.129 60.8359 212.849 62.1484C212.471 64.1282 211.337 65.883 209.687 67.0411C207.772 68.3147 205.145 68.5607 202.66 68.183C200.174 67.8053 197.828 66.9884 195.694 66.5492C193.829 66.0727 191.88 66.0246 189.993 66.4086C188.725 66.6921 187.551 67.2971 186.585 68.1654C185.917 68.7979 185.706 69.2546 185.627 69.2283C185.548 69.2019 185.627 69.1053 185.794 68.8857C185.983 68.5688 186.207 68.2741 186.462 68.0073C187.417 67.0665 188.616 66.4096 189.923 66.11C191.848 65.6481 193.856 65.6481 195.782 66.11C197.951 66.5316 200.244 67.3485 202.721 67.6999C205.024 68.1758 207.422 67.8079 209.476 66.6633C211.048 65.5801 212.145 63.9362 212.542 62.0693C212.837 60.8084 212.804 59.4927 212.445 58.2483C212.164 57.3699 211.883 56.9131 211.927 56.9131Z" fill="#455A64"/>
<path d="M208.958 59.0476C209.193 59.2757 209.379 59.5489 209.506 59.8508C209.632 60.1526 209.697 60.477 209.696 60.8044C209.754 61.5175 209.621 62.2334 209.309 62.8774C208.921 63.6629 208.31 64.3167 207.552 64.7572C206.797 65.194 205.947 65.4384 205.075 65.4687C204.373 65.4941 203.672 65.3991 203.002 65.1876C202.375 65.0413 201.795 64.7392 201.316 64.3092C201.316 64.2477 201.983 64.5991 203.072 64.8714C204.498 65.2484 206.014 65.0629 207.306 64.3532C207.994 63.9581 208.56 63.3805 208.94 62.6842C209.237 62.1059 209.388 61.4634 209.379 60.8132C209.328 60.2068 209.186 59.6116 208.958 59.0476Z" fill="#263238"/>
<path d="M249.074 247.632C249.206 249.353 248.822 251.074 247.97 252.576C247.119 254.078 245.84 255.293 244.296 256.064L231.779 250.794L216.345 251.83L222.432 235.299C222.432 235.299 239.772 237.425 242.223 239.392C244.674 241.36 249.268 245.032 249.074 247.632Z" fill="#FFEEF2"/>
<g opacity="0.4">
<path opacity="0.4" d="M249.074 247.632C249.206 249.353 248.822 251.074 247.97 252.576C247.119 254.078 245.84 255.293 244.296 256.064L231.779 250.794L216.345 251.83L222.432 235.299C222.432 235.299 239.772 237.425 242.223 239.392C244.674 241.36 249.268 245.032 249.074 247.632Z" fill="black"/>
</g>
<path d="M249.074 247.632C249.206 249.353 248.822 251.074 247.97 252.576C247.119 254.078 245.84 255.293 244.296 256.064L231.779 250.794L216.345 251.83L222.432 235.299C222.432 235.299 239.772 237.425 242.223 239.392C244.674 241.36 249.268 245.032 249.074 247.632Z" fill="#FFEEF2"/>
<g opacity="0.4">
<path opacity="0.4" d="M249.074 247.632C249.206 249.353 248.822 251.074 247.97 252.576C247.119 254.078 245.84 255.293 244.296 256.064L231.779 250.794L216.345 251.83L222.432 235.299C222.432 235.299 239.772 237.425 242.223 239.392C244.674 241.36 249.268 245.032 249.074 247.632Z" fill="black"/>
</g>
<path d="M262.075 173.354L260.854 172.265L234.37 151.526C226.192 142.838 220.245 140.221 208.747 138.859C206.867 138.639 209.827 139 208.747 138.859C199.963 141.573 188.113 141.837 179.285 139.114C175.201 139.281 171.81 140.546 168.332 141.213C157.369 143.313 151.51 151.051 147.294 158.667L126.089 194.233L126.968 195.639C129.931 200.216 134.34 203.67 139.494 205.451L140.917 206.162C145.908 208.537 150.213 212.143 153.425 216.642L162.763 200.33L160.127 226.471L158.318 252.147C170.769 255.703 183.688 257.35 196.634 257.03C215.08 257.118 240.782 234.64 249.074 247.632C249.189 240.973 240.809 231.82 238.481 227.428C231.269 213.699 232.622 208.147 232.104 197.844L244.489 205.442L246.712 201.094C248.591 197.422 252.175 189.244 253.51 182.876C253.51 182.885 254.969 170.991 262.075 173.354Z" fill="#FFEEF2"/>
<path d="M162.815 173.987C162.893 174.338 162.926 174.698 162.912 175.058C162.912 175.752 162.965 176.754 162.982 177.992C162.982 180.46 163.035 183.877 162.982 187.655C162.929 191.432 162.921 194.849 162.859 197.317C162.859 198.555 162.798 199.557 162.763 200.251C162.771 200.611 162.735 200.971 162.657 201.322C162.58 200.971 162.547 200.611 162.56 200.251C162.56 199.557 162.508 198.555 162.49 197.317C162.49 194.849 162.446 191.432 162.49 187.655C162.534 183.877 162.552 180.469 162.604 177.992C162.604 176.762 162.666 175.761 162.701 175.067C162.694 174.704 162.733 174.341 162.815 173.987Z" fill="#263238"/>
<path d="M233.623 215.447C233.504 214.901 233.431 214.345 233.403 213.787C233.298 212.627 233.166 211.099 232.999 209.246C232.674 205.416 232.27 200.11 231.857 194.251C231.445 188.392 231.093 183.087 230.874 179.248C230.768 177.395 230.689 175.858 230.628 174.698C230.584 174.14 230.584 173.579 230.628 173.02C230.746 173.567 230.82 174.122 230.847 174.68C230.953 175.84 231.093 177.368 231.251 179.222C231.576 183.06 231.98 188.357 232.393 194.216C232.806 200.075 233.158 205.381 233.386 209.219C233.483 211.073 233.562 212.61 233.623 213.778C233.667 214.334 233.667 214.892 233.623 215.447Z" fill="#263238"/>
<g opacity="0.2">
<path opacity="0.2" d="M175.912 140.028C181.565 147.957 188.853 154.583 197.284 159.458C200.358 161.215 203.67 162.796 207.21 163.086C213.315 163.577 219.068 160.248 223.803 156.366C225.674 154.837 227.527 153.098 228.318 150.814C229.108 148.53 228.493 145.544 226.359 144.455C225.597 144.116 224.768 143.954 223.934 143.982C223.1 144.009 222.284 144.225 221.545 144.613C220.073 145.388 218.679 146.303 217.382 147.345C214.322 149.498 210.862 151.016 207.206 151.808C203.55 152.6 199.771 152.65 196.095 151.956C192.419 151.261 188.92 149.836 185.804 147.764C182.689 145.693 180.021 143.017 177.959 139.896" fill="black"/>
</g>
<path d="M212.542 203.184C212.447 201.942 212.259 200.709 211.979 199.495C211.62 198.082 211.049 196.731 210.284 195.49C209.284 193.843 207.981 192.401 206.446 191.238C204.449 189.723 202.102 188.735 199.623 188.365C197.144 187.995 194.612 188.255 192.259 189.121C190.9 189.602 189.623 190.29 188.473 191.159C187.256 192.043 186.188 193.116 185.311 194.339C183.428 196.902 182.413 199.999 182.413 203.18C182.413 206.36 183.428 209.458 185.311 212.021C186.188 213.243 187.256 214.317 188.473 215.201C189.623 216.07 190.9 216.758 192.259 217.239C194.604 218.096 197.127 218.351 199.596 217.981C202.065 217.611 204.402 216.628 206.393 215.122C207.929 213.959 209.231 212.517 210.231 210.87C210.996 209.629 211.568 208.278 211.927 206.865C212.205 205.654 212.393 204.423 212.489 203.184C212.499 203.266 212.499 203.349 212.489 203.43C212.489 203.615 212.489 203.852 212.489 204.151C212.49 204.545 212.458 204.939 212.392 205.328C212.335 205.861 212.238 206.39 212.102 206.909C211.771 208.348 211.217 209.726 210.46 210.993C209.359 212.872 207.869 214.493 206.091 215.749C204.312 217.005 202.286 217.866 200.147 218.275C197.445 218.791 194.653 218.57 192.066 217.634C190.666 217.146 189.35 216.444 188.166 215.552C186.908 214.649 185.807 213.545 184.907 212.285C182.957 209.65 181.904 206.458 181.904 203.18C181.904 199.902 182.957 196.71 184.907 194.075C185.371 193.457 185.876 192.87 186.418 192.319C186.972 191.788 187.559 191.292 188.175 190.834C189.36 189.944 190.676 189.242 192.075 188.752C194.663 187.821 197.453 187.6 200.156 188.111C202.295 188.52 204.321 189.382 206.099 190.638C207.878 191.893 209.368 193.515 210.469 195.393C211.226 196.66 211.78 198.039 212.111 199.478C212.247 199.997 212.344 200.525 212.401 201.059C212.467 201.448 212.499 201.841 212.498 202.236C212.498 202.534 212.498 202.772 212.498 202.965C212.52 203.036 212.535 203.11 212.542 203.184Z" fill="white"/>
<path d="M196.853 218.346C196.722 218.346 196.625 211.556 196.625 203.176C196.625 194.796 196.722 188.015 196.853 188.015C196.985 188.015 197.082 194.796 197.082 203.176C197.082 211.556 196.976 218.346 196.853 218.346Z" fill="white"/>
<path d="M209.353 212.39C208.993 212.188 208.651 211.952 208.334 211.687L205.699 209.649C203.45 207.893 200.376 205.477 197.003 202.772L196.73 202.561H197.029C193.937 205.468 191.126 208.077 189.079 209.939L186.638 212.135C186.353 212.418 186.041 212.671 185.706 212.891C185.946 212.572 186.217 212.278 186.515 212.012L188.825 209.755C190.81 207.831 193.586 205.178 196.73 202.271L196.871 202.13L197.029 202.253L197.293 202.473C200.674 205.178 203.714 207.647 205.91 209.447C206.937 210.326 207.807 211.037 208.483 211.6C208.796 211.837 209.087 212.101 209.353 212.39Z" fill="white"/>
<g opacity="0.2">
<path opacity="0.2" d="M184.336 243.758C190.789 244.896 197.431 244.235 203.533 241.848C209.635 239.46 214.961 235.437 218.927 230.222C220.192 228.526 221.352 226.445 220.825 224.398C220.298 222.351 217.944 220.928 215.739 220.981C213.519 221.172 211.434 222.125 209.836 223.678C205.813 227.191 203.511 232.365 199.497 235.905C195.868 239.083 191.138 240.714 186.321 240.446C185.585 240.392 184.846 240.421 184.116 240.534C183.681 240.598 183.28 240.806 182.976 241.124C182.672 241.443 182.483 241.853 182.439 242.291C182.439 243.169 183.124 243.538 184.327 243.767" fill="black"/>
</g>
<g opacity="0.2">
<path opacity="0.2" d="M231.005 181.857L232.095 197.853L244.489 205.442L247.08 200.62L231.005 181.857Z" fill="black"/>
</g>
<path d="M262.312 173.609C261.829 173.456 261.331 173.359 260.827 173.319C259.446 173.308 258.11 173.808 257.076 174.724C255.593 176.146 254.574 177.983 254.151 179.995C253.545 182.235 252.966 184.756 252.157 187.338C250.809 191.755 249.154 196.073 247.203 200.259C246.457 201.867 245.798 203.141 245.332 204.01C245.113 204.475 244.851 204.919 244.55 205.337C244.728 204.855 244.937 204.386 245.174 203.931C245.587 203.053 246.202 201.744 246.931 200.128C248.786 195.919 250.391 191.604 251.736 187.206C252.544 184.633 253.124 182.147 253.765 179.872C254.227 177.8 255.319 175.922 256.892 174.496C257.994 173.564 259.412 173.089 260.854 173.169C261.241 173.195 261.622 173.287 261.978 173.442C262.096 173.484 262.208 173.54 262.312 173.609Z" fill="#263238"/>
<path d="M153.416 216.642C153.103 216.295 152.81 215.932 152.538 215.552C151.733 214.557 150.877 213.604 149.973 212.698C148.637 211.357 147.148 210.178 145.537 209.184C143.728 208.042 141.611 207.006 139.388 205.881C137.293 204.834 135.263 203.661 133.31 202.368C131.71 201.299 130.237 200.052 128.918 198.652C128.037 197.703 127.276 196.65 126.651 195.516C126.478 195.209 126.322 194.893 126.186 194.567C126.089 194.348 126.045 194.234 126.063 194.225C126.929 195.741 127.967 197.153 129.155 198.432C130.486 199.781 131.959 200.982 133.547 202.016C135.498 203.279 137.519 204.431 139.599 205.468C141.804 206.593 143.938 207.647 145.748 208.824C147.371 209.852 148.858 211.079 150.175 212.478C151.069 213.409 151.897 214.401 152.652 215.447C152.916 215.816 153.118 216.106 153.241 216.325C153.312 216.423 153.371 216.529 153.416 216.642Z" fill="#263238"/>
<path d="M223.636 221.956C223.608 222.129 223.557 222.297 223.486 222.457C223.355 222.782 223.205 223.274 222.924 223.871C222.191 225.584 221.309 227.23 220.289 228.79C216.947 234.002 212.29 238.24 206.787 241.079C201.285 243.918 195.132 245.257 188.948 244.961C187.086 244.882 185.235 244.644 183.414 244.25C182.773 244.127 182.281 243.969 181.947 243.89C181.772 243.852 181.601 243.796 181.437 243.723C181.616 243.725 181.793 243.752 181.964 243.802C182.307 243.855 182.843 243.986 183.449 244.083C185.269 244.4 187.11 244.585 188.956 244.636C195.072 244.845 201.138 243.481 206.576 240.676C212.014 237.871 216.642 233.718 220.017 228.614C221.049 227.08 221.965 225.471 222.757 223.801C223.056 223.212 223.232 222.738 223.39 222.422C223.456 222.259 223.538 222.103 223.636 221.956Z" fill="#263238"/>
<g opacity="0.2">
<path opacity="0.2" d="M154.198 214.797C155.214 202.01 158.118 189.445 162.815 177.509V200.242L154.198 214.797Z" fill="black"/>
</g>
<path d="M175.464 139.571C179.312 147.819 189.519 152.501 198.426 154.222C202.917 155.049 207.539 154.817 211.925 153.547C216.312 152.277 220.342 150.003 223.697 146.905C229.319 141.635 232.631 134.318 237.866 128.652C242.413 123.856 248.193 120.403 254.571 118.673C260.95 116.942 267.682 117 274.03 118.84L274.724 106.367C270.455 103.6 259.466 102.599 254.441 103.354C244.43 104.908 235.382 110.204 229.126 118.173C223.609 125.27 220.342 134.397 213.042 139.615C207.772 143.383 201.193 143.409 194.789 142.329C188.386 141.248 184.064 135.389 179.118 131.182L175.464 139.571Z" fill="#263238"/>
<path d="M179.048 131.191C180.72 133.315 182.795 135.089 185.153 136.411C187.512 137.733 190.107 138.577 192.792 138.896C195.477 139.214 198.198 139 200.8 138.265C203.402 137.531 205.834 136.291 207.956 134.616C209.098 133.738 210.592 132.622 211.848 133.299C212.849 133.826 213.095 135.117 213.227 136.233C213.534 138.815 213.78 141.67 212.26 143.778C210.741 145.886 208.15 146.51 205.69 146.932C199.857 147.898 193.665 147.81 188.254 145.43C182.843 143.049 179.514 137.094 179.048 131.191Z" fill="#263238"/>
<path d="M215.554 137.506C215.472 137.627 215.375 137.736 215.265 137.831C215.062 138.025 214.781 138.332 214.386 138.71C213.234 139.702 211.976 140.565 210.635 141.283C208.641 142.353 206.488 143.094 204.258 143.479C201.52 143.957 198.713 143.87 196.01 143.225C193.333 142.509 190.781 141.392 188.438 139.913C187.349 139.263 186.33 138.639 185.381 138.016C184.508 137.431 183.674 136.788 182.887 136.092C181.732 135.101 180.718 133.958 179.874 132.693C179.648 132.347 179.445 131.986 179.268 131.612C179.145 131.357 179.092 131.217 179.109 131.208C179.127 131.199 179.408 131.726 179.988 132.587C180.875 133.798 181.907 134.896 183.062 135.855C183.86 136.515 184.692 137.131 185.557 137.7C186.497 138.297 187.533 138.912 188.623 139.553C190.938 140.985 193.451 142.071 196.08 142.777C198.725 143.411 201.469 143.509 204.153 143.067C206.347 142.705 208.471 142.005 210.451 140.994C211.791 140.314 213.059 139.502 214.237 138.569C214.657 138.192 215.097 137.837 215.554 137.506Z" fill="#455A64"/>
<path d="M230.654 137.577C228.891 136.806 227.178 135.925 225.524 134.941C223.795 134.098 222.12 133.147 220.509 132.095C222.342 132.733 224.107 133.551 225.779 134.537C227.497 135.394 229.129 136.412 230.654 137.577Z" fill="#455A64"/>
<path d="M236.777 129.601C234.836 128.785 232.954 127.834 231.146 126.755C229.268 125.8 227.46 124.714 225.735 123.505C227.68 124.312 229.562 125.263 231.366 126.351C233.246 127.302 235.054 128.388 236.777 129.601Z" fill="#455A64"/>
<path d="M242.697 122.995C242.165 122.63 241.676 122.205 241.239 121.73L237.875 118.533L234.502 115.362C234.006 114.951 233.555 114.489 233.158 113.983C233.718 114.299 234.239 114.68 234.712 115.116C235.591 115.871 236.882 116.952 238.226 118.199C239.57 119.446 240.703 120.623 241.502 121.502C241.961 121.948 242.362 122.45 242.697 122.995Z" fill="#455A64"/>
<path d="M243.593 106.56C244.067 107.123 244.488 107.729 244.849 108.37C245.728 109.643 246.65 111.154 247.73 112.815C248.811 114.475 249.812 115.968 250.655 117.207C251.1 117.795 251.483 118.428 251.797 119.095C251.265 118.583 250.791 118.015 250.383 117.4C249.566 116.311 248.486 114.765 247.344 113.008C246.202 111.251 245.244 109.652 244.577 108.475C244.175 107.878 243.845 107.235 243.593 106.56Z" fill="#455A64"/>
<path d="M257.384 103.96C257.62 104.594 257.79 105.251 257.893 105.919C258.21 107.316 258.57 108.915 258.974 110.689C259.378 112.463 259.791 114.045 260.133 115.432C260.344 116.077 260.482 116.743 260.546 117.418C260.23 116.817 259.988 116.18 259.826 115.52C259.439 114.326 258.948 112.657 258.526 110.794C258.104 108.932 257.77 107.219 257.577 105.981C257.427 105.318 257.362 104.639 257.384 103.96Z" fill="#455A64"/>
<path d="M268.179 103.802C268.311 103.802 268.259 106.771 268.443 110.416C268.627 114.062 268.961 117.004 268.829 117.022C268.611 116.407 268.475 115.766 268.425 115.116C268.25 113.921 268.074 112.27 267.986 110.434C267.898 108.598 267.907 106.92 267.986 105.743C267.969 105.091 268.034 104.438 268.179 103.802Z" fill="#455A64"/>
<path d="M222.793 147.573C221.161 146.303 219.626 144.914 218.198 143.418C216.67 142.026 215.243 140.526 213.929 138.929C215.559 140.204 217.095 141.596 218.523 143.093C220.056 144.478 221.483 145.975 222.793 147.573Z" fill="#455A64"/>
<path d="M210.389 153.968C209.616 152.165 208.979 150.306 208.483 148.407C207.842 146.552 207.349 144.649 207.008 142.715C207.788 144.517 208.428 146.376 208.922 148.276C209.56 150.132 210.05 152.035 210.389 153.968Z" fill="#455A64"/>
<path d="M196.59 153.783C196.715 152.043 196.994 150.318 197.424 148.627C197.706 146.904 198.135 145.208 198.707 143.559C198.576 145.298 198.297 147.023 197.872 148.715C197.591 150.438 197.162 152.134 196.59 153.783Z" fill="#455A64"/>
<path d="M186.19 149.813C186.519 148.214 187.081 146.672 187.859 145.236C188.508 143.736 189.368 142.337 190.415 141.082C190.529 141.161 189.431 143.032 188.271 145.474C187.112 147.916 186.304 149.857 186.19 149.813Z" fill="#455A64"/>
<path d="M183.299 136.54C182.819 137.954 182.142 139.294 181.288 140.519C180.573 141.82 179.686 143.02 178.653 144.086C179.33 142.766 180.093 141.493 180.937 140.273C181.641 138.978 182.43 137.731 183.299 136.54Z" fill="#455A64"/>
<path d="M194.921 139.184C195.044 139.184 194.965 139.913 194.877 140.765C194.789 141.617 194.719 142.311 194.587 142.32C194.455 142.329 194.323 141.6 194.42 140.713C194.517 139.825 194.798 139.149 194.921 139.184Z" fill="#455A64"/>
<path d="M203.503 143.278C203.126 142.384 202.92 141.427 202.897 140.458C202.709 139.51 202.709 138.534 202.897 137.585C203.16 138.506 203.307 139.457 203.336 140.414C203.514 141.357 203.57 142.32 203.503 143.278Z" fill="#455A64"/>
<path d="M209.669 133.984C209.966 135.138 210.174 136.312 210.293 137.498C210.564 138.653 210.746 139.828 210.837 141.011C209.906 138.792 209.506 136.386 209.669 133.984Z" fill="#455A64"/>
<path d="M129.972 236.458L185.091 204.484C187.158 203.288 188.89 201.591 190.127 199.549C191.364 197.508 192.067 195.187 192.171 192.802L193.629 159.238C193.632 158.804 193.474 158.384 193.185 158.059C192.896 157.735 192.498 157.529 192.066 157.481C191.665 157.451 191.265 157.559 190.934 157.787C190.604 158.016 190.361 158.351 190.248 158.737L183.22 183.921L117.595 211.714C115.85 212.454 114.276 213.544 112.968 214.916C111.661 216.289 110.649 217.915 109.995 219.693C109.34 221.472 109.057 223.366 109.164 225.259C109.27 227.151 109.763 229.001 110.612 230.696C111.462 232.386 112.648 233.885 114.099 235.1C115.55 236.314 117.233 237.22 119.047 237.759C120.86 238.299 122.765 238.462 124.644 238.238C126.523 238.015 128.336 237.409 129.972 236.458Z" fill="#FFBE9D"/>
<path d="M183.203 183.904C182.999 184.028 182.788 184.139 182.57 184.237L180.726 185.116L173.892 188.243C168.103 190.878 160.075 194.392 151.15 198.169C142.225 201.946 134.083 205.196 128.162 207.524C125.211 208.674 122.804 209.588 121.135 210.159L119.211 210.862C118.992 210.958 118.762 211.028 118.526 211.073C118.737 210.961 118.954 210.861 119.176 210.774L121.065 209.992C122.76 209.316 125.123 208.349 128.039 207.172C133.925 204.801 142.041 201.472 150.965 197.703C159.89 193.935 167.936 190.439 173.751 187.9L180.647 184.905L182.535 184.106C182.751 184.017 182.974 183.949 183.203 183.904Z" fill="#EB996E"/>
<path d="M112.158 233.586C112.158 233.542 112.896 233.463 114.187 233.147C114.971 232.949 115.733 232.672 116.462 232.321C117.413 231.832 118.319 231.259 119.167 230.608C120.125 229.888 121.179 229.097 122.277 228.228C123.375 227.358 124.526 226.374 125.729 225.346C128.28 223.008 131.116 221.001 134.17 219.373C137.287 217.84 140.656 216.884 144.114 216.554C146.934 216.292 149.777 216.437 152.555 216.984C154.422 217.363 156.244 217.934 157.993 218.688C158.608 218.952 159.064 219.206 159.381 219.365C159.549 219.431 159.706 219.523 159.846 219.637C159.674 219.586 159.507 219.522 159.345 219.444C159.012 219.321 158.546 219.083 157.922 218.846C156.164 218.168 154.347 217.653 152.494 217.309C149.745 216.808 146.938 216.696 144.158 216.975C140.755 217.325 137.442 218.277 134.372 219.786C131.353 221.4 128.542 223.376 126.001 225.671C124.789 226.69 123.63 227.657 122.488 228.526C121.346 229.396 120.309 230.16 119.325 230.863C118.453 231.514 117.52 232.082 116.541 232.558C115.79 232.891 115.007 233.148 114.204 233.322C113.546 233.454 113.027 233.524 112.667 233.56C112.499 233.589 112.328 233.598 112.158 233.586Z" fill="#263238"/>
<path d="M122.734 228.403C122.734 228.403 122.786 228.72 122.918 229.282C123.116 230.023 123.493 230.705 124.016 231.267C124.788 232.103 125.753 232.736 126.827 233.112C128.146 233.544 129.576 233.491 130.859 232.962L131.237 232.787L131.131 233.077C130.613 231.836 129.776 230.755 128.707 229.941C127.834 229.279 126.826 228.817 125.755 228.588C124.758 228.413 123.743 228.362 122.734 228.439C122.985 228.32 123.256 228.249 123.533 228.228C124.292 228.121 125.063 228.136 125.817 228.272C126.951 228.471 128.024 228.927 128.953 229.607C130.118 230.441 131.03 231.581 131.588 232.901L131.676 233.103L131.483 233.191L131.07 233.384C129.672 233.967 128.108 234.014 126.678 233.516C125.547 233.098 124.543 232.396 123.761 231.478C123.233 230.862 122.878 230.116 122.734 229.317C122.664 229.016 122.664 228.704 122.734 228.403Z" fill="#263238"/>
<path d="M122.734 228.403C123.7 228.707 124.617 229.147 125.457 229.712C126.372 230.15 127.214 230.728 127.951 231.425C126.986 231.122 126.069 230.681 125.228 230.116C124.313 229.678 123.471 229.1 122.734 228.403Z" fill="#263238"/>
<path d="M131.035 221.578C131.176 221.828 131.302 222.086 131.412 222.351C131.776 223.027 132.298 223.606 132.932 224.038C133.879 224.669 134.963 225.063 136.094 225.188C137.477 225.305 138.857 224.925 139.986 224.117L140.311 223.853V224.161C139.521 223.076 138.461 222.216 137.236 221.666C136.232 221.224 135.144 221.005 134.048 221.025C133.035 221.079 132.034 221.265 131.07 221.578C131.289 221.404 131.54 221.273 131.808 221.192C132.52 220.909 133.274 220.746 134.039 220.709C135.187 220.636 136.337 220.834 137.394 221.288C138.714 221.847 139.854 222.759 140.688 223.924L140.811 224.099L140.644 224.231C140.53 224.319 140.416 224.424 140.284 224.512C139.068 225.386 137.575 225.785 136.085 225.636C134.892 225.486 133.755 225.036 132.783 224.328C132.128 223.847 131.613 223.202 131.289 222.457C131.146 222.184 131.059 221.885 131.035 221.578Z" fill="#263238"/>
<path d="M131.035 221.578C132.049 221.643 133.047 221.862 133.995 222.228C134.984 222.45 135.934 222.817 136.815 223.317C134.81 223.026 132.862 222.434 131.035 221.561V221.578Z" fill="#263238"/>
<path d="M116.462 232.277C116.462 232.277 116.673 232.04 117.007 231.61C117.466 230.998 117.767 230.283 117.885 229.528C118.077 228.408 117.989 227.259 117.63 226.181C117.168 224.872 116.252 223.771 115.048 223.08L114.679 222.887L114.969 222.791C114.358 223.852 114.014 225.046 113.966 226.271C113.919 227.495 114.169 228.712 114.696 229.818C115.174 230.717 115.765 231.553 116.453 232.304C116.204 232.176 115.98 232.003 115.794 231.794C114.42 230.435 113.623 228.597 113.572 226.664C113.535 225.238 113.887 223.829 114.591 222.589L114.696 222.395L114.89 222.501L115.294 222.711C116.591 223.457 117.571 224.65 118.052 226.067C118.404 227.205 118.462 228.414 118.219 229.581C118.06 230.376 117.69 231.113 117.147 231.715C116.96 231.948 116.727 232.139 116.462 232.277Z" fill="#263238"/>
<path d="M116.462 232.277C116.098 231.329 115.885 230.331 115.829 229.317C115.623 228.324 115.564 227.306 115.654 226.295C116.017 227.243 116.231 228.242 116.286 229.255C116.492 230.249 116.552 231.267 116.462 232.277Z" fill="#263238"/>
<path d="M136.999 218.539C136.999 218.539 137.263 218.433 137.71 218.205C138.34 217.889 138.88 217.421 139.283 216.844C139.888 215.996 140.274 215.012 140.407 213.98C140.554 212.721 140.242 211.452 139.529 210.405C139.459 210.291 139.371 210.194 139.3 210.089L139.608 210.133C138.592 210.83 137.779 211.785 137.254 212.899C136.822 213.805 136.594 214.795 136.586 215.798C136.607 216.726 136.746 217.647 136.999 218.539C136.999 218.539 136.823 218.319 136.648 217.862C136.407 217.2 136.274 216.503 136.252 215.798C136.212 214.74 136.419 213.687 136.858 212.724C137.395 211.525 138.252 210.498 139.336 209.755L139.511 209.632L139.634 209.799C139.713 209.913 139.81 210.018 139.889 210.141C140.669 211.279 141.004 212.664 140.829 214.033C140.665 215.13 140.224 216.167 139.546 217.046C139.091 217.638 138.484 218.096 137.79 218.372C137.543 218.488 137.272 218.545 136.999 218.539Z" fill="#263238"/>
<path d="M136.999 218.539C137.063 217.611 137.28 216.7 137.64 215.842C137.876 214.931 138.252 214.063 138.756 213.269C138.693 214.2 138.476 215.114 138.115 215.974C137.88 216.882 137.504 217.748 136.999 218.539Z" fill="#263238"/>
<path d="M144.096 216.721C144.091 216.985 144.07 217.249 144.035 217.511C144.012 218.214 144.157 218.913 144.457 219.549C144.909 220.486 145.581 221.3 146.415 221.921C147.45 222.66 148.716 223 149.982 222.878L150.359 222.834L150.175 223.08C150.06 221.853 149.623 220.678 148.91 219.672C148.319 218.843 147.551 218.156 146.661 217.661C145.825 217.233 144.94 216.908 144.026 216.694C144.278 216.643 144.538 216.643 144.79 216.694C146.548 216.984 148.124 217.949 149.182 219.382C149.964 220.434 150.444 221.679 150.57 222.984V223.203H150.368L149.947 223.256C148.573 223.382 147.202 223.001 146.09 222.184C145.203 221.497 144.512 220.588 144.088 219.549C143.788 218.865 143.682 218.111 143.78 217.371C143.836 217.133 143.944 216.911 144.096 216.721Z" fill="#263238"/>
<path d="M144.097 216.721C144.874 217.235 145.565 217.869 146.143 218.6C146.827 219.232 147.402 219.971 147.847 220.788C147.068 220.276 146.376 219.641 145.801 218.908C145.113 218.281 144.537 217.541 144.097 216.721Z" fill="#263238"/>
<path d="M149.209 216.519C150.044 216.6 150.885 216.452 151.642 216.088C152.431 215.667 153.108 215.065 153.618 214.331C154.213 213.41 154.461 212.309 154.321 211.222C154.321 211.108 154.277 211.002 154.259 210.897L154.514 211.072C153.461 211.216 152.465 211.634 151.624 212.285C150.935 212.814 150.372 213.489 149.973 214.261C149.63 214.99 149.374 215.757 149.209 216.545C149.161 216.325 149.161 216.097 149.209 215.877C149.277 215.269 149.443 214.676 149.701 214.121C150.088 213.282 150.661 212.542 151.378 211.96C152.269 211.241 153.337 210.776 154.47 210.616H154.69V210.827C154.72 210.945 154.74 211.065 154.751 211.187C154.909 212.382 154.625 213.594 153.952 214.595C153.389 215.381 152.637 216.013 151.765 216.431C151.173 216.709 150.518 216.824 149.867 216.765C149.428 216.65 149.2 216.545 149.209 216.519Z" fill="#263238"/>
<path d="M149.209 216.519C150.115 215.179 151.269 214.025 152.608 213.119C152.215 213.847 151.687 214.494 151.053 215.026C150.175 215.904 149.297 216.615 149.209 216.519Z" fill="#263238"/>
<path d="M126.889 224.46C126.889 224.46 127.099 224.231 127.442 223.801C127.898 223.187 128.199 222.473 128.32 221.719C128.508 220.596 128.421 219.445 128.066 218.364C127.601 217.056 126.685 215.956 125.483 215.263L125.105 215.07L125.404 214.973C124.739 216.142 124.394 217.466 124.403 218.812C124.415 219.906 124.664 220.984 125.132 221.974C125.608 222.875 126.198 223.71 126.889 224.46C126.641 224.33 126.418 224.157 126.23 223.95C125.68 223.417 125.223 222.797 124.877 222.114C124.329 221.101 124.028 219.972 123.999 218.82C123.958 217.394 124.311 215.984 125.018 214.745L125.123 214.56L125.307 214.657L125.72 214.868C127.018 215.61 127.996 216.805 128.47 218.223C128.836 219.373 128.897 220.6 128.645 221.781C128.484 222.578 128.107 223.316 127.556 223.915C127.377 224.144 127.149 224.33 126.889 224.46Z" fill="#263238"/>
<path d="M126.888 224.459C126.535 223.509 126.325 222.511 126.265 221.499C126.059 220.506 125.999 219.488 126.089 218.478C126.443 219.428 126.656 220.425 126.722 221.438C126.933 222.43 126.989 223.45 126.888 224.459Z" fill="#263238"/>
<path d="M263.023 227.068L206.806 201.955C204.698 201.009 202.862 199.548 201.468 197.706C200.074 195.863 199.166 193.699 198.83 191.414L194.095 159.37C194.035 158.946 194.139 158.516 194.385 158.167C194.632 157.817 195.003 157.575 195.422 157.49C195.803 157.413 196.2 157.473 196.542 157.66C196.884 157.846 197.15 158.147 197.293 158.509L206.595 181.98L272.405 202.051C280.644 204.686 283.824 212.372 281.031 219.619C280.382 221.325 279.391 222.88 278.119 224.189C276.848 225.498 275.322 226.534 273.635 227.231C271.949 227.929 270.137 228.274 268.312 228.246C266.487 228.218 264.688 227.817 263.023 227.068Z" fill="#FFBE9D"/>
<path d="M206.577 181.98C206.805 182.014 207.028 182.07 207.245 182.147L209.133 182.726L216.064 184.905C221.905 186.749 229.987 189.297 238.902 192.011C247.818 194.725 255.979 197.106 261.873 198.801L268.847 200.804L270.745 201.366C270.965 201.426 271.183 201.499 271.395 201.586C271.165 201.567 270.938 201.522 270.718 201.454L268.803 200.98C267.143 200.558 264.745 199.917 261.776 199.109C255.864 197.501 247.722 195.173 238.762 192.45C229.802 189.727 221.747 187.136 215.923 185.212L209.046 182.893L207.183 182.234C206.974 182.168 206.771 182.083 206.577 181.98Z" fill="#EB996E"/>
<path d="M279.801 222.518C279.629 222.541 279.454 222.541 279.282 222.518C278.784 222.523 278.285 222.5 277.789 222.448C276.997 222.367 276.217 222.199 275.461 221.947C274.473 221.593 273.52 221.146 272.615 220.612C271.605 220.032 270.516 219.4 269.348 218.68C268.179 217.959 266.976 217.151 265.711 216.29C263.039 214.35 260.139 212.745 257.076 211.512C253.986 210.356 250.714 209.761 247.414 209.755C244.718 209.772 242.036 210.163 239.447 210.914C237.7 211.429 236.006 212.109 234.387 212.944C233.808 213.233 233.386 213.506 233.078 213.655C232.935 213.754 232.779 213.831 232.613 213.883C232.745 213.77 232.886 213.667 233.035 213.576C233.324 213.4 233.737 213.102 234.299 212.785C235.903 211.886 237.596 211.156 239.35 210.607C241.961 209.804 244.673 209.375 247.405 209.333C250.764 209.316 254.098 209.912 257.243 211.09C260.342 212.344 263.27 213.985 265.957 215.974C267.222 216.852 268.417 217.661 269.558 218.39C270.7 219.119 271.798 219.769 272.782 220.357C273.665 220.898 274.594 221.359 275.558 221.736C276.29 221.997 277.046 222.186 277.815 222.299C279.089 222.465 279.809 222.474 279.801 222.518Z" fill="#263238"/>
<path d="M269.128 218.609C269.226 218.891 269.253 219.193 269.207 219.488C269.153 220.272 268.889 221.027 268.443 221.675C267.774 222.64 266.866 223.415 265.808 223.924C264.496 224.535 263.006 224.647 261.618 224.24L261.196 224.091L261.003 224.029L261.064 223.818C261.463 222.498 262.213 221.311 263.234 220.384C264.622 219.136 266.437 218.469 268.302 218.521C268.572 218.51 268.84 218.551 269.093 218.644C268.115 218.678 267.145 218.828 266.203 219.092C265.201 219.422 264.283 219.968 263.515 220.691C262.568 221.576 261.873 222.698 261.504 223.941L261.363 223.669L261.75 223.801C263.034 224.179 264.411 224.086 265.632 223.537C266.624 223.07 267.486 222.367 268.144 221.49C268.595 220.898 268.897 220.204 269.023 219.47C269.111 218.917 269.093 218.618 269.128 218.609Z" fill="#263238"/>
<path d="M269.128 218.609C268.494 219.356 267.743 219.997 266.906 220.506C266.162 221.143 265.324 221.659 264.42 222.035C265.057 221.29 265.807 220.65 266.642 220.138C267.389 219.505 268.227 218.99 269.128 218.609Z" fill="#263238"/>
<path d="M260.467 212.891C260.488 213.189 260.446 213.488 260.344 213.769C260.113 214.518 259.685 215.192 259.106 215.719C258.243 216.502 257.193 217.05 256.057 217.309C254.642 217.608 253.165 217.374 251.911 216.65C251.771 216.58 251.648 216.492 251.534 216.422L251.358 216.308L251.463 216.115C252.154 214.923 253.156 213.943 254.362 213.277C255.337 212.744 256.423 212.444 257.533 212.399C258.271 212.367 259.009 212.45 259.72 212.645C259.987 212.693 260.241 212.795 260.467 212.944C259.508 212.747 258.529 212.67 257.551 212.715C256.379 212.82 255.249 213.206 254.258 213.84C253.267 214.475 252.444 215.34 251.859 216.361L251.788 216.062C251.903 216.132 252.017 216.211 252.14 216.273C253.298 216.939 254.657 217.167 255.97 216.914C257.043 216.683 258.044 216.195 258.886 215.491C259.451 215.017 259.894 214.415 260.177 213.734C260.25 213.445 260.347 213.163 260.467 212.891Z" fill="#263238"/>
<path d="M260.467 212.891C259.664 213.471 258.775 213.922 257.832 214.226C256.96 214.665 256.022 214.962 255.056 215.104C256.72 214.079 258.534 213.32 260.432 212.856L260.467 212.891Z" fill="#263238"/>
<path d="M275.54 221.692C275.273 221.594 275.03 221.438 274.829 221.236C274.242 220.716 273.806 220.049 273.564 219.303C273.205 218.194 273.138 217.011 273.371 215.869C273.689 214.456 274.51 213.207 275.681 212.355L276.05 212.118L276.226 211.995L276.357 212.179C277.155 213.299 277.635 214.613 277.745 215.983C277.83 217.093 277.659 218.208 277.245 219.242C276.98 219.931 276.603 220.572 276.129 221.139C275.786 221.534 275.558 221.71 275.54 221.692C276.121 220.903 276.597 220.04 276.955 219.127C277.344 218.017 277.459 216.829 277.289 215.665C277.119 214.501 276.67 213.395 275.98 212.443L276.287 212.504C276.182 212.575 276.059 212.645 275.945 212.733C274.864 213.52 274.098 214.666 273.784 215.965C273.548 217.037 273.578 218.149 273.871 219.207C274.073 219.92 274.443 220.574 274.952 221.113C275.312 221.49 275.567 221.657 275.54 221.692Z" fill="#263238"/>
<path d="M275.54 221.692C275.342 220.734 275.295 219.75 275.4 218.776C275.354 217.797 275.458 216.817 275.707 215.869C275.911 216.827 275.961 217.811 275.857 218.785C275.902 219.765 275.795 220.745 275.54 221.692Z" fill="#263238"/>
<path d="M254.415 210.633C254.155 210.671 253.889 210.644 253.642 210.554C252.944 210.363 252.312 209.983 251.815 209.456C251.074 208.681 250.544 207.728 250.278 206.689C249.967 205.395 250.145 204.031 250.778 202.86C250.848 202.728 250.928 202.614 250.989 202.508L251.094 202.324L251.288 202.429C252.408 203.042 253.335 203.955 253.967 205.064C254.482 205.949 254.783 206.942 254.845 207.963C254.898 208.642 254.838 209.324 254.67 209.983C254.629 210.227 254.54 210.46 254.406 210.669C254.551 209.798 254.593 208.914 254.529 208.033C254.422 207.071 254.104 206.144 253.598 205.319C252.98 204.309 252.108 203.479 251.068 202.912L251.367 202.833C251.305 202.939 251.235 203.044 251.174 203.158C250.598 204.234 250.421 205.478 250.673 206.672C250.915 207.646 251.384 208.549 252.043 209.307C252.49 209.816 253.054 210.207 253.686 210.449C253.932 210.497 254.175 210.558 254.415 210.633Z" fill="#263238"/>
<path d="M254.415 210.633C253.416 209.143 252.677 207.495 252.228 205.758C253.227 207.248 253.966 208.897 254.415 210.633Z" fill="#263238"/>
<path d="M247.441 209.544C247.596 209.758 247.701 210.004 247.748 210.264C247.915 210.967 247.891 211.701 247.678 212.39C247.363 213.418 246.788 214.347 246.009 215.087C245.025 215.983 243.747 216.486 242.416 216.501C242.279 216.51 242.141 216.51 242.003 216.501H241.792V216.282C241.78 215.013 242.114 213.764 242.759 212.671C243.282 211.792 244.001 211.043 244.858 210.484C245.428 210.111 246.053 209.832 246.712 209.658C246.945 209.576 247.193 209.54 247.441 209.553C246.598 209.858 245.793 210.259 245.043 210.748C244.165 211.375 243.453 212.205 242.967 213.167C242.48 214.129 242.234 215.195 242.249 216.273L242.038 216.044C242.161 216.053 242.285 216.053 242.407 216.044C243.63 216.028 244.807 215.576 245.728 214.771C246.464 214.087 247.028 213.238 247.37 212.294C247.597 211.655 247.666 210.971 247.572 210.3C247.513 210.051 247.469 209.798 247.441 209.544Z" fill="#263238"/>
<path d="M247.44 209.544C247.102 210.38 246.623 211.152 246.026 211.828C245.56 212.591 244.965 213.269 244.269 213.831C244.614 213 245.091 212.232 245.684 211.556C246.155 210.793 246.748 210.114 247.44 209.544Z" fill="#263238"/>
<path d="M242.513 209.869C242.513 209.869 242.311 210.018 241.88 210.124C241.262 210.252 240.62 210.206 240.027 209.992C239.141 209.689 238.35 209.159 237.734 208.455C236.983 207.561 236.584 206.424 236.61 205.257C236.61 205.135 236.61 205.012 236.61 204.906V204.695H236.829C237.936 204.733 239.012 205.073 239.939 205.679C240.69 206.161 241.316 206.814 241.766 207.585C242.07 208.094 242.29 208.649 242.416 209.228C242.48 209.435 242.498 209.654 242.469 209.869C242.215 209.133 241.889 208.423 241.494 207.752C240.979 206.976 240.285 206.335 239.47 205.884C238.655 205.433 237.743 205.185 236.812 205.161L237.049 204.95C237.049 205.055 237.049 205.161 237.049 205.275C237.024 206.33 237.373 207.359 238.033 208.183C238.592 208.845 239.303 209.364 240.106 209.693C240.877 209.97 241.709 210.03 242.513 209.869Z" fill="#263238"/>
<path d="M242.513 209.869C241.785 209.572 241.123 209.137 240.563 208.587C239.561 207.779 238.806 207.041 238.902 206.944C239.628 207.243 240.29 207.678 240.852 208.227C241.845 209.035 242.592 209.755 242.513 209.869Z" fill="#263238"/>
<path d="M264.736 215.245C264.471 215.142 264.229 214.987 264.025 214.788C263.434 214.269 262.997 213.597 262.76 212.847C262.4 211.738 262.334 210.555 262.567 209.412C262.883 207.999 263.705 206.749 264.877 205.899L265.246 205.653L265.421 205.539L265.544 205.714C266.347 206.835 266.83 208.153 266.941 209.527C267.026 210.637 266.854 211.752 266.44 212.785C266.173 213.473 265.793 214.111 265.316 214.674C264.982 215.078 264.754 215.254 264.736 215.236C265.317 214.446 265.793 213.584 266.151 212.671C266.54 211.561 266.655 210.373 266.485 209.209C266.315 208.045 265.866 206.939 265.175 205.987L265.483 206.048L265.14 206.268C264.061 207.057 263.296 208.202 262.979 209.5C262.744 210.572 262.774 211.684 263.067 212.741C263.262 213.457 263.634 214.113 264.148 214.648C264.508 215.025 264.763 215.21 264.736 215.245Z" fill="#263238"/>
<path d="M264.736 215.245C264.539 214.286 264.492 213.302 264.596 212.329C264.549 211.349 264.653 210.369 264.903 209.421C265.102 210.38 265.152 211.363 265.052 212.337C265.093 213.317 264.986 214.297 264.736 215.245Z" fill="#263238"/>
</svg>
