<svg  viewBox="0 0 418 431" fill="none" xmlns="http://www.w3.org/2000/svg">
<path fill-rule="evenodd" clip-rule="evenodd" d="M141.797 358.748C108.578 353.452 64.4889 363.88 47.7088 331.251C30.833 298.437 61.3594 252.877 66.3773 212.097C70.8779 175.52 57.0603 136.922 75.5409 105.061C94.2606 72.7877 128.924 59.5123 160.081 50.549C188.464 42.3837 214.66 52.2115 242.2 57.1165C274.335 62.8402 310.429 57.741 334.256 81.5711C361.198 108.518 379.636 149.155 378.555 193.491C377.452 238.714 358.409 286.317 328.464 319.043C300.711 349.374 262.033 352.173 226.432 359.746C197.29 365.945 170.029 363.25 141.797 358.748Z" fill="#E1F0EE"/>
<path d="M239.615 227.27L194.928 321.376L196.152 333.731L251.927 280.76L242.206 280.131L273.238 251.92C270.139 249.134 267.238 246.136 264.554 242.947C256.66 233.473 252.284 222.597 248.936 211.134L251.213 210.548C250.721 203.242 249.413 196.014 247.313 188.999L230.166 229.471L239.615 227.27Z" fill="#093636"/>
<path d="M315.359 272.322L203.281 326.602C201.275 326.22 199.304 325.804 197.392 325.362V325.124L259.277 275.951L249.446 274.404L283.749 248.326C286.043 250.853 288.428 253.3 290.904 255.668C293.682 258.353 296.554 260.97 299.401 263.553C302.001 265.89 304.04 268.269 307.711 269.238C310.417 269.824 313.003 270.867 315.359 272.322V272.322Z" fill="#093636"/>
<path d="M314.509 277.488C313.828 276.687 313.038 275.983 312.164 275.398L202.346 327.588C214.743 330.044 228.517 331.429 241.051 330.621C280.214 325.897 300.76 311.596 313.617 289.894L317.687 287.422C318.121 287.192 318.498 286.868 318.79 286.473C319.081 286.077 319.28 285.621 319.37 285.138C319.461 284.656 319.442 284.159 319.313 283.684C319.185 283.21 318.952 282.771 318.63 282.4L314.509 277.488Z" fill="#093636"/>
<path d="M124.095 274.022L123.772 283.224L106.778 270.903C109.296 278.832 112.477 286.535 116.286 293.931C127.698 315.318 148.023 337.13 185.904 341.022C190.416 341.489 196.95 341.073 204.547 339.858L203.604 336.782L124.095 274.022Z" fill="#093636"/>
<path d="M151.218 115.49L146.12 75.6719C141.953 79.5789 138.54 84.2191 136.051 89.3608C120.816 120.299 126.092 137.608 147.208 150.294L147.998 150.753L139.084 108.794L151.218 115.49Z" fill="#6DA4CD"/>
<path d="M246.701 175.505L276.646 101.393V120.359L246.701 175.505Z" fill="#093636"/>
<path d="M285.304 230.72L324.196 180.043L320.142 194.65L285.304 230.72Z" fill="#6DA4CD"/>
<path d="M113.686 176.576L96.4031 138.092L94.6187 147.737L113.686 176.576Z" fill="#6DA4CD"/>
<path d="M132.185 273.121L199.984 347.421L198.097 332.924L147.327 248.93L147.879 256.348L125.582 227.253L139.569 229.556L115.25 186.373C112.642 190.863 111.319 195.984 111.426 201.175C111.885 223.319 112.65 247.06 115.675 267.334L130.332 282.128L132.185 273.121Z" fill="#6DA4CD"/>
<path d="M161.67 180.901L179.828 296.718L191.079 130.258L183.023 135.433L181.103 68.3813C170.108 68.1519 158.458 71.4403 149.281 79.6231L153.954 119.56L141.846 112.55L150.292 154.696C155.088 157.616 160.142 160.088 165.392 162.08C165.069 162.93 164.754 163.72 164.44 164.51C160.355 164.092 156.25 163.905 152.145 163.949L156.172 184.088L161.67 180.901Z" fill="#093636"/>
<path d="M127.681 222.962L147.225 253.747L147.361 246.312L190.203 334.114L188.946 297.576L160.251 187.197L155.042 190.724L150.657 167.187C148.669 167.348 146.638 167.552 144.54 167.824C139.915 168.348 135.45 169.827 131.428 172.167C127.405 174.507 123.913 177.658 121.172 181.419L141.413 226.454L127.681 222.962Z" fill="#093636"/>
<path d="M220.241 142.137L211.744 168.138C222.153 167.73 231.084 166.294 236.785 164.544C229.316 160.193 227.141 147.856 227.625 135.178L220.751 146.513L220.241 142.137Z" fill="#6DA4CD"/>
<path d="M221.55 177.876L221.49 177.833C221.082 177.579 220.64 177.324 220.241 177.086C212.823 172.931 205.898 169.183 198.828 166.09C198.179 165.038 197.697 163.892 197.401 162.691C201.564 163.32 205.617 163.737 209.492 163.983L220.7 137.166L220.768 141.89L228.832 130.53C229.901 122.817 231.731 115.229 234.295 107.876C240.481 90.4994 227.498 78.5693 220.87 80.1668C216.766 69.8852 202.728 62.5521 187.323 62.0933L186.796 123.681L194.919 118.583L183.219 290.396L189.447 333.57L229.936 237.492L220.59 240.084L235.944 198.864C233.038 190.749 228.526 182.379 221.55 177.876Z" fill="#093636"/>
<path d="M183.559 208.976C176.149 224.152 178.367 232.895 188.088 239.506C200.731 248.105 218.584 248.335 225.858 246.406C220.47 242.055 222.17 227.211 224.719 218.586C227.268 209.962 221.142 204.294 218.168 205.144C214.148 195.227 192.039 191.591 183.559 208.976Z" fill="#093636"/>
<path opacity="0.6" d="M183.559 208.976C176.149 224.152 178.367 232.895 188.088 239.506C200.731 248.105 218.584 248.335 225.858 246.406C220.47 242.055 222.17 227.211 224.719 218.586C227.268 209.962 221.142 204.294 218.168 205.144C214.148 195.227 192.039 191.591 183.559 208.976Z" fill="white"/>
<path d="M224.133 260.715L224.515 262.414L224.94 264.216L225.858 267.827C226.503 270.232 227.166 272.628 227.922 274.965C228.679 277.301 229.469 279.613 230.361 281.822C231.203 283.988 232.185 286.097 233.301 288.135C233.82 289.09 234.387 290.017 235.001 290.914C235.289 291.364 235.595 291.764 235.893 292.155L236.895 293.404C238.388 295.157 240 296.803 241.722 298.332C243.506 299.921 245.418 301.476 247.406 302.997C247.899 303.371 248.401 303.753 248.91 304.119C249.42 304.484 249.922 304.866 250.431 305.24L253.465 307.416L253.686 307.568C254.374 308.056 254.872 308.768 255.093 309.581C255.315 310.395 255.246 311.261 254.9 312.03C254.554 312.799 253.951 313.424 253.194 313.797C252.438 314.171 251.576 314.27 250.754 314.077C249.267 313.737 247.967 313.372 246.616 312.939C245.265 312.505 243.957 312.029 242.648 311.494C240.007 310.426 237.45 309.159 235.001 307.704C232.416 306.195 229.986 304.436 227.744 302.453C227.175 301.909 226.605 301.383 226.045 300.822C225.484 300.261 224.94 299.615 224.447 298.995C223.462 297.795 222.54 296.544 221.685 295.248C218.589 290.342 216.074 285.092 214.191 279.604C213.265 276.953 212.424 274.293 211.71 271.6C211.344 270.257 211.004 268.906 210.699 267.547C210.554 266.867 210.393 266.187 210.265 265.49L209.857 263.324C209.513 261.456 209.913 259.528 210.973 257.952C212.033 256.376 213.668 255.277 215.527 254.892C217.387 254.507 219.324 254.865 220.922 255.889C222.521 256.914 223.655 258.524 224.082 260.375L224.133 260.715Z" fill="#FFBE9D"/>
<path d="M219.204 254.053C227.668 258.956 229.732 276.8 229.732 276.8C223.317 277.276 215.449 280.14 209.229 284.516C209.229 284.516 206.391 273.673 206.612 268.286C206.833 262.703 214.361 251.258 219.204 254.053Z" fill="white"/>
<path d="M259.974 318.776L263.305 315.326C263.494 315.13 263.643 314.899 263.743 314.645C263.843 314.392 263.891 314.121 263.886 313.848C263.88 313.576 263.821 313.307 263.711 313.057C263.601 312.808 263.443 312.583 263.245 312.395L260.747 309.999C259.766 309.085 258.53 308.492 257.204 308.299L248.987 307.05L246.701 311.639C250.1 315.207 252.53 316.236 252.53 316.236L257.433 319.125C257.834 319.36 258.303 319.453 258.764 319.39C259.225 319.327 259.651 319.111 259.974 318.776V318.776Z" fill="#FFBE9D"/>
<path d="M208.336 304.968L178.936 310.364C176.26 325.744 182.955 345.508 209.373 345.508C241.543 345.508 270.264 340.019 265.701 325.234C260.203 307.449 208.336 304.968 208.336 304.968Z" fill="#6DA4CD"/>
<path d="M164.873 310.364C162.197 325.744 168.893 350.607 195.31 350.607C238.646 350.607 263.959 351.295 267.477 336.229C270.995 321.164 212.39 316.737 212.39 316.737C212.39 316.737 214.361 312.123 211.413 301.892C182.802 302.394 164.873 310.364 164.873 310.364Z" fill="#6DA4CD"/>
<path opacity="0.1" d="M164.873 310.364C162.197 325.744 168.893 350.607 195.31 350.607C238.646 350.607 263.959 351.295 267.477 336.229C270.995 321.164 212.39 316.737 212.39 316.737C212.39 316.737 214.361 312.123 211.413 301.892C182.802 302.394 164.873 310.364 164.873 310.364Z" fill="white"/>
<path d="M219.204 254.053C208.702 247.893 200.366 243.593 186.397 244.638C182.748 244.943 179.309 246.466 176.631 248.963C173.954 251.46 172.195 254.786 171.637 258.404C168.952 275.305 164.423 295.044 164.839 310.364C194.579 322.668 211.854 311.681 211.378 301.867C204.351 283.471 221.983 274.574 222.875 264.063C223.368 258.71 222.68 256.084 219.204 254.053Z" fill="white"/>
<path d="M197.035 229.004C198.735 235.283 196.33 241.163 194.724 245.675C198.987 251.793 202.758 258.24 206 264.955C215.177 257.971 211.778 251.36 211.778 251.36C206.17 247.842 207.929 242.234 210.427 238.334L197.035 229.004Z" fill="#FFBE9D"/>
<path opacity="0.2" d="M206.025 230.958L210.427 238.325C209.83 239.224 209.312 240.174 208.88 241.163C205.94 241.486 201.989 237.518 202.346 234.807C202.516 233.532 205.634 231.459 206.025 230.958Z" fill="black"/>
<path d="M191.495 219.172C193.874 228.519 194.673 232.555 200.383 236.515C208.965 242.463 219.926 237.509 220.428 227.618C220.861 218.722 216.901 204.888 206.909 202.875C204.708 202.42 202.428 202.535 200.284 203.21C198.14 203.884 196.204 205.095 194.66 206.728C193.116 208.361 192.015 210.361 191.461 212.539C190.907 214.717 190.918 217 191.495 219.172V219.172Z" fill="#FFBE9D"/>
<path d="M215.661 205.424C215.848 208.542 206.518 209.315 201.309 208.976C197.953 208.755 195.03 210.675 195.497 213.641C195.948 216.428 198.471 218.263 200.366 217.541C202.321 223.489 194.418 229.819 187.408 225.324C180.398 220.829 192.821 189.636 215.661 205.424Z" fill="#093636"/>
<path opacity="0.6" d="M215.661 205.424C215.848 208.542 206.518 209.315 201.309 208.976C197.953 208.755 195.03 210.675 195.497 213.641C195.948 216.428 198.471 218.263 200.366 217.541C202.321 223.489 194.418 229.819 187.408 225.324C180.398 220.829 192.821 189.636 215.661 205.424Z" fill="white"/>
<path opacity="0.2" d="M205.94 218.696C205.519 218.578 205.077 218.551 204.644 218.619C204.212 218.686 203.799 218.846 203.433 219.087C204.287 219.132 205.141 218.999 205.94 218.696V218.696Z" fill="black"/>
<path opacity="0.2" d="M205.94 219.351C205.531 219.338 205.125 219.418 204.751 219.584C204.377 219.751 204.046 219.999 203.782 220.311C204.562 220.151 205.299 219.824 205.94 219.351V219.351Z" fill="black"/>
<path opacity="0.2" d="M212.772 228.715C212.42 228.506 212.026 228.38 211.619 228.345C211.211 228.309 210.801 228.366 210.418 228.511C211.179 228.751 211.982 228.82 212.772 228.715V228.715Z" fill="black"/>
<path opacity="0.2" d="M213.069 208.976C213.069 208.976 208.252 209.273 205.872 210.675C208.321 210.342 210.731 209.773 213.069 208.976V208.976Z" fill="black"/>
<path d="M207.087 218.832C207.24 219.606 207.767 219.444 208.268 219.351C208.77 219.257 209.067 219.257 208.914 218.501C208.761 217.745 208.243 217.184 207.742 217.277C207.24 217.371 206.943 218.059 207.087 218.832Z" fill="#093636"/>
<path d="M215.814 217.184C215.958 217.949 216.383 217.838 216.885 217.745C217.386 217.651 217.785 217.609 217.641 216.836C217.496 216.062 216.969 215.519 216.468 215.612C215.967 215.705 215.669 216.411 215.814 217.184Z" fill="#093636"/>
<path d="M216.247 215.697L218.006 214.847C218.006 214.847 217.326 216.47 216.247 215.697Z" fill="#093636"/>
<path d="M190.586 227.695C191.792 229.123 193.516 230.015 195.378 230.176C197.851 230.363 198.607 228.035 197.52 225.927C196.534 224.05 194.07 221.679 191.784 222.478C189.498 223.276 189.124 225.936 190.586 227.695Z" fill="#FFBE9D"/>
<path d="M206.977 212.145C206.881 212.161 206.792 212.208 206.725 212.278C206.657 212.349 206.615 212.439 206.603 212.536C206.314 214.652 203.892 215.935 203.867 215.935C203.812 215.962 203.764 215.999 203.724 216.046C203.685 216.092 203.655 216.145 203.637 216.203C203.619 216.261 203.612 216.322 203.618 216.383C203.624 216.443 203.642 216.502 203.671 216.555C203.699 216.609 203.737 216.656 203.784 216.695C203.83 216.734 203.883 216.764 203.941 216.782C203.999 216.8 204.059 216.807 204.119 216.801C204.18 216.796 204.238 216.779 204.292 216.751C204.411 216.691 207.172 215.221 207.512 212.638C207.522 212.578 207.519 212.517 207.505 212.458C207.49 212.399 207.464 212.344 207.427 212.296C207.391 212.247 207.345 212.207 207.292 212.176C207.24 212.146 207.181 212.127 207.121 212.12L206.977 212.145Z" fill="#093636"/>
<path d="M214.378 210.922C214.298 210.919 214.22 210.937 214.15 210.974C214.079 211.011 214.02 211.066 213.979 211.134C213.946 211.186 213.924 211.243 213.914 211.304C213.905 211.364 213.907 211.425 213.921 211.485C213.935 211.544 213.961 211.6 213.997 211.649C214.034 211.698 214.079 211.74 214.131 211.771C214.746 212.17 215.447 212.415 216.176 212.486C216.905 212.557 217.641 212.452 218.321 212.179C218.376 212.153 218.427 212.117 218.468 212.072C218.51 212.027 218.542 211.974 218.564 211.916C218.585 211.859 218.595 211.798 218.592 211.736C218.59 211.675 218.576 211.615 218.55 211.559C218.524 211.503 218.488 211.453 218.443 211.411C218.398 211.369 218.345 211.337 218.287 211.316C218.23 211.294 218.169 211.285 218.107 211.287C218.046 211.289 217.985 211.304 217.93 211.329C217.389 211.537 216.806 211.613 216.23 211.551C215.653 211.489 215.1 211.291 214.616 210.972C214.543 210.933 214.46 210.915 214.378 210.922Z" fill="#093636"/>
<path d="M207.529 217.32L209.279 216.47C209.279 216.47 208.6 218.085 207.529 217.32Z" fill="#093636"/>
<path d="M188.699 254.606C189.303 257.92 189.982 261.403 190.662 264.802C191.342 268.201 192.09 271.6 192.88 274.999C193.67 278.398 194.528 281.686 195.429 284.924C196.316 288.031 197.406 291.077 198.692 294.041C198.845 294.381 198.998 294.721 199.159 295.027C199.321 295.333 199.499 295.715 199.584 295.877L199.737 296.165L199.967 296.497C200.13 296.743 200.309 296.978 200.502 297.202C201.427 298.312 202.441 299.343 203.535 300.287C206.05 302.43 208.695 304.417 211.455 306.235C217.122 310.058 223.283 313.627 229.299 317.119L229.375 317.17C230.138 317.612 230.713 318.316 230.994 319.152C231.274 319.987 231.24 320.896 230.898 321.708C230.556 322.52 229.93 323.18 229.136 323.563C228.343 323.946 227.437 324.027 226.588 323.79C222.977 322.779 219.553 321.597 216.094 320.272C212.636 318.946 209.296 317.476 205.898 315.836C202.418 314.146 199.077 312.186 195.905 309.973C194.146 308.749 192.499 307.369 190.985 305.852C190.577 305.427 190.178 305.002 189.778 304.518L189.175 303.787L188.589 302.938C188.155 302.334 187.918 301.91 187.637 301.442C187.357 300.975 187.093 300.516 186.847 300.066C184.99 296.589 183.416 292.969 182.139 289.24C180.865 285.671 179.803 282.094 178.834 278.517C177.865 274.939 177.016 271.354 176.285 267.759C175.554 264.165 174.866 260.605 174.322 256.849C174.074 254.979 174.562 253.087 175.684 251.571C176.806 250.055 178.473 249.035 180.334 248.726C182.194 248.417 184.102 248.843 185.653 249.915C187.205 250.987 188.279 252.62 188.648 254.47L188.699 254.606Z" fill="#FFBE9D"/>
<path d="M183.856 246.686C193.076 249.881 194.274 270.538 194.274 270.538C189.379 269.459 177.211 277.242 174.73 281.72C174.73 281.72 170.77 268.617 170.991 263.239C171.229 257.63 176.948 244.298 183.856 246.686Z" fill="white"/>
<path d="M235.06 329.678L238.952 326.509C239.173 326.329 239.357 326.106 239.493 325.855C239.628 325.603 239.713 325.327 239.741 325.043C239.77 324.759 239.742 324.472 239.659 324.198C239.576 323.925 239.439 323.67 239.258 323.45L236.946 320.654C236.054 319.567 234.845 318.783 233.488 318.411L225.101 316.091L222.153 320.612C225.229 324.741 227.634 326.118 227.634 326.118L232.375 329.721C232.763 330.014 233.238 330.169 233.725 330.161C234.211 330.153 234.681 329.983 235.06 329.678Z" fill="#FFBE9D"/>
<path d="M209.637 226.539C209.136 226.624 208.645 226.752 208.167 226.922C208.101 226.947 208.048 226.996 208.018 227.059C207.987 227.123 207.983 227.195 208.005 227.262C208.03 227.327 208.079 227.381 208.143 227.411C208.206 227.441 208.278 227.445 208.345 227.423C209.393 227.02 210.522 226.87 211.639 226.983C212.757 227.097 213.832 227.472 214.777 228.077C214.833 228.119 214.902 228.136 214.97 228.127C215.039 228.117 215.101 228.081 215.143 228.026C215.164 227.999 215.18 227.967 215.189 227.933C215.199 227.899 215.201 227.864 215.196 227.829C215.191 227.794 215.18 227.76 215.162 227.73C215.144 227.7 215.12 227.674 215.092 227.653C213.488 226.586 211.531 226.186 209.637 226.539V226.539Z" fill="#093636"/>
<path d="M212.693 224.271C212.693 224.238 213.504 224.199 214.804 224.165C215.135 224.165 215.45 224.14 215.52 224.039C215.574 223.882 215.522 223.722 215.37 223.579C215.115 223.205 214.869 222.815 214.574 222.404C213.474 220.732 212.698 219.361 212.848 219.34C212.998 219.319 214.004 220.661 215.105 222.325L215.86 223.508C216.036 223.696 216.065 223.906 215.94 224.103C215.885 224.155 215.805 224.2 215.706 224.235C215.608 224.27 215.492 224.294 215.37 224.305C215.185 224.322 214.997 224.328 214.809 224.323C213.504 224.328 212.693 224.305 212.693 224.271Z" fill="#263238"/>
</svg>
