<svg width="1366" height="574" viewBox="0 0 1366 574" fill="none" xmlns="http://www.w3.org/2000/svg">
<path fill-rule="evenodd" clip-rule="evenodd" d="M962.832 10.9929C642.001 4.52288 41.1588 -14.6444 -226.14 20.842C-495.82 56.6444 -546.25 125.457 -598.244 188.619C-644.936 245.34 -512.764 298.224 -440.013 353.873C-360.98 414.329 -524.978 492.257 -295.569 535.4C-56.184 580.419 532.625 577.743 860.424 568.381C1169.69 559.548 1269.36 514.879 1525.73 479.737C1789.46 443.586 1872.47 489.527 1967.9 429.159C2063.4 368.746 2098.02 257.884 1967.9 200.025C1854.26 149.499 1801.04 92.165 1584.29 57.0152C1360.2 20.6756 1251.78 16.8199 962.832 10.9929Z" fill="url(#paint0_linear_560_10)"/>
<defs>
<linearGradient id="paint0_linear_560_10" x1="722.5" y1="0" x2="722.5" y2="574" gradientUnits="userSpaceOnUse">
<stop stop-color="#C6E1F6"/>
<stop offset="1" stop-color="#E1F0EE"/>
</linearGradient>
</defs>
</svg>
