<svg width="101" height="107" viewBox="0 0 101 107" fill="none" xmlns="http://www.w3.org/2000/svg">
<path fill-rule="evenodd" clip-rule="evenodd" d="M59.1152 2.04919C47.0414 0.843115 24.4298 -2.72987 14.3706 3.88518C4.22167 10.5591 2.32384 23.3866 0.367134 35.1608C-1.39 45.7341 3.58401 55.5923 6.32185 65.9659C9.29612 77.2355 3.12437 91.7621 11.7577 99.8045C20.7665 108.197 42.9252 107.698 55.2613 105.953C66.8999 104.306 70.6507 95.9792 80.2987 89.4284C90.2238 82.6894 93.3475 91.2533 96.9389 80C100.533 68.7383 101.836 48.0724 96.9389 37.2869C92.6624 27.8682 90.6596 17.1806 82.5025 10.6283C74.0693 3.85416 69.9892 3.13541 59.1152 2.04919Z" fill="#E1F0EE"/>
<path d="M38 36L32 42.666M38 36V72V36ZM38 36L44 42.666L38 36Z" stroke="#00325A" stroke-width="4" stroke-linecap="round" stroke-linejoin="round"/>
<path d="M54 72H70L68 64H54V72Z" stroke="#00325A" stroke-width="4" stroke-miterlimit="5.759" stroke-linecap="round" stroke-linejoin="round"/>
<path d="M54 58H66L64 50H54V58Z" stroke="#00325A" stroke-width="4" stroke-miterlimit="5.759" stroke-linecap="round" stroke-linejoin="round"/>
<path d="M54 44H62L60 36H54V44Z" stroke="#00325A" stroke-width="4" stroke-miterlimit="5.759" stroke-linecap="round" stroke-linejoin="round"/>
</svg>
