<svg width="101" height="107" viewBox="0 0 101 107" fill="none" xmlns="http://www.w3.org/2000/svg">
<path fill-rule="evenodd" clip-rule="evenodd" d="M59.1152 2.04919C47.0414 0.843115 24.4298 -2.72987 14.3706 3.88518C4.22167 10.5591 2.32384 23.3866 0.367134 35.1608C-1.39 45.7341 3.58401 55.5923 6.32185 65.9659C9.29612 77.2354 3.12438 91.7621 11.7577 99.8045C20.7665 108.197 42.9252 107.698 55.2613 105.953C66.8999 104.306 70.6507 95.9792 80.2987 89.4284C90.2238 82.6894 93.3475 91.2533 96.9389 80C100.533 68.7384 101.836 48.0724 96.9389 37.2869C92.6624 27.8682 90.6596 17.1806 82.5025 10.6283C74.0693 3.85416 69.9892 3.13541 59.1152 2.04919Z" fill="#C5CBF1"/>
<path d="M36 44C36 42.9391 36.4214 41.9217 37.1716 41.1716C37.9217 40.4214 38.9391 40 40 40H60C61.0609 40 62.0783 40.4214 62.8284 41.1716C63.5786 41.9217 64 42.9391 64 44V64C64 65.0609 63.5786 66.0783 62.8284 66.8284C62.0783 67.5786 61.0609 68 60 68H40C38.9391 68 37.9217 67.5786 37.1716 66.8284C36.4214 66.0783 36 65.0609 36 64V44Z" stroke="#00325A" stroke-width="4" stroke-linecap="round" stroke-linejoin="round"/>
<path d="M44 74H56" stroke="#00325A" stroke-width="4" stroke-linecap="round" stroke-linejoin="round"/>
<path d="M44 34H56" stroke="#00325A" stroke-width="4" stroke-linecap="round" stroke-linejoin="round"/>
<path d="M44 54L48.5 58L56 50" stroke="#00325A" stroke-width="4" stroke-linecap="round" stroke-linejoin="round"/>
</svg>
